<svg xmlns="http://www.w3.org/2000/svg" width="48" height="47.998" viewBox="0 0 12.7 12.699"><g fill="#b0b5d3"><path d="m.437 12.273-.027-.03.03.027c.027.026.033.032.027.032a.27.27 0 0 1-.03-.03zm2.35-.257a1.31 1.31 0 0 1 .084-.08c.002 0-.032.036-.076.08a.962.962 0 0 1-.083.08c-.002 0 .032-.036.076-.08zm-.835-.573a.222.222 0 0 1 .036-.031c.002 0-.01.014-.028.031a.222.222 0 0 1-.035.032.138.138 0 0 1 .027-.032zm1.615-.206a.222.222 0 0 1 .035-.032c.002 0-.01.014-.027.032a.222.222 0 0 1-.035.031.138.138 0 0 1 .027-.031zM1.3 10.696a.47.47 0 0 1 .052-.048.342.342 0 0 1-.044.048.47.47 0 0 1-.05.048.342.342 0 0 1 .042-.048zm1.515-.115c.01-.011.02-.02.023-.02.002 0-.004.009-.015.02-.01.01-.02.02-.022.02-.003 0 .004-.01.014-.02zm-.668-.73c0-.002.028-.03.062-.062l.062-.06-.06.062c-.055.057-.064.065-.064.06zM.86 9.73c.1-.101.111-.112.111-.107l-.11.11-.108.107zm2.178-.075c-.01-.013-.01-.013.003-.003.008.006.014.012.014.014 0 .006-.007.002-.017-.011zM1.38 9.209a.47.47 0 0 1 .051-.048.342.342 0 0 1-.043.048.47.47 0 0 1-.051.047.342.342 0 0 1 .043-.047zm4.372-4.8c0-.013.002-.018.004-.01a.045.045 0 0 1 0 .024c-.003.005-.005 0-.004-.014zm4.936-2.396c-.01-.012-.01-.013.003-.003.013.01.017.017.01.017 0 0-.007-.006-.013-.014zm-2.482-.031a.087.087 0 0 1 .031 0c.008.002 0 .003-.018.003-.017 0-.023-.001-.013-.003z"/><path d="M2.91 11.893a.4.4 0 0 1 .048-.044c.002 0-.015.02-.04.044a.4.4 0 0 1-.046.044.283.283 0 0 1 .039-.044zm-1.01-.398c.011-.01.021-.02.023-.02.003 0-.004.01-.014.02-.01.011-.02.02-.023.02-.002 0 .004-.009.015-.02zm1.591-.181c0-.002.012-.013.026-.026l.026-.024-.023.026c-.022.024-.029.03-.029.024zm-2.282-.525c0-.002.011-.013.026-.026l.026-.023-.024.025c-.022.025-.028.03-.028.024zm1.63-.231c0-.002.006-.008.014-.014.013-.01.013-.01.003.003-.01.013-.017.017-.017.01zm1.337-.455c0-.01.002-.011.005-.005.002.006.002.012 0 .015-.004.003-.005-.002-.005-.01zm0-.143c0-.01.002-.012.005-.005.002.005.002.012 0 .015-.004.003-.005-.002-.005-.01zM2.298 9.7c.033-.035.04-.042.04-.036a.448.448 0 0 1-.038.038l-.037.036zm-1.236-.173a1.65 1.65 0 0 1 .099-.096c.002 0-.039.043-.091.096a1.757 1.757 0 0 1-.1.095c-.002 0 .04-.043.092-.095zm.195-.195c.041-.042.077-.076.079-.076.002 0-.03.034-.071.076a1.122 1.122 0 0 1-.08.075.918.918 0 0 1 .072-.075zm6.79-.407c.006-.002.013-.002.015 0 .003.003-.002.005-.01.005-.01 0-.011-.003-.005-.005zm.374 0c.005-.002.012-.002.015 0 .003.003-.002.005-.01.005-.01 0-.012-.003-.005-.005zM4.59 8.6c0-.01.002-.012.004-.005a.016.016 0 0 1 0 .015c-.003.003-.005-.002-.004-.01zm-1.864-.08c.006-.003.013-.003.016 0 .002.003-.002.004-.01.004-.01 0-.012-.002-.006-.005zm1.368-.414a.03.03 0 0 1 .02 0c.005.002 0 .004-.01.004-.011 0-.016-.002-.01-.004zM8.07 7.93c.006-.003.012-.002.015 0 .003.003-.002.005-.01.005-.01 0-.012-.003-.005-.005zm-4.3-3.284c0-.01.002-.011.004-.005.002.006.002.013 0 .015-.003.003-.005-.002-.005-.01zm.993-.024c0-.01.003-.011.005-.005.003.006.002.013 0 .015-.003.003-.005-.002-.005-.01zm-.994-.342c0-.01.003-.011.005-.005.002.006.002.013 0 .016-.003.002-.005-.003-.005-.01zm8.924-.032c0-.009.002-.01.004-.005.003.006.002.013 0 .016-.003.002-.005-.002-.004-.01zM8.588 2.132c-.01-.012-.01-.012.003-.003.013.01.018.017.011.017a.055.055 0 0 1-.014-.014zm2.124-.095c-.01-.013-.01-.013.003-.003.007.006.014.012.014.014 0 .006-.007.002-.017-.011zm-4.938-.02c0-.003.006-.009.014-.015.012-.01.013-.01.003.003-.01.013-.017.018-.017.011zm4.882-.036-.019-.022.022.02c.012.01.022.02.022.022 0 .006-.007 0-.025-.02z"/><path d="M3.034 11.77c.044-.044.081-.08.083-.08a1.69 1.69 0 0 1-.158.159.94.94 0 0 1 .075-.08zm-1.173-.235c.01-.011.02-.02.023-.02.002 0-.005.009-.015.02-.01.01-.02.02-.023.02-.002 0 .005-.01.015-.02zm1.559-.151a.907.907 0 0 1 .071-.068.83.83 0 0 1-.063.068.907.907 0 0 1-.071.067.725.725 0 0 1 .063-.067zm-2.247-.56a.222.222 0 0 1 .035-.033c.002 0-.01.015-.027.032a.222.222 0 0 1-.035.032.138.138 0 0 1 .027-.032zm1.702-.303a.063.063 0 0 1 .018-.016c.003 0-.002.007-.01.016a.063.063 0 0 1-.018.016c-.003 0 .002-.007.01-.016zM1.161 9.428c0-.001.006-.008.014-.014.013-.01.013-.01.003.003-.01.014-.017.018-.017.011zm7.236-.503c.006-.002.012-.002.015 0 .003.003-.002.005-.01.005-.01 0-.011-.003-.005-.005zm-5.798-.406c.006-.002.013-.002.015 0 .003.004-.002.005-.01.005-.01 0-.011-.002-.005-.005zm8.062-1.577a.063.063 0 0 1 .018-.016c.003 0-.002.007-.01.016a.063.063 0 0 1-.018.016c-.003 0 .002-.007.01-.016zm-4.884-.026-.015-.018.018.015c.017.015.021.021.015.021a.088.088 0 0 1-.018-.018zm4.912 0c0-.002.011-.013.026-.026l.026-.024-.024.026c-.022.024-.028.03-.028.024zm.047-4.855c-.01-.013-.01-.013.003-.003.013.01.017.017.01.017a.06.06 0 0 1-.013-.014zM5.75 2.039c.01-.01.02-.02.023-.02.002 0-.005.01-.015.02-.01.01-.02.02-.023.02-.002 0 .005-.01.015-.02zm.06-.06a.063.063 0 0 1 .018-.016c.002 0-.002.008-.01.016a.063.063 0 0 1-.019.016c-.002 0 .003-.007.01-.016z"/><path d="M3.233 11.57a2.29 2.29 0 0 1 .123-.119 3.705 3.705 0 0 1-.238.239c-.002 0 .05-.054.115-.12zm-.338-1.068c0-.002.006-.008.014-.014.012-.01.013-.01.003.003-.01.013-.017.018-.017.011zm2.91-3.558c-.01-.013-.01-.013.003-.003.007.006.014.012.014.014 0 .006-.007.002-.017-.011zm-.056-.056c-.01-.012-.01-.013.003-.003a.055.055 0 0 1 .014.014c0 .007-.007.003-.017-.01zM8.055.002c.006-.003.013-.002.015 0 .003.003-.002.005-.01.004-.01 0-.011-.002-.005-.004z"/><path d="M1.47 11.708a.087.087 0 0 1 .031 0c.008.002 0 .004-.018.004-.017 0-.023-.002-.014-.004zm-.483-.476c0-.01.002-.011.005-.005.002.006.002.013-.001.015-.003.003-.005-.002-.004-.01zm1.932-.754c0-.002.006-.008.014-.014.012-.01.013-.01.003.003-.01.013-.017.018-.017.011zm1.258-.446c0-.018.002-.024.004-.014a.087.087 0 0 1 0 .032c-.002.007-.004 0-.004-.018zm3.926-1.107c.005-.002.012-.002.015 0 .003.003-.002.005-.01.005-.01 0-.012-.003-.005-.005zm.254 0c.006-.002.013-.002.015 0 .003.003-.002.005-.01.005-.01 0-.011-.003-.005-.005zm-4.953-.333c.01-.01.02-.02.023-.02.002 0-.005.01-.015.02-.01.011-.02.02-.023.02-.002 0 .005-.009.015-.02zm-.758-.073a.113.113 0 0 1 .036 0c.01.002.002.004-.018.004-.02 0-.027-.002-.018-.004zm1.795-.267-.015-.018.018.016c.017.014.021.02.015.02a.088.088 0 0 1-.018-.018zm1.388-1.284c-.01-.013-.01-.013.003-.003.013.01.017.017.01.017a.06.06 0 0 1-.013-.014zm-.104-.104c-.01-.012-.01-.012.003-.003a.055.055 0 0 1 .014.014c0 .007-.006.003-.017-.01zm6.969-2.249c0-.01.002-.011.004-.005.003.006.002.013 0 .016-.003.002-.005-.003-.004-.01zM3.77 4.591c0-.009.003-.01.005-.005.002.006.002.013 0 .016-.003.002-.005-.002-.005-.01zm0-.254c0-.01.003-.011.005-.005.002.006.002.013 0 .015-.003.003-.005-.002-.005-.01zm8.924-.032c0-.01.002-.011.004-.005.003.006.002.013 0 .015-.003.003-.005-.002-.004-.01z"/><path d="M2.426 10.978a6.5 6.5 0 0 1 .19-.187c.003 0-.08.084-.182.187a6.5 6.5 0 0 1-.191.187c-.002 0 .08-.084.183-.187zm.529-.537a.063.063 0 0 1 .018-.016c.002 0-.003.008-.01.016a.063.063 0 0 1-.019.016c-.002 0 .003-.007.01-.016zm1.28-1.28a.47.47 0 0 1 .051-.048.342.342 0 0 1-.043.048.47.47 0 0 1-.051.048.342.342 0 0 1 .043-.048zm-2.62-.178c0-.002.006-.008.013-.014.013-.01.013-.01.003.003-.01.013-.017.017-.017.01zm2.81-.013a.063.063 0 0 1 .02-.016c.001 0-.003.007-.011.016a.063.063 0 0 1-.019.016c-.002 0 .003-.007.01-.016zm3.705-.045a.046.046 0 0 1 .024 0c.005.002-.001.004-.014.004-.013 0-.018-.002-.01-.004zm.203 0c.006-.002.013-.002.016 0 .002.003-.003.005-.01.005-.01 0-.012-.003-.006-.005zm-4.905-.356c0-.001.006-.008.014-.014.012-.01.013-.01.003.003-.01.014-.017.018-.017.011zm.286-.287c.01-.01.02-.02.023-.02.002 0-.005.01-.015.02-.01.011-.02.02-.023.02-.002 0 .005-.009.015-.02zm7.587-.58a.06.06 0 0 1 .014-.013c.013-.01.013-.01.003.003-.01.013-.017.017-.017.01zm-6.168-.03-.015-.018.018.015c.016.014.021.02.015.02a.088.088 0 0 1-.018-.017zm-.116-.116c-.01-.012-.01-.013.003-.003a.055.055 0 0 1 .014.014c0 .007-.006.003-.017-.01zm6.435-.005.014-.014c.013-.01.013-.01.003.003-.01.014-.017.018-.017.011zm-4.87-2.724a.063.063 0 0 1 .017-.016c.003 0-.002.007-.01.016a.063.063 0 0 1-.018.015c-.002 0 .002-.007.01-.015zm-2.812-.26c0-.009.003-.01.005-.004.002.005.002.012 0 .015-.003.002-.005-.002-.005-.01zm.001-.202c0-.01.002-.015.004-.01a.03.03 0 0 1 0 .02c-.002.006-.004.001-.004-.01zm3.387-.933a.18.18 0 0 1 .026-.026l.025-.023-.023.026c-.022.024-.028.03-.028.023zM4.994 1.396c0-.002.007-.008.014-.014.013-.01.013-.01.003.003-.01.013-.017.017-.017.01zm.152-.151c0-.002.006-.008.014-.014.012-.01.012-.01.003.003-.01.013-.017.017-.017.01zm6.146-.027c-.01-.013-.01-.013.003-.003.014.01.018.017.011.017l-.014-.014zM8.095.002a.016.016 0 0 1 .015 0c.003.003-.002.005-.01.004-.01 0-.012-.002-.005-.004z"/><path d="M1.297 12.691a1.307 1.307 0 0 0-.107-.027c-.474-.107-.817-.368-1.023-.782a1.643 1.643 0 0 1-.135-.373L0 11.381v-.337l.032-.13c.047-.19.095-.316.172-.45.091-.158.126-.196.809-.878.36-.36.686-.68.726-.713.372-.307.783-.41 1.247-.315.044.009.129.032.188.051.124.04.16.043.196.017.014-.01.073-.068.131-.129.171-.18.3-.293.373-.33a.487.487 0 0 1 .48.017.617.617 0 0 1 .167.169.5.5 0 0 1-.037.552 4.41 4.41 0 0 1-.21.223c-.1.099-.185.19-.19.201-.024.046-.024.088.003.167.058.18.08.306.086.492.005.158-.006.263-.038.386a1.538 1.538 0 0 1-.308.587 50.667 50.667 0 0 1-1.425 1.423c-.188.144-.377.23-.611.28a.93.93 0 0 0-.113.028 2.41 2.41 0 0 1-.38 0zm.272-.989a.564.564 0 0 0 .227-.102 53.79 53.79 0 0 0 1.181-1.177l.11-.118.068-.14c.052-.108.065-.14.057-.146a.044.044 0 0 0-.017-.007c-.003 0-.006-.014-.006-.03a.51.51 0 0 0-.343-.447.57.57 0 0 0-.297-.003c-.122.04-.11.028-.812.73-.633.633-.654.654-.685.716a.474.474 0 0 0-.034.4c.047.134.17.257.305.304a.436.436 0 0 0 .246.02zM8.1 8.925a4.473 4.473 0 0 1-4.286-3.862 4.023 4.023 0 0 1-.039-.602A4.47 4.47 0 0 1 8.87.047a4.47 4.47 0 0 1 3.718 3.428c.077.34.108.626.108.986 0 .396-.037.699-.13 1.08A4.473 4.473 0 0 1 8.62 8.91c-.145.012-.411.02-.52.015zm.533-1.008a3.476 3.476 0 0 0 1.77-.74 3.481 3.481 0 0 0 1.208-1.893 3.02 3.02 0 0 0 .094-.753 3.24 3.24 0 0 0-.163-1.132A3.492 3.492 0 0 0 8.9 1.054a2.756 2.756 0 0 0-.656-.057c-.299 0-.345.003-.576.04-.34.055-.672.164-.99.326a3.341 3.341 0 0 0-.895.648 3.456 3.456 0 0 0-1 2.06c-.022.18-.02.631.004.815a3.5 3.5 0 0 0 1.848 2.66c.4.21.836.337 1.311.382.12.011.567.004.688-.011zm-2.45-2.964a.46.46 0 0 1-.365-.265c-.048-.101-.056-.149-.055-.319.001-.228.038-.443.115-.673A2.504 2.504 0 0 1 7.44 2.117c.173-.059.362-.098.572-.118.239-.022.332-.013.45.045.12.06.217.179.252.31a.625.625 0 0 1 .003.238.491.491 0 0 1-.323.351.612.612 0 0 1-.18.031 2.822 2.822 0 0 0-.213.024 1.46 1.46 0 0 0-1.212 1.138c-.019.084-.024.12-.045.317a.618.618 0 0 1-.064.237.47.47 0 0 1-.498.263z"/></g></svg>