<svg xmlns="http://www.w3.org/2000/svg" width="31.961" height="32"><path fill="#d0d0d0" d="m27.919 31.536-2.98-1.208c-1.12-.453-1.984-.815-2.19-.917a5.885 5.885 0 0 1-1.381-.955c-.1-.091-3.22-3.21-6.932-6.93-5.18-5.189-6.774-6.796-6.847-6.906a1.996 1.996 0 0 1-.157-.297c-.058-.142-.062-.169-.06-.402 0-.286.028-.388.172-.63.102-.174.943-1.033 3.669-3.752 1.602-1.599 1.92-1.906 2.046-1.984.485-.296.978-.262 1.44.097.102.08 3.634 3.61 10.842 10.838 2.026 2.033 2.986 3.008 3.107 3.16.262.33.542.762.724 1.12.1.195.405.91.783 1.83l1.104 2.69c.267.65.533 1.324.592 1.5l.108.319v.41l-.001.411-.08.238c-.149.441-.328.764-.579 1.037-.261.285-.569.468-1.148.684l-.298.111-.402-.002-.402-.002-1.13-.46zm1.5-2.108c0-.019-2.224-5.435-2.238-5.452-.007-.007-.12.108-.252.257-.479.54-.706.72-1.04.82-.193.057-.5.049-.696-.019a1.3 1.3 0 0 1-.825-.866 1.482 1.482 0 0 1 0-.608c.087-.334.232-.528.768-1.027a4.95 4.95 0 0 0 .379-.372c-.004-.009-2.623-2.637-5.821-5.843l-5.815-5.827-1.72 1.72a132.37 132.37 0 0 0-1.72 1.736c0 .024 7.903 7.948 10.48 10.508 1.64 1.629 2.22 2.194 2.375 2.31.236.177.534.359.795.485.417.201 1.72.749 3.77 1.585 1.479.603 1.56.634 1.56.593zM4.913 11.64a1.173 1.173 0 0 1-.434-.162c-.243-.157-2.236-2.097-2.812-2.738C1.046 8.05.754 7.659.52 7.2A4.606 4.606 0 0 1 0 5.021c0-.829.18-1.563.567-2.31.261-.505.527-.868.931-1.27A4.9 4.9 0 0 1 3.21.33c.27-.104.491-.168.88-.254l.3-.066h1.3l.34.085c.878.22 1.518.524 2.1.995.213.173 1.973 1.91 2.727 2.691.55.57.626.667.717.914.066.181.081.445.037.632-.04.168-.144.38-.26.53a45.06 45.06 0 0 1-1.155 1.175C9.054 8.169 9.019 8.2 8.719 8.302c-.177.06-.464.073-.647.03a1.301 1.301 0 0 1-.893-.799c-.127-.36-.08-.743.134-1.1.05-.085.252-.303.644-.698l.57-.575-.039-.048a83.805 83.805 0 0 0-1.143-1.254c-.355-.382-.816-.817-1.012-.955a2.35 2.35 0 0 0-.879-.373 3.03 3.03 0 0 0-.856.001c-.913.174-1.66.815-1.947 1.669a2.209 2.209 0 0 0-.126.89c.021.625.217 1.096.664 1.597.11.122.795.82 1.524 1.548.728.728 1.352 1.365 1.386 1.414.034.049.092.153.13.231.271.568.01 1.317-.565 1.616a1.625 1.625 0 0 1-.267.11 1.397 1.397 0 0 1-.484.034z"/><path fill="#b9b9b9" d="M27.709 31.448c-4.075-1.65-4.741-1.924-5-2.055a6.435 6.435 0 0 1-1.11-.738c-.165-.138-2.57-2.532-7.075-7.044-7.366-7.377-6.978-6.977-7.102-7.316-.046-.127-.053-.174-.052-.384 0-.22.006-.253.061-.391a1.86 1.86 0 0 1 .139-.27c.126-.192 5.375-5.473 5.6-5.635.14-.1.372-.208.507-.236.174-.036.465-.013.627.049.324.123-.038-.23 7.14 6.958 3.694 3.699 6.816 6.832 6.938 6.964.25.27.519.622.722.944.228.362.455.85.882 1.896l1.082 2.64c.37.902.723 1.783.782 1.958l.109.318v.815l-.082.244a3.392 3.392 0 0 1-.37.776c-.188.282-.515.57-.828.73-.06.03-.272.117-.47.192l-.36.137h-.39l-.39-.001-1.36-.55zm1.711-2.033c-.09-.232-2.23-5.428-2.24-5.44-.006-.007-.125.113-.262.268-.591.668-.873.843-1.36.844a1.148 1.148 0 0 1-.86-.367 1.137 1.137 0 0 1-.359-.844c0-.225.027-.349.119-.546.112-.24.222-.369.66-.78.22-.205.4-.38.4-.386 0-.008-2.62-2.637-5.819-5.843l-5.818-5.83-1.724 1.723c-1.704 1.703-1.724 1.724-1.693 1.77.062.094 12.47 12.494 12.655 12.646.433.359.794.558 1.75.967 1.172.501 4.193 1.742 4.42 1.815l.144.046c.003.001-.003-.018-.013-.043zM4.723 11.59a1.406 1.406 0 0 1-.251-.117c-.24-.153-2.226-2.092-2.817-2.75C1.01 8.007.736 7.634.489 7.132a4.789 4.789 0 0 1-.443-1.4c-.051-.31-.051-1.104 0-1.426.086-.535.236-1.01.472-1.494A5.002 5.002 0 0 1 4.14.074a1.94 1.94 0 0 0 .227-.051c.036-.014.27-.022.643-.022h.588l.316.072c.928.212 1.58.51 2.19 1 .429.345 3.228 3.16 3.353 3.372.036.062.09.179.12.26.044.124.052.179.052.366.001.3-.075.516-.275.78-.05.066-.575.602-1.167 1.191C9.159 8.066 9.103 8.117 8.95 8.195c-.263.133-.35.156-.61.156-.187 0-.254-.009-.362-.046a1.32 1.32 0 0 1-.818-.834 1.328 1.328 0 0 1 .06-.86c.084-.194.204-.337.755-.891l.567-.572-.044-.038a26.383 26.383 0 0 1-.514-.559c-.86-.95-1.29-1.38-1.624-1.63-.24-.18-.56-.32-.893-.391a2.839 2.839 0 0 0-.871-.001c-1.046.2-1.867 1.022-2.046 2.048a3.17 3.17 0 0 0 .001.855c.062.352.221.726.429 1.007.149.2.941 1.02 2.13 2.201.493.49.93.935.972.99.15.2.257.503.258.734.001.258-.112.585-.275.795-.163.21-.427.385-.677.45a1.34 1.34 0 0 1-.664-.02z"/><path fill="#a3a3a3" d="m27.489 31.358-3.01-1.22c-1.527-.618-1.89-.784-2.27-1.033-.586-.386-.221-.03-7.586-7.402-3.788-3.79-6.927-6.946-6.977-7.012-.38-.503-.38-1.04 0-1.54.15-.197 5.405-5.455 5.543-5.546.272-.179.466-.244.724-.244.275 0 .51.088.776.29.077.06 3.205 3.18 6.95 6.934 7.174 7.19 7.014 7.026 7.365 7.558.336.51.439.727 1 2.097l1.09 2.66a73 73 0 0 1 .764 1.91l.103.3-.007.43c-.007.426-.007.432-.073.62a4.091 4.091 0 0 1-.362.76c-.314.462-.653.701-1.373.968l-.303.112-.387-.001-.387-.001zm1.912-1.993c-.15-.379-2.209-5.378-2.22-5.39-.008-.008-.104.086-.213.21-.319.36-.51.554-.642.648-.408.291-.88.338-1.297.129a1.24 1.24 0 0 1-.487-.43 1.048 1.048 0 0 1-.198-.612 1.096 1.096 0 0 1 .134-.63c.116-.236.188-.315.913-.991l.142-.132-5.82-5.834c-3.2-3.209-5.83-5.831-5.843-5.828-.034.008-3.43 3.426-3.43 3.451 0 .036 12.478 12.51 12.679 12.675.381.314.77.542 1.36.8 1.047.455 4.578 1.91 4.822 1.986l.132.041a.624.624 0 0 0-.032-.093zM4.785 11.61a1.176 1.176 0 0 1-.405-.207c-.167-.135-1.307-1.226-1.86-1.781-.853-.855-1.411-1.49-1.723-1.96A4.822 4.822 0 0 1 .05 5.74a5.801 5.801 0 0 1-.023-1.243C.23 2.747 1.26 1.273 2.809.51A5.503 5.503 0 0 1 4.051.088L4.39.014l.593-.007L5.576 0l.315.07c.919.206 1.551.489 2.168.968.196.152 1.427 1.359 2.545 2.494.816.83.883.91.975 1.186.114.344.049.736-.182 1.078-.088.131-2.139 2.187-2.29 2.296-.333.24-.7.32-1.056.23-.232-.06-.378-.147-.572-.34-.26-.26-.36-.498-.36-.857 0-.283.072-.505.246-.764.033-.05.312-.343.619-.652.507-.51.554-.564.523-.59a23.931 23.931 0 0 1-.505-.548c-.944-1.043-1.384-1.48-1.72-1.704-.612-.41-1.412-.491-2.131-.214a2.541 2.541 0 0 0-1.603 1.929c-.049.28-.03.76.039 1.025.1.385.275.713.542 1.02.088.101.795.823 1.571 1.604 1.397 1.405 1.412 1.422 1.496 1.59.187.375.186.723-.002 1.12a1.29 1.29 0 0 1-.824.67 1.533 1.533 0 0 1-.585-.001z"/><path fill="#8c8c8c" d="M27.269 31.267c-3.702-1.5-4.225-1.714-4.425-1.808a6.121 6.121 0 0 1-1.337-.886c-.271-.233-13.754-13.738-13.87-13.892-.233-.311-.328-.692-.25-1 .043-.167.145-.382.245-.513.122-.161 5.382-5.43 5.527-5.537.313-.23.684-.323.996-.248.156.038.406.165.544.276.192.154 13.683 13.678 13.87 13.904.337.406.635.866.86 1.327.07.143.27.611.446 1.04.175.43.64 1.56 1.031 2.515.846 2.059.851 2.073.964 2.402l.089.258v.403l-.001.402-.088.262c-.155.46-.357.81-.626 1.082-.262.265-.513.41-1.08.624L29.84 32l-.386-.001-.385-.002-1.8-.73zm1.048-4.548a281.53 281.53 0 0 0-1.135-2.744c-.009-.008-.157.143-.331.337a6.18 6.18 0 0 1-.45.46 1.307 1.307 0 0 1-.832.313c-.202.001-.34-.03-.52-.116a1.261 1.261 0 0 1-.47-.385c-.282-.38-.317-.864-.095-1.31.072-.145.118-.2.403-.485.177-.177.396-.39.486-.471l.164-.15-5.833-5.846-5.834-5.847-1.714 1.728a96.605 96.605 0 0 0-1.716 1.752c-.001.038 12.528 12.562 12.719 12.714.421.333.753.518 1.55.862 1.655.715 4.695 1.95 4.724 1.921.003-.002-.5-1.232-1.116-2.733zM4.77 11.603c-.269-.077-.277-.084-1.15-.911-1.445-1.37-2.423-2.42-2.833-3.043a4.853 4.853 0 0 1-.46-4.402A4.998 4.998 0 0 1 4.12.082a2.2 2.2 0 0 0 .266-.06c.035-.013.27-.02.63-.02h.572l.387.09c.212.05.479.122.592.159a4.93 4.93 0 0 1 1.533.82c.193.155 3.117 3.062 3.25 3.232.355.456.376.981.06 1.47-.09.136-2.09 2.158-2.28 2.302-.316.24-.683.331-1.038.256a1.297 1.297 0 0 1-.94-.903 1.517 1.517 0 0 1-.002-.598 1.6 1.6 0 0 1 .316-.59c.071-.082.34-.36.6-.617l.47-.468-.582-.642c-.608-.671-1.225-1.3-1.468-1.498A2.288 2.288 0 0 0 4.4 2.572 2.518 2.518 0 0 0 2.515 5c0 .393.07.709.234 1.055.192.405.198.411 2.051 2.275.747.75 1.299 1.322 1.336 1.382a1.2 1.2 0 0 1 .184.81 1.245 1.245 0 0 1-.393.777 1.278 1.278 0 0 1-.557.31c-.158.04-.448.037-.6-.007z"/><path fill="#767676" d="m27.469 31.347-3.03-1.23a63.518 63.518 0 0 1-1.65-.686 6.135 6.135 0 0 1-1.13-.726c-.128-.1-2.416-2.377-7.026-6.992-3.76-3.763-6.885-6.902-6.946-6.976-.415-.504-.431-1.057-.046-1.576.053-.072 1.318-1.35 2.812-2.84 2.06-2.056 2.744-2.727 2.831-2.778.344-.2.688-.234 1.041-.102.29.109.025-.15 7.15 6.984 3.705 3.71 6.807 6.822 6.893 6.915.51.549.918 1.19 1.227 1.92.504 1.194 2.169 5.287 2.257 5.55l.107.319v.77l-.08.242c-.159.483-.361.835-.642 1.116-.27.27-.5.402-1.066.616l-.337.127-.383-.002-.382-.002-1.6-.649zm1.966-1.906a730.62 730.62 0 0 0-2.258-5.48c-.007 0-.154.157-.327.35-.355.396-.513.536-.719.637a1.192 1.192 0 0 1-.58.132c-.516 0-.975-.333-1.155-.84-.038-.109-.046-.17-.046-.38 0-.22.006-.267.053-.396.029-.081.083-.198.12-.26.066-.114.5-.567.842-.877l.176-.16-5.835-5.845-5.834-5.844-1.73 1.73-1.73 1.73 1.712 1.726c3.315 3.344 10.861 10.866 11.055 11.02.374.299.733.503 1.36.776 1.374.598 4.777 1.99 4.886 1.999.01 0 .014-.008.01-.018zM4.805 11.612a1.218 1.218 0 0 1-.51-.286 82.98 82.98 0 0 1-1.8-1.73c-.71-.712-1.33-1.407-1.616-1.812A4.816 4.816 0 0 1 .14 3.87C.566 2.095 1.893.695 3.615.201a6.7 6.7 0 0 1 .463-.109c.14-.027.28-.059.31-.07.032-.013.282-.02.623-.02h.57l.374.087c.923.217 1.512.488 2.155.992.088.069.857.824 1.71 1.677 1.148 1.15 1.567 1.583 1.617 1.667.272.467.26.913-.039 1.36-.053.08-.474.516-1.166 1.208-1.148 1.148-1.194 1.188-1.48 1.289a1.197 1.197 0 0 1-1.315-.339 1.353 1.353 0 0 1-.296-.558 1.383 1.383 0 0 1 .116-.84c.095-.187.26-.376.79-.901l.491-.487-.374-.412c-1.14-1.257-1.52-1.636-1.878-1.88-1.072-.727-2.622-.37-3.371.775a2.407 2.407 0 0 0-.402 1.361c0 .556.162 1.04.5 1.49.09.119.637.684 1.606 1.66 1.048 1.055 1.49 1.512 1.536 1.591.19.326.226.713.097 1.069-.07.193-.146.307-.31.47a1.18 1.18 0 0 1-.873.358 1.452 1.452 0 0 1-.264-.027z"/><path fill="#606060" d="m26.869 31.103-3.03-1.23a24.465 24.465 0 0 1-1.08-.461 6.193 6.193 0 0 1-1.317-.898c-.36-.317-13.748-13.752-13.84-13.89-.153-.225-.242-.485-.242-.703 0-.256.12-.559.318-.805.065-.08 1.322-1.348 2.794-2.818 2.304-2.3 2.697-2.684 2.817-2.753.44-.255.88-.242 1.3.038.115.078 1.623 1.576 6.855 6.813 3.69 3.693 6.79 6.802 6.89 6.91a6.7 6.7 0 0 1 1.143 1.684c.057.124.512 1.226 1.876 4.55.214.523.438 1.094.498 1.27l.11.32-.007.41-.007.41-.076.22a3.79 3.79 0 0 1-.356.75c-.118.18-.39.456-.566.579-.186.128-.395.228-.798.38l-.318.121-.382-.002-.382-.002zm2.56-1.678a693.417 693.417 0 0 0-2.253-5.464 6.9 6.9 0 0 0-.344.367c-.44.487-.657.647-.989.725a1.396 1.396 0 0 1-.688-.039 1.287 1.287 0 0 1-.769-.814 1.01 1.01 0 0 1-.037-.34c0-.2.007-.25.057-.396a1.6 1.6 0 0 1 .153-.31c.093-.139.406-.459.797-.817l.188-.172-5.836-5.843-5.837-5.843-1.73 1.73-1.73 1.73 1.183 1.195c2.23 2.257 11.415 11.419 11.575 11.546.407.323.77.523 1.6.88 1.623.698 4.54 1.887 4.657 1.898.01.001.011-.014.004-.033zM4.8 11.61a1.254 1.254 0 0 1-.506-.288c-.758-.692-2.049-1.963-2.531-2.491C1.015 8.014.75 7.655.477 7.09a4.774 4.774 0 0 1-.431-1.409 6.602 6.602 0 0 1-.01-1.261 5.202 5.202 0 0 1 1.066-2.53 6.67 6.67 0 0 1 .719-.738A5.03 5.03 0 0 1 4.03.103c.166-.033.327-.07.357-.081.032-.013.277-.02.615-.02h.56l.313.07c.618.14.929.246 1.363.461.32.159.577.32.85.534.185.145 2.973 2.906 3.2 3.17.234.27.337.53.337.844 0 .154-.011.22-.055.35-.11.323-.152.372-1.26 1.487A43.178 43.178 0 0 1 9.169 8.04c-.269.214-.524.31-.83.309a1.16 1.16 0 0 1-.861-.368 1.157 1.157 0 0 1-.358-.85c0-.21.042-.382.142-.585.098-.2.358-.49.918-1.028l.367-.353-.107-.117a210.64 210.64 0 0 1-.567-.627C7.348 3.838 6.69 3.173 6.44 2.975a2.438 2.438 0 0 0-.99-.457c-.18-.039-.684-.034-.883.009-.872.186-1.572.767-1.885 1.564a2.462 2.462 0 0 0 .375 2.46c.062.077.766.797 1.564 1.6 1.07 1.075 1.471 1.491 1.524 1.58.118.197.178.403.178.617 0 .1-.014.246-.032.323a1.28 1.28 0 0 1-.814.904 1.398 1.398 0 0 1-.676.035z"/><path fill="#494949" d="M27.459 31.338c-4.956-2.008-4.797-1.94-5.31-2.281a5.863 5.863 0 0 1-.717-.554c-.234-.204-13.657-13.657-13.767-13.797-.369-.47-.397-.97-.082-1.464.063-.099.757-.806 2.785-2.838 2.83-2.834 2.835-2.84 3.121-2.958.33-.137.69-.103 1.04.098.123.07.961.902 6.99 6.933 3.768 3.77 6.925 6.943 7.017 7.053.375.45.648.872.894 1.379.08.166.34.774.576 1.351l1.082 2.64c.36.875.702 1.733.762 1.908l.109.318v.756l-.083.254c-.157.483-.343.812-.624 1.099-.279.286-.484.408-1.063.628l-.36.137h-.37l-.37-.001-1.63-.66zm1.98-1.89c0-.015-2.243-5.475-2.254-5.488-.01-.01-.093.076-.434.454-.284.316-.41.422-.622.527a1.15 1.15 0 0 1-.56.139c-.345 0-.609-.113-.862-.367-.415-.417-.482-.989-.176-1.515.076-.131.396-.465.808-.844l.21-.193-5.84-5.84-5.84-5.84-1.728 1.728-1.729 1.729.142.156c.079.086 2.922 2.934 6.319 6.328 6.412 6.407 6.308 6.305 6.736 6.572.455.283 1.13.578 4.21 1.837 1.359.556 1.62.655 1.62.618zM4.812 11.61c-.204-.051-.363-.145-.56-.327-1.345-1.25-2.537-2.462-3.12-3.172a4.984 4.984 0 0 1-.97-1.875 4.918 4.918 0 0 1 .357-3.412c.25-.51.519-.894.909-1.298C2.17.758 3.047.293 4.146.082c.12-.022.233-.05.254-.061.022-.012.264-.02.598-.02h.561l.355.082c.196.046.443.109.55.14a5.026 5.026 0 0 1 1.682.891c.215.177 3.023 2.973 3.179 3.167.202.251.302.516.3.8a1.18 1.18 0 0 1-.15.565c-.103.199-.375.49-1.498 1.608-.826.82-.94.917-1.202 1.016-.46.172-.934.07-1.287-.28a1.169 1.169 0 0 1-.332-.571 1.303 1.303 0 0 1 .147-.955c.044-.075.261-.31.654-.707l.588-.594-.088-.097-.555-.616c-.568-.63-1.27-1.332-1.51-1.512-.615-.46-1.395-.579-2.15-.325-.743.25-1.36.858-1.6 1.58a2.178 2.178 0 0 0-.13.808c0 .16.011.348.025.42.073.38.236.755.456 1.05.09.12.617.665 1.577 1.63a91.12 91.12 0 0 1 1.503 1.53c.085.111.181.308.217.444.038.147.038.444 0 .597-.112.44-.405.756-.845.911a1.42 1.42 0 0 1-.633.027z"/><path fill="#333" d="M27.019 31.159c-3.734-1.514-4.047-1.643-4.3-1.771a5.768 5.768 0 0 1-1.27-.875C21.206 28.3 7.89 14.97 7.713 14.763c-.321-.374-.42-.802-.28-1.205.118-.338.037-.251 2.924-3.144 1.47-1.471 2.726-2.717 2.792-2.766.495-.376 1.039-.375 1.528.002.193.148 13.662 13.65 13.897 13.93.294.351.611.837.814 1.247a58.4 58.4 0 0 1 .842 1.983l1.098 2.68c.235.572.473 1.175.529 1.34l.101.3v.75l-.088.27c-.198.602-.473 1.011-.88 1.315-.192.143-.418.254-.844.414l-.323.121-.367-.001-.367-.001-2.07-.84zm2.414-1.734c-.008-.026-2.06-5.027-2.221-5.41l-.032-.077-.193.216c-.28.313-.586.623-.678.686-.403.276-.892.316-1.298.106a1.418 1.418 0 0 1-.54-.546c-.18-.367-.173-.727.02-1.117.082-.168.119-.215.345-.442.139-.14.356-.35.483-.466l.23-.212-5.83-5.836c-3.206-3.21-5.834-5.838-5.84-5.841-.005-.003-.788.773-1.738 1.723l-1.728 1.728.102.117c.056.064 2.903 2.916 6.328 6.338 4.861 4.859 6.267 6.253 6.416 6.362.508.375.706.474 2.29 1.142.9.379 3.492 1.44 3.68 1.505.192.067.218.07.204.024zM4.813 11.61c-.192-.046-.383-.16-.582-.348C2.415 9.553 1.385 8.483.888 7.788a4.815 4.815 0 0 1-.816-3.573A5.091 5.091 0 0 1 2.23.852 4.952 4.952 0 0 1 4.061.1c.16-.032.316-.067.346-.079.034-.013.269-.02.602-.02h.546l.377.087c.454.106.665.169.957.286.425.17.861.425 1.23.718.094.074.851.815 1.683 1.646 1.648 1.646 1.667 1.667 1.767 1.985a.99.99 0 0 1 .05.34c0 .224-.039.38-.146.587-.074.142-.144.222-.636.73-.667.689-1.552 1.563-1.699 1.679a1.5 1.5 0 0 1-.5.252 1.26 1.26 0 0 1-.813-.079c-.574-.29-.837-.91-.637-1.502.096-.282.156-.358.777-.984l.58-.583-.068-.078C7.9 4.422 7.01 3.482 6.64 3.146c-.482-.44-.926-.633-1.51-.66-.703-.03-1.37.236-1.89.754a2.404 2.404 0 0 0-.61.988A2.461 2.461 0 0 0 3 6.482c.124.165 1.19 1.257 2.185 2.239.778.767.912.914 1.016 1.121.171.34.158.776-.035 1.145-.247.472-.841.746-1.353.622z"/></svg>