<svg xmlns="http://www.w3.org/2000/svg" width="60" height="59.891" viewBox="0 0 15.875 15.846"><g fill="#36d68b"><path d="M7.717 14.059a.056.056 0 0 1 .036 0c.01.004.002.007-.018.007-.02 0-.028-.003-.018-.007zm.42 0a.056.056 0 0 1 .036 0c.01.004.002.007-.018.007-.02 0-.028-.003-.018-.007zm-5.804-.385-.028-.032.033.027c.03.026.04.038.027.038a.16.16 0 0 1-.032-.033zm-.181-.18c-.018-.023-.018-.024.005-.006.024.02.032.031.02.031-.003 0-.014-.011-.025-.025zm1.49-1.07-.035-.04.04.035c.037.033.046.044.035.044a.25.25 0 0 1-.04-.04zm-.116-.116-.035-.04.04.035c.037.033.046.045.035.045a.25.25 0 0 1-.04-.04zm5.314-1.226c0-.159.003-.226.005-.149.003.077.003.208 0 .29-.002.082-.005.018-.005-.14zm0-3.05c0-.168.003-.234.005-.148a5.1 5.1 0 0 1 0 .303c-.002.081-.004.011-.004-.156zM0 8.202c0-.016.004-.02.009-.008.004.01.003.023-.001.027-.005.005-.009-.003-.008-.019zm14.027 0c0-.016.004-.02.009-.008.004.01.003.023-.001.027-.005.005-.009-.003-.008-.019zm0-.52c0-.017.004-.02.009-.009.004.01.003.023-.001.028-.005.005-.009-.004-.008-.02zm-12.19-.029c0-.017.004-.02.008-.009.004.01.004.023 0 .028-.006.005-.009-.004-.008-.019zm14.026-.231c.001-.017.005-.02.01-.01.003.011.003.024-.002.029-.005.004-.008-.004-.008-.02zm-8.75-3.598c0-.003.012-.015.026-.025.023-.018.023-.018.005.005-.019.024-.03.032-.03.02z"/><path d="M7.545 15.837c.01-.004.023-.003.027.001.005.005-.003.009-.019.008-.016 0-.02-.004-.008-.009zm.752 0c.01-.004.023-.003.027.001.005.005-.003.009-.019.008-.016 0-.02-.004-.008-.009zm-.622-1.778c.01-.005.023-.004.028 0 .004.006-.004.009-.02.008-.016 0-.02-.004-.008-.008zm.52 0c.01-.005.023-.004.028 0 .005.006-.004.009-.019.008-.017 0-.02-.004-.009-.008zm-5.955-.475a.329.329 0 0 1-.056-.065.5.5 0 0 1 .07.065.31.31 0 0 1 .057.065.5.5 0 0 1-.07-.065zm10.043-1.222a.114.114 0 0 1 .034-.029c.004 0-.005.013-.02.03a.114.114 0 0 1-.033.028c-.004 0 .005-.013.02-.029zm-4.406-.082c.01-.004.023-.004.028.001.005.005-.004.008-.019.008-.017-.001-.02-.004-.009-.01zm.102 0c.01-.004.022-.004.027.001.005.005-.004.008-.019.008-.017-.001-.02-.004-.008-.01zm-.947-1.002c0-.06.002-.084.005-.055a.63.63 0 0 1 0 .109c-.003.03-.005.005-.005-.054zm1.81-1.714c0-.684.001-.962.003-.617.002.344.002.904 0 1.243-.002.34-.004.058-.004-.626zm5.185-1.317c0-.017.004-.02.009-.009.004.01.003.023-.001.028-.005.005-.009-.004-.008-.02zm-6.995-.433c0-.055.002-.076.005-.046a.54.54 0 0 1 0 .1c-.003.026-.005.002-.005-.054zm.873-5.99c.042-.003.11-.003.152 0 .042.003.008.005-.076.005-.083 0-.117-.002-.076-.005zM7.545.003c.01-.004.023-.004.027.001.005.005-.003.008-.019.008-.016-.001-.02-.005-.008-.01zm.708 0c.01-.004.023-.004.028.001.005.005-.004.008-.019.008-.017-.001-.02-.005-.009-.01zm-.665 15.834c.01-.004.023-.003.028.001.005.005-.004.009-.02.008-.016 0-.02-.004-.008-.009zm.65-1.778c.011-.005.024-.004.029 0 .004.006-.004.009-.02.008-.016 0-.02-.004-.008-.008zm3.98-1.632a.171.171 0 0 1 .041-.036c.004 0-.008.016-.026.036a.171.171 0 0 1-.042.036c-.004 0 .009-.016.027-.036zm.101-.1a.12.12 0 0 1 .026-.025c.023-.018.023-.017.005.006-.019.024-.03.032-.03.02zm-4.4-.047a.056.056 0 0 1 .037 0c.01.004.002.008-.018.008-.02 0-.028-.004-.018-.008zm-.887-1.212c0-.064.002-.088.005-.054a.722.722 0 0 1 0 .116c-.003.03-.005.002-.005-.062zm.001-1.612c0-.362.002-.51.005-.33.002.181.002.478 0 .659-.003.18-.005.032-.005-.33zm0-1.396c0-.087.002-.121.005-.075.002.046.002.117 0 .159-.003.041-.006.004-.006-.084zm8.83.071c.001-.017.005-.02.01-.009.003.01.003.023-.002.028-.005.005-.008-.004-.008-.019zM7.294 7.084a.114.114 0 0 1 .034-.029c.004 0-.005.013-.02.029a.114.114 0 0 1-.033.029c-.004 0 .005-.013.02-.029zm1.264-.01c-.018-.024-.018-.024.005-.006.024.019.032.03.02.03-.003 0-.014-.011-.025-.025zm-.753-5.25c.01-.003.023-.003.028.002.004.005-.004.008-.02.008-.016-.001-.02-.005-.008-.01zm.332.001a.056.056 0 0 1 .036 0c.01.004.002.007-.018.007-.02 0-.028-.003-.018-.007z"/><path d="M7.631 15.837c.01-.004.023-.003.028.001.005.005-.004.009-.019.008-.017 0-.02-.004-.009-.009zm.578 0a.056.056 0 0 1 .036 0c.01.005.002.008-.018.008-.02 0-.028-.003-.018-.007zm-.606-1.778c.01-.005.022-.004.027 0 .005.006-.003.009-.019.008-.017 0-.02-.004-.008-.008zm4.76-1.775c0-.003.011-.014.025-.025.023-.018.024-.017.006.006-.02.024-.031.031-.031.02zm-5.33-1.751c0-.239.002-.338.005-.222.002.117.002.312 0 .434-.003.122-.005.026-.005-.212zm0-2.025c0-.167.002-.233.005-.147.002.086.002.222 0 .304-.003.08-.005.01-.005-.157zm-5.196-.174c0-.017.004-.02.008-.01.005.011.004.024 0 .029-.006.004-.009-.004-.008-.02zM.002 8.089c0-.024.003-.032.007-.018a.083.083 0 0 1 0 .044c-.005.01-.008-.002-.007-.026zm15.863-.007c0-.02.003-.028.007-.018a.056.056 0 0 1 0 .036c-.004.01-.007.002-.007-.018zM0 7.524c0-.017.004-.02.009-.009.004.01.003.023-.001.028-.005.005-.009-.004-.008-.02zm15.863 0c.001-.017.005-.02.01-.009.003.01.003.023-.002.028-.005.005-.008-.004-.008-.02zM13.72 2.489c-.018-.023-.017-.023.006-.005.014.01.025.022.025.025 0 .012-.012.004-.03-.02zm-.274-.275c-.018-.023-.018-.023.005-.005.014.01.025.022.025.025 0 .012-.012.004-.03-.02zm-5.7-.389a.056.056 0 0 1 .036 0c.01.004.002.007-.018.007-.02 0-.028-.003-.018-.007zm.449 0a.056.056 0 0 1 .036 0c.01.004.001.007-.018.007-.02 0-.028-.003-.018-.007zM7.617.003c.01-.004.023-.004.028.001.005.005-.004.008-.02.008-.016-.001-.02-.005-.008-.01zm.564 0c.01-.004.023-.004.028.001.004.005-.004.008-.02.008-.016-.001-.02-.005-.008-.01z"/><path d="M7.675 15.837c.01-.004.023-.003.028.001.004.005-.004.009-.02.008-.016 0-.02-.004-.008-.009zm.491 0c.01-.004.023-.003.028.001.005.005-.004.009-.019.008-.017 0-.02-.004-.009-.009zM7.56 14.06c.01-.005.023-.004.028 0 .005.006-.004.009-.02.008-.016 0-.02-.004-.008-.008zm.986-2.006c0-.003.012-.014.025-.025.023-.018.024-.018.006.005-.019.024-.03.032-.03.02zM.001 8.023c0-.019.004-.027.008-.017a.056.056 0 0 1 0 .036C.004 8.052 0 8.044 0 8.024zm15.864 0c0-.019.003-.027.007-.017a.056.056 0 0 1 0 .036c-.004.01-.007.002-.007-.018zM.002 7.584c0-.024.003-.032.007-.018a.083.083 0 0 1 0 .043c-.005.01-.008-.001-.007-.025zm15.863 0c0-.024.004-.032.007-.018a.083.083 0 0 1 0 .043c-.004.01-.007-.001-.007-.025zm-8.731-2.18-.028-.033.033.028c.03.026.039.037.027.037a.16.16 0 0 1-.032-.032zm1.585.013c0-.003.011-.015.025-.026.023-.018.023-.017.005.006-.018.024-.03.031-.03.02zm4.951-2.978-.027-.032.032.027c.03.026.04.038.028.038a.16.16 0 0 1-.033-.033zm-.173-.173-.028-.033.033.028c.03.026.039.037.027.037a.16.16 0 0 1-.032-.032zm-5.793-.44c.01-.004.023-.004.027.001.005.005-.003.008-.019.008-.016-.001-.02-.005-.008-.01zM7.66.003c.01-.004.023-.004.028.001.005.005-.004.008-.019.008C7.652.01 7.65.007 7.66.002zm.478 0c.01-.004.022-.004.027.001.005.005-.003.008-.019.008-.017-.001-.02-.005-.008-.01z"/><path d="M7.717 15.838a.056.056 0 0 1 .036 0c.01.004.002.007-.018.007-.02 0-.028-.003-.018-.007zm.39 0a.056.056 0 0 1 .037 0c.01.004.002.007-.018.007-.02 0-.028-.003-.018-.007zm5.34-2.093c0-.003.012-.015.026-.025.023-.018.023-.018.005.005-.019.024-.03.032-.03.02zm.29-.29c0-.002.011-.014.025-.025.023-.018.023-.017.005.006-.019.024-.03.032-.03.02zm-9.951-.887c-.018-.023-.018-.023.005-.005.014.01.026.022.026.025 0 .012-.012.004-.031-.02zm3.514-.535c-.018-.023-.018-.023.005-.005.024.019.032.03.02.03-.003 0-.014-.01-.025-.025zM0 7.973c0-.018.004-.021.009-.01.004.01.003.023-.001.028-.005.005-.009-.004-.008-.019zm15.863 0c.001-.018.005-.021.01-.01.003.01.003.023-.002.028-.005.005-.008-.004-.008-.019zM0 7.64c0-.017.004-.02.009-.01.004.011.003.024-.001.028-.005.005-.009-.003-.008-.018zm15.863 0c.001-.017.005-.02.01-.01.003.011.003.024-.002.028-.005.005-.008-.003-.008-.018zm-7.971-.812c.01-.004.023-.003.027.001.005.005-.003.009-.019.008-.016 0-.02-.004-.008-.009zm.072 0c.01-.004.023-.003.028.001.005.005-.004.009-.02.008-.016 0-.02-.004-.008-.009zM3.578 3.541a.854.854 0 0 1 .093-.087.622.622 0 0 1-.079.087.854.854 0 0 1-.093.087.622.622 0 0 1 .079-.087zM2.132 2.5a.114.114 0 0 1 .033-.029c.004 0-.004.013-.019.029a.114.114 0 0 1-.033.029c-.004 0 .004-.013.019-.03zm11.452-.148-.057-.062.061.057c.057.054.068.066.058.066a.644.644 0 0 1-.062-.061zM2.428 2.205c0-.003.012-.014.026-.025.023-.018.023-.018.005.005-.019.025-.03.032-.03.02zM7.71.003a.083.083 0 0 1 .044 0c.01.004-.002.007-.026.007S7.696.006 7.71.003zm.347 0a.119.119 0 0 1 .05 0c.015.003.003.006-.025.006-.027 0-.039-.003-.025-.006z"/><path d="M7.525 15.832c-2.448-.12-4.592-1.216-5.954-3.042C.543 11.41.01 9.715.01 7.814c0-.468.019-.741.083-1.164.353-2.319 1.784-4.382 3.876-5.59A7.924 7.924 0 0 1 7.316.026a10.79 10.79 0 0 1 1.193 0 8.065 8.065 0 0 1 4.578 1.867c.233.195.776.738.967.968 1.006 1.21 1.599 2.586 1.772 4.108.088.78.039 1.77-.131 2.631-.522 2.64-2.195 4.68-4.634 5.654-.775.31-1.62.501-2.487.563-.304.022-.778.029-1.05.015zm1.23-1.805c1.212-.146 2.213-.555 3.102-1.266a7.31 7.31 0 0 0 .754-.739c.774-.927 1.238-2.03 1.394-3.318a9.84 9.84 0 0 0 .022-1.268c-.102-1.286-.548-2.443-1.312-3.404a6.681 6.681 0 0 0-1.19-1.121 6.469 6.469 0 0 0-1.212-.655c-1.006-.396-2.08-.521-3.236-.377-2.698.336-4.686 2.243-5.154 4.945a7.084 7.084 0 0 0-.016 2.154c.274 1.779 1.255 3.31 2.69 4.197.806.498 1.728.788 2.791.878a10.97 10.97 0 0 0 1.367-.026zm-1.06-1.78c-.295-.078-.503-.279-.607-.586l-.04-.116V7.583l.034-.109a.89.89 0 0 1 .623-.614 1.17 1.17 0 0 1 .466 0 .896.896 0 0 1 .63.643c.024.088.026.231.026 2.054v1.96l-.033.114a.838.838 0 0 1-.227.393.78.78 0 0 1-.394.223 1.049 1.049 0 0 1-.478 0zm.021-6.545a1.118 1.118 0 0 1-.865-.812 1.274 1.274 0 0 1 0-.574c.112-.397.425-.701.82-.799a1.44 1.44 0 0 1 .534 0c.219.054.46.205.6.376.166.203.248.431.249.697 0 .206-.03.336-.121.527a.762.762 0 0 1-.198.274.992.992 0 0 1-.426.27 1.165 1.165 0 0 1-.593.04z"/></g></svg>