<svg xmlns="http://www.w3.org/2000/svg" width="108" height="108.21" viewBox="0 0 28.575 28.631"><g fill="#fff"><path d="m24.308 28.197-.035-.04.04.034c.039.032.05.046.035.046a.199.199 0 0 1-.04-.04zm-5.215-.54a.12.12 0 0 1 .031-.03c.029-.023.03-.022.007.006-.023.03-.038.04-.038.025zm.991-2.48c0-.113.003-.16.006-.103.004.057.004.15 0 .206-.003.057-.006.01-.006-.103zm-2.235-1.843c0-1.058.002-1.49.005-.962.003.53.003 1.395 0 1.924-.003.529-.005.096-.005-.962zM9.296 22.01a1.82 1.82 0 0 1 .151-.143c.005 0-.055.064-.133.143a1.82 1.82 0 0 1-.151.143c-.005 0 .055-.064.133-.143zm14.813-.036c0-.054.003-.076.007-.05a.395.395 0 0 1 0 .1c-.004.026-.007.004-.007-.05zm-2.237-.233c0-.064.004-.09.008-.058a.57.57 0 0 1 0 .117c-.004.032-.008.005-.008-.059zm4.458-.223c0-.168.002-.238.006-.158.003.081.003.218 0 .304-.004.087-.006.021-.006-.146zm-19.235-.474a1.82 1.82 0 0 1 .151-.144c.005 0-.055.065-.133.144a1.82 1.82 0 0 1-.151.143c-.005 0 .055-.065.133-.143zm21.47-.117c0-.049.003-.067.007-.04a.319.319 0 0 1 0 .09c-.005.022-.008 0-.008-.05zm-17.416-.09c.001-.022.006-.026.011-.012.005.013.005.029-.001.035-.006.006-.01-.005-.01-.024zm0-.072c.001-.021.006-.025.011-.011.005.013.005.028-.001.034-.006.006-.01-.004-.01-.023zm2.08-1.095c.097-.003.25-.003.34 0 .09.003.012.006-.175.006s-.261-.003-.165-.006zm-8.4-2.505c-.022-.028-.021-.029.007-.007.017.014.031.028.031.032 0 .014-.014.005-.038-.025zm6.639-.054c-.022-.028-.022-.029.007-.006.017.013.03.027.03.03 0 .016-.014.006-.037-.024zm-.319-.748c.001-.021.006-.025.011-.011.005.013.005.028-.001.034-.006.006-.01-.004-.01-.023zm0-.072c.001-.02.006-.025.011-.01.005.012.005.028-.001.034-.006.006-.01-.005-.01-.024zm-4.099-.786a.212.212 0 0 1 .051-.044c.005 0-.01.02-.033.044a.212.212 0 0 1-.05.045c-.006 0 .01-.02.032-.045zm19.278-2.64c0-.053.003-.075.007-.048a.395.395 0 0 1 0 .098c-.004.027-.007.005-.007-.05zM7.623 12.5a.39.39 0 0 1 .07-.063.257.257 0 0 1-.052.063.39.39 0 0 1-.07.063c-.005 0 .019-.028.052-.063zm-2.255-.38-.26-.264.265.26c.145.142.264.26.264.263 0 .013-.028-.014-.269-.26zm5.781-.23c.001-.02.006-.025.011-.01.005.012.005.028-.001.034-.006.006-.01-.005-.01-.024zm0-.071c.001-.021.006-.025.011-.011.005.013.005.028-.001.034-.006.006-.01-.005-.01-.023zm-1.87-.974a.498.498 0 0 1 .078-.072.31.31 0 0 1-.061.072.498.498 0 0 1-.079.071.31.31 0 0 1 .061-.071zm17.051-.69c0-.265.003-.376.006-.246s.003.347 0 .483-.006.03-.006-.236zm2.236-.16c0-.118.003-.164.006-.102.004.062.004.158 0 .214-.003.057-.006.006-.006-.112zM6.87 10.1a.212.212 0 0 1 .051-.044c.005 0-.01.02-.033.044a.212.212 0 0 1-.05.045c-.006 0 .01-.02.032-.045zm.59-.605a.43.43 0 0 1 .059-.058l.058-.053-.052.059c-.05.054-.064.066-.064.052zm.636-.638a.141.141 0 0 1 .041-.036c.005 0-.005.016-.023.036a.141.141 0 0 1-.041.035c-.005 0 .005-.016.023-.035zm17.883-.05c-.022-.028-.022-.029.007-.006.03.023.04.038.024.038a.127.127 0 0 1-.031-.032zm-5.895-1.05c0-.208.002-.29.006-.183.003.106.003.275 0 .375-.004.1-.006.014-.006-.193zM9.525 6.715a.147.147 0 0 1 .062 0c.017.004.003.008-.032.008-.034 0-.048-.004-.03-.008zm.804 0a.147.147 0 0 1 .063 0c.017.004.003.008-.031.008-.035 0-.049-.004-.032-.008zm3.181-.98a.212.212 0 0 1 .051-.046c.005 0-.01.02-.033.045a.212.212 0 0 1-.051.045c-.005 0 .01-.02.033-.045zm4.332-.146c0-.02.005-.025.01-.01.006.013.005.028 0 .034-.007.006-.01-.005-.01-.024z"/><path d="M17.842 25.274c0-.02.005-.025.01-.01.006.012.005.028 0 .033-.007.006-.01-.004-.01-.023zm2.244-1.466c0-.65.002-.913.005-.585.002.328.002.86 0 1.181-.003.322-.005.054-.005-.596zm-12.553-.033c0-.004.015-.018.032-.032.028-.022.029-.021.007.007-.024.03-.039.04-.039.025zm1.495-1.497a1.33 1.33 0 0 1 .133-.125c.005 0-.047.056-.116.125a1.413 1.413 0 0 1-.133.125c-.005 0 .047-.056.116-.125zm15.082-.08c0-.079.003-.109.007-.067a.886.886 0 0 1 0 .143c-.005.037-.008.002-.008-.076zm2.22-.161c0-.128.002-.178.006-.111a2.99 2.99 0 0 1 0 .232c-.004.061-.007.007-.007-.121zm-4.456-.618c0-.123.002-.173.006-.112.003.062.003.163 0 .224-.004.062-.006.011-.006-.112zm-14.556-.595c.074-.079.09-.093.09-.08a.902.902 0 0 1-.085.086l-.085.08Zm21.248-.174c0-.113.003-.16.006-.103.004.057.004.15 0 .206-.003.056-.006.01-.006-.103zM9.672 16.033a.141.141 0 0 1 .041-.036c.005 0-.006.016-.023.036a.141.141 0 0 1-.042.036c-.005 0 .006-.016.024-.036zm-2.568-.58a.12.12 0 0 1 .031-.03c.029-.023.03-.022.007.006-.023.03-.038.04-.038.025zm2.939-.225c0-.035.003-.049.008-.031a.147.147 0 0 1 0 .062c-.005.017-.008.003-.008-.031zM7.72 12.4a.141.141 0 0 1 .042-.036c.005 0-.006.016-.024.036a.141.141 0 0 1-.041.035c-.005 0 .006-.016.023-.035zm1.423-1.423a.39.39 0 0 1 .07-.063.257.257 0 0 1-.052.063.39.39 0 0 1-.07.063c-.005 0 .019-.028.052-.063zm19.423-.367c0-.231.002-.326.005-.21.004.116.004.305 0 .42-.003.116-.005.022-.005-.21zm-21.641-.56c0-.004.014-.018.031-.032.029-.022.03-.021.007.007-.023.03-.038.04-.038.025zm3.117-.414c0-.03.004-.04.009-.022a.102.102 0 0 1 0 .054c-.006.012-.01-.002-.009-.032zm16.282.016c0-.02.005-.025.01-.01.006.013.005.028 0 .034-.007.006-.011-.005-.01-.024zm-6.239-.812c0-.399.003-.562.006-.363.003.2.003.526 0 .725-.003.2-.006.036-.006-.362zm1.784.626c0-.025.005-.035.01-.022a.07.07 0 0 1 0 .044c-.005.013-.01.003-.01-.022zM7.596 9.359a.141.141 0 0 1 .041-.036c.005 0-.005.016-.023.036a.141.141 0 0 1-.041.035c-.005 0 .005-.016.023-.035zm.42-.419a.15.15 0 0 1 .032-.031c.028-.022.029-.022.007.007-.024.03-.038.039-.038.024zm1.68-.132c-.022-.028-.021-.029.007-.006.017.013.031.027.031.031 0 .015-.014.005-.038-.025zM9.65 6.715a.395.395 0 0 1 .099 0c.027.004.005.008-.05.008-.053 0-.076-.004-.049-.008zm.377 0c.057-.004.145-.004.197 0 .051.004.004.007-.104.007s-.15-.003-.093-.007zm4.47-3.504c0-.021.005-.026.01-.011.006.013.005.028 0 .034-.007.006-.011-.005-.01-.023z"/><path d="M8.24 23.066c.364-.365.666-.663.671-.663.005 0-.289.298-.653.663-.364.364-.666.662-.67.662-.006 0 .288-.298.652-.662zm11.845-1.011c0-.325.003-.46.006-.301.003.159.003.425 0 .59-.003.166-.006.035-.006-.29zm8.458.481c0-.02.005-.025.01-.01.006.012.005.028-.001.034-.006.006-.01-.005-.01-.024zm-4.437-.168c0-.025.004-.035.01-.023a.07.07 0 0 1 0 .045c-.006.012-.01.002-.01-.022zm2.218-.082c0-.021.005-.025.01-.011.006.013.005.028 0 .034-.007.006-.011-.004-.01-.023zm-4.452-1.189c0-.064.004-.09.008-.058a.57.57 0 0 1 0 .116c-.004.032-.008.006-.008-.058zm-14.464-.362c0-.003.16-.162.354-.354l.353-.348-.349.353c-.324.328-.358.361-.358.349zm21.157-.416c0-.079.003-.109.007-.067a.886.886 0 0 1 0 .143c-.004.037-.007.003-.007-.076zm-17.095-.304a.212.212 0 0 1 .051-.045c.005 0-.01.02-.033.045a.212.212 0 0 1-.05.044c-.006 0 .009-.02.032-.044zM5.805 18.14l-.034-.04.04.034c.038.032.049.046.034.046a.199.199 0 0 1-.04-.04zm3.768-2.008a.39.39 0 0 1 .07-.063c.005 0-.018.028-.052.063a.39.39 0 0 1-.07.062.266.266 0 0 1 .052-.062zm-4.786-.6a.141.141 0 0 1 .041-.036c.005 0-.006.016-.023.036a.141.141 0 0 1-.042.036c-.005 0 .006-.016.024-.036zm6.665.03c0-.005.014-.019.032-.032.028-.022.029-.022.006.007-.023.03-.038.039-.038.024zm-4.267-.19a.141.141 0 0 1 .04-.037c.006 0-.005.016-.023.036a.141.141 0 0 1-.04.036c-.006 0 .005-.016.023-.036zm.662-3.097a.752.752 0 0 1 .097-.09.495.495 0 0 1-.08.09.752.752 0 0 1-.097.09.538.538 0 0 1 .08-.09zm20.719-1.046c0-.119.003-.165.006-.103.004.062.004.159 0 .215-.003.056-.006.006-.006-.112zm-19.61-.063a1.33 1.33 0 0 1 .133-.125c.005 0-.047.056-.115.125a1.413 1.413 0 0 1-.133.125c-.005 0 .047-.056.115-.125zm11.129-1.253c0-.201.002-.284.006-.183.003.1.003.266 0 .367-.004.1-.006.018-.006-.184zm-13.08.054a.141.141 0 0 1 .042-.036c.005 0-.006.016-.024.036a.141.141 0 0 1-.04.036c-.006 0 .005-.016.023-.036zm14.868-.331c0-.079.003-.109.007-.067a.886.886 0 0 1 0 .144c-.004.036-.007.002-.007-.077zM7.819 9.139c.104-.105.19-.192.193-.192.013 0-.01.023-.188.197l-.192.188zm15.014-1.883a.39.39 0 0 1 .07-.063c.005 0-.019.029-.052.063a.39.39 0 0 1-.07.063c-.005 0 .019-.028.052-.063zm4.757-.004c-.022-.029-.021-.03.007-.007.017.013.032.027.032.031 0 .015-.015.005-.039-.024zM9.82 6.716a.255.255 0 0 1 .08 0c.022.004.004.007-.04.007-.045 0-.063-.003-.04-.007zm4.676-3.255c0-.02.005-.025.01-.01.006.012.005.028 0 .034-.007.005-.011-.005-.01-.024zm0-.197c0-.02.005-.025.01-.01.006.012.005.028 0 .034-.007.006-.011-.005-.01-.024z"/><path d="M28.544 22.475c0-.025.004-.035.009-.022a.07.07 0 0 1 0 .044c-.005.013-.009.003-.009-.022zm-24.085-.582c0-.029.005-.039.009-.022a.102.102 0 0 1 0 .054c-.006.012-.01-.002-.009-.032zm15.626-1.091c0-.374.003-.53.006-.346.003.184.003.49 0 .68-.003.19-.006.04-.006-.334zm1.787.08c0-.063.004-.09.008-.058a.57.57 0 0 1 0 .117c-.004.032-.008.005-.008-.059zM5.58 20.8c.013-.005.028-.005.034.001.006.006-.005.01-.024.01-.02-.001-.025-.006-.01-.011zm22.985-.74c0-.073.003-.104.007-.067a.779.779 0 0 1 0 .134c-.004.037-.007.007-.007-.067zm-21.04-1.88a.141.141 0 0 1 .04-.035c.006 0-.005.016-.023.035a.141.141 0 0 1-.041.036c-.005 0 .006-.016.023-.036zm-2.57-.89c-.023-.028-.022-.029.006-.007.017.014.031.028.031.032 0 .015-.014.005-.038-.025zm4.52-1.06a.141.141 0 0 1 .041-.036c.005 0-.005.016-.023.036a.141.141 0 0 1-.041.036c-.005 0 .005-.016.023-.036zm-2.246-.901c0-.004.014-.018.032-.032.028-.022.029-.021.006.007-.023.03-.038.04-.038.025zm.823-3.26c.064-.063.12-.116.125-.116a.917.917 0 0 1-.107.117 1.157 1.157 0 0 1-.124.116.917.917 0 0 1 .106-.116zm12.034-.876c0-.512.002-.719.005-.46.002.26.002.678 0 .93-.003.254-.005.042-.005-.47zm8.48.447c0-.118.003-.164.006-.102.004.062.004.158 0 .215-.003.056-.006.005-.006-.113zm-19.817-.264c.075-.079.09-.093.09-.08a.885.885 0 0 1-.084.085l-.085.08zm13.125-1.346c0-.148.003-.206.006-.13a4.05 4.05 0 0 1 0 .27c-.003.07-.006.007-.006-.14zm-7.375-6.666c0-.044.004-.062.008-.04a.255.255 0 0 1 0 .08c-.004.023-.008.004-.008-.04zM.95 3.251c0-.003.026-.03.058-.058l.058-.053-.053.059c-.049.054-.064.066-.064.052z"/><path d="M24.105 22.465c0-.021.005-.025.01-.011.006.013.005.028 0 .034-.007.006-.01-.005-.01-.023zm4.44-.07c0-.03.004-.04.009-.022a.102.102 0 0 1-.001.053c-.005.012-.009-.002-.008-.031zm-2.221-.02c0-.02.005-.025.01-.01.006.012.005.028 0 .034-.007.006-.011-.005-.01-.024zm-4.45-1.913c0-.177.003-.247.006-.156a5.76 5.76 0 0 1 0 .322c-.003.086-.006.011-.006-.166zm-1.788-4.34c0-2.209.002-3.113.005-2.008.002 1.105.002 2.913 0 4.017-.003 1.105-.005.201-.005-2.008zm8.48 3.58c0-.133.003-.188.006-.121.004.066.004.175 0 .241-.003.067-.006.012-.006-.12zm-20.97-1.593a.141.141 0 0 1 .041-.036c.005 0-.005.016-.023.036a.141.141 0 0 1-.041.036c-.005 0 .005-.016.023-.036zm-1.898-.076-.035-.04.04.034a.181.181 0 0 1 .041.04c0 .014-.014.004-.046-.034zm-.69-.69c-.022-.027-.022-.028.007-.006a.135.135 0 0 1 .031.031c0 .015-.015.006-.038-.024zm4.369-1.015a.39.39 0 0 1 .07-.062c.004 0-.02.028-.053.062a.39.39 0 0 1-.07.063.31.31 0 0 1 .053-.063zM4.46 16.32c0-.034.003-.048.008-.03a.147.147 0 0 1 0 .062c-.005.017-.008.003-.008-.032zm2.859-1.082a.212.212 0 0 1 .05-.045c.006 0-.01.02-.032.045a.212.212 0 0 1-.051.045c-.005 0 .01-.02.033-.045zm1.588-1.148a.07.07 0 0 1 .045 0c.012.005.002.009-.023.009-.024 0-.034-.004-.022-.01zm19.66-1.832c0-.23.002-.325.005-.21.004.116.004.305 0 .42-.003.116-.005.022-.005-.21zm-20.148-.554c.138-.138.254-.25.26-.25.004 0-.104.112-.242.25-.137.138-.254.25-.259.25a5.09 5.09 0 0 1 .241-.25zm13.456-.913c0-.28.002-.395.005-.255s.003.37 0 .51-.005.026-.005-.255zM4.458 10.72c0-.025.005-.035.01-.023a.07.07 0 0 1 0 .045c-.005.012-.01.002-.01-.022zm1.982-.694c-.023-.028-.022-.029.006-.007.03.024.04.039.025.039-.004 0-.018-.015-.031-.032zm.673-.165a.141.141 0 0 1 .041-.036c.005 0-.005.016-.023.036a.141.141 0 0 1-.042.035c-.004 0 .006-.016.024-.035zm-1.57-.245c.014-.005.03-.005.035.001.006.006-.004.01-.023.01-.021-.001-.025-.005-.011-.011zm5.745-2.917c.013-.005.028-.004.034.001.006.006-.004.01-.023.01-.021-.001-.025-.005-.011-.01zM6.61 5.793l-.053-.058.058.053a.447.447 0 0 1 .059.058c0 .014-.015.001-.064-.053zm10.458-1.35c-.023-.03-.022-.03.006-.008.03.024.04.039.025.039-.004 0-.018-.015-.031-.032zm-8.947-.305c-.023-.028-.022-.029.006-.007.018.014.032.028.032.032 0 .014-.015.005-.038-.025zm-.316-.783c0-.04.004-.053.009-.031a.196.196 0 0 1 0 .072c-.005.017-.009-.001-.009-.04zM5.48 2.242a.147.147 0 0 1 .063 0c.017.005.003.009-.032.009-.034 0-.048-.004-.03-.009z"/><path d="M26.108 28.177c0-.004.014-.018.03-.032.03-.022.03-.021.008.007-.024.03-.038.04-.038.025zm2.438-5.899c0-.044.004-.062.008-.04a.255.255 0 0 1 0 .08c-.004.023-.008.005-.008-.04zM2.228 15.21c0-3.499.002-4.93.004-3.18.003 1.749.003 4.611 0 6.36-.002 1.75-.004.319-.004-3.18zm19.645 4.769c0-.099.003-.137.007-.085a1.8 1.8 0 0 1 0 .18c-.004.046-.007.003-.007-.095zm6.692-.635c0-.074.003-.104.007-.068a.779.779 0 0 1 0 .135c-.004.037-.007.006-.007-.067zM7.641 18.067c0-.003.026-.029.058-.058l.058-.052-.052.058c-.05.054-.064.066-.064.052Zm-2.05-.142-.07-.076.075.071a.797.797 0 0 1 .076.076c0 .014-.015 0-.08-.07zm-.492-.492-.062-.067.067.062a.609.609 0 0 1 .067.067c0 .014-.015 0-.072-.062zm4.152-.98a.39.39 0 0 1 .07-.062c.005 0-.018.028-.052.063a.39.39 0 0 1-.07.062.266.266 0 0 1 .052-.062zm-2.593-.55a2.94 2.94 0 0 0 .043-.031c.033-.025.034-.024.012.005-.014.017-.033.03-.044.03-.01 0-.015-.001-.01-.004zm.75-.756a.212.212 0 0 1 .051-.044c.005 0-.01.02-.033.044a.212.212 0 0 1-.05.045c-.006 0 .01-.02.032-.045zm.707-.706a.141.141 0 0 1 .041-.036c.005 0-.005.016-.023.036a.141.141 0 0 1-.041.035c-.005 0 .005-.016.023-.035zm20.451-1.521c0-.143.003-.202.006-.13.004.071.004.188 0 .26-.003.07-.006.012-.006-.13zm-6.692-1.378c0-.143.003-.201.006-.13.003.071.003.188 0 .26-.003.07-.006.012-.006-.13zm-17.063.004c-.022-.028-.021-.029.007-.007.017.014.031.028.031.032 0 .014-.014.005-.038-.025zM7.193 9.78a.212.212 0 0 1 .051-.045c.005 0-.01.02-.033.045a.212.212 0 0 1-.05.045c-.006 0 .01-.02.032-.045zm4.041-3.08c.013-.006.029-.005.034 0 .006.006-.004.01-.023.01-.02-.001-.025-.005-.01-.01zM3.325 2.241c.013-.005.028-.004.034.002.006.006-.004.01-.023.01-.021-.002-.025-.006-.011-.012zm2.048 0a.147.147 0 0 1 .062 0c.018.005.003.008-.031.008s-.049-.003-.031-.008z"/><path d="M2.863 28.614a2.835 2.835 0 0 0-.268-.078c-.867-.224-1.49-.641-1.954-1.31-.186-.267-.315-.548-.488-1.063L0 25.71V15.43C0 7.824.005 5.141.02 5.113c.011-.02.047-.139.079-.262.268-1.037.874-1.813 1.753-2.247a3.81 3.81 0 0 1 1.136-.334c.11-.016.513-.024 1.418-.026 1.256-.004 1.266-.004 1.327-.042.05-.03.086-.087.189-.295.34-.686.79-1.162 1.415-1.492.247-.13.452-.206.856-.317L8.552 0h3.034l.17.045c1.015.27 1.677.709 2.163 1.431.27.403.44.821.534 1.324.043.229.05.747.016.999-.198 1.412-1.25 2.548-2.621 2.832-.309.064-.62.079-1.63.079-.925 0-1.324-.014-1.76-.063-.709-.08-1.3-.345-1.774-.798a3.39 3.39 0 0 1-.737-1.009 2.266 2.266 0 0 0-.156-.274c-.086-.095-.045-.092-1.326-.092-1.354 0-1.356 0-1.629.133-.304.149-.49.392-.575.752-.032.14-.033.427-.032 10.102l.002 9.958.037.136c.106.386.357.655.725.78l.147.05 6.845.005c7.637.005 6.978.016 7.265-.124a1.12 1.12 0 0 0 .566-.686c.032-.104.033-.485.038-10.089.004-8.777.001-9.996-.022-10.11a1.27 1.27 0 0 0-.264-.524 2.425 2.425 0 0 0-.264-.231c-.23-.174-.359-.317-.447-.497a1.032 1.032 0 0 1-.064-.82c.198-.584.785-.89 1.37-.71a1.8 1.8 0 0 1 .539.294c.831.618 1.275 1.389 1.357 2.361.014.165.018 3.115.015 10.34l-.006 10.111-.04.206c-.26 1.294-1.208 2.283-2.515 2.62-.132.035-.261.07-.288.081-.061.023-14.322.025-14.362.002zm8.56-24.176c.41-.105.73-.425.825-.823a1.125 1.125 0 0 0-.853-1.35c-.115-.026-.284-.03-1.41-.024l-1.28.005-.13.048c-.354.129-.603.38-.713.72-.085.263-.06.607.065.852.104.202.312.4.53.503.212.1.23.102 1.583.103 1.184.001 1.252 0 1.383-.034zm13.447 24.14c-.28-.118-.5-.306-.842-.716-1.258-1.505-1.898-2.954-2.1-4.76-.039-.338-.058-2.85-.058-7.355 0-4.53.018-6.538.057-6.734a3.29 3.29 0 0 1 .878-1.708 3.34 3.34 0 0 1 4.737-.097c.56.534.916 1.254.997 2.025.028.26.044 8.457.022 11.184-.02 2.441-.024 2.575-.11 3.143-.25 1.657-.982 3.138-2.214 4.484-.246.269-.302.313-.588.469l-.218.118h-.22c-.203-.001-.232-.006-.341-.052zm.47-3.003a6.36 6.36 0 0 0 .873-2.179c.124-.617.117-.356.123-4.46l.005-3.708h-2.239l.006 3.753c.006 3.378.01 3.775.036 3.97.116.842.348 1.548.753 2.284.138.252.3.497.33.497a.99.99 0 0 0 .114-.157zm.996-14.378-.005-1.758-.042-.125a1.207 1.207 0 0 0-.297-.501 1.052 1.052 0 0 0-.778-.313c-.306 0-.558.105-.77.32a1.123 1.123 0 0 0-.29.476l-.042.125-.005 1.744c-.002.96 0 1.754.004 1.767.007.019.227.023 1.12.023h1.11zM6.486 24.131c-.296-.066-.438-.17-1.035-.76a20.838 20.838 0 0 1-.638-.652c-.251-.286-.353-.555-.335-.886a.949.949 0 0 1 .159-.504c.139-.215.356-.389.585-.468.1-.035.155-.041.343-.04.196 0 .24.006.355.047.254.092.464.253.63.485l.1.137c.004.004.36-.343.79-.772.85-.846.894-.882 1.18-.976a1.17 1.17 0 0 1 .65-.006c.332.115.61.394.716.718.064.194.061.468-.007.672-.094.286-.132.329-1.36 1.56a47.763 47.763 0 0 1-1.238 1.215c-.276.212-.6.295-.894.23zm5.671-2.23a1.03 1.03 0 0 1-.4-.125 1.068 1.068 0 0 1-.585-.911c-.03-.542.293-.987.826-1.14.096-.028.237-.032 1.297-.037.811-.004 1.238 0 1.341.014.509.067.88.42.963.915.107.636-.326 1.202-.982 1.285-.174.022-2.293.021-2.46 0zm-5.609-3.345a1.258 1.258 0 0 1-.464-.188c-.148-.098-1.269-1.211-1.388-1.378a1.08 1.08 0 0 1-.222-.67c0-.192.025-.304.11-.481a.907.907 0 0 1 .209-.288 1.03 1.03 0 0 1 .704-.334c.385-.028.746.15 1.027.509.078.099.146.178.15.176.006-.002.296-.296.645-.654.35-.358.714-.721.811-.808.276-.246.497-.34.805-.34.603 0 1.062.45 1.098 1.074a.956.956 0 0 1-.115.544c-.058.11-.153.216-.705.78a76.98 76.98 0 0 1-1.67 1.666c-.227.216-.372.31-.564.363-.13.036-.308.048-.431.029zm5.608-1.127a1.093 1.093 0 0 1-.499-.182 1.083 1.083 0 0 1-.456-.652c-.15-.585.19-1.163.788-1.344.087-.026.244-.03 1.306-.037 1.308-.007 1.399-.002 1.623.085.556.215.834.835.632 1.41-.092.262-.29.481-.545.603a1.75 1.75 0 0 1-.251.1c-.104.026-2.382.04-2.598.017zm-5.655-4.473a1.562 1.562 0 0 1-.395-.164c-.107-.064-.96-.89-1.265-1.226-.186-.205-.296-.395-.342-.59a1.239 1.239 0 0 1 .034-.619c.09-.236.248-.43.459-.567a.937.937 0 0 1 .52-.158.996.996 0 0 1 .572.123c.134.065.179.1.383.306l.23.233.734-.746c.403-.41.783-.781.845-.825a1.099 1.099 0 0 1 1-.163c.671.213.975 1.06.592 1.65-.044.069-.497.535-1.286 1.323-1.304 1.303-1.306 1.306-1.567 1.389a1.35 1.35 0 0 1-.514.034zm5.658 0a1.109 1.109 0 0 1-.161-2.178c.096-.028.235-.032 1.297-.037.81-.004 1.239 0 1.342.014.507.067.879.42.962.915.08.473-.149.941-.566 1.158-.262.137-.223.133-1.559.138a36.125 36.125 0 0 1-1.315-.01z"/></g></svg>