<svg xmlns="http://www.w3.org/2000/svg" width="108" height="101.892" viewBox="0 0 28.575 26.959"><g fill="#fff"><path d="M20.756 25.867c0-.03.004-.04.009-.022a.102.102 0 0 1 0 .054c-.006.012-.01-.002-.01-.032zM7.898 22.505a2.82 2.82 0 0 1 .241 0c.067.004.012.007-.12.007-.133 0-.187-.003-.12-.007zm12.627 0c.046-.003.123-.003.17 0 .046.004.008.007-.085.007-.094 0-.132-.003-.085-.007zm5.925-1.797c0-.004.014-.018.03-.031.03-.022.03-.022.008.006-.024.03-.038.04-.038.025zm-16.471-.435a70.74 70.74 0 0 1 1.08 0c.297.002.054.005-.54.005-.594 0-.837-.003-.54-.005zm7.581 0c.292-.003.77-.003 1.063 0 .292.002.053.005-.532.005-.584 0-.823-.003-.53-.005zm.692-2.71a.211.211 0 0 1 .051-.045c.005 0-.01.02-.033.045a.211.211 0 0 1-.05.044c-.006 0 .01-.02.032-.044zm-1.906-.84c0-.049.004-.067.008-.04a.319.319 0 0 1 0 .09c-.004.022-.008 0-.008-.05zm2.23-.366c0-.024.004-.035.01-.022a.069.069 0 0 1 0 .044c-.006.013-.01.003-.01-.022zm3.574-4.93c0-.033.003-.047.008-.03a.147.147 0 0 1 0 .062c-.005.017-.008.003-.008-.031zm-15.32-.784a.141.141 0 0 1 .041-.036c.005 0-.005.016-.023.036a.141.141 0 0 1-.041.036c-.005 0 .005-.016.023-.036zm19.496-4c0-.025.004-.035.01-.023a.069.069 0 0 1 0 .045c-.006.012-.01.002-.01-.022zm-16.245-.447a.141.141 0 0 1 .04-.036c.006 0-.005.017-.023.036a.141.141 0 0 1-.04.036c-.006 0 .005-.016.023-.036zm3.988-1.244c.013-.005.028-.005.034.001.006.006-.005.01-.023.01-.021-.001-.026-.006-.011-.011zm.625 0c.013-.005.028-.005.034.001.006.006-.005.01-.023.01-.021-.001-.025-.006-.011-.011zM6.639 2.236a.069.069 0 0 1 .045 0c.012.005.002.01-.023.01-.024 0-.034-.005-.022-.01zm15.252 0a.069.069 0 0 1 .045 0c.012.005.002.01-.023.01-.024 0-.034-.005-.022-.01zM6.684.003a1.08 1.08 0 0 1 .161 0c.042.004.003.007-.085.007-.089 0-.123-.004-.076-.007zm15.091 0a1.08 1.08 0 0 1 .161 0c.042.004.003.007-.085.007-.089 0-.123-.004-.076-.007zM8.47 22.505a11.1 11.1 0 0 1 .447 0c.12.003.017.006-.228.006-.246 0-.344-.003-.218-.006zm11.43 0c.107-.003.276-.003.376 0 .1.003.013.006-.193.006-.207 0-.289-.003-.182-.006zM7.408 20.273c.376-.003.99-.003 1.366 0 .376.002.069.005-.683.005-.751 0-1.059-.003-.683-.005zm12.402 0c.37-.003.98-.003 1.357 0 .377.002.074.005-.673.005-.746 0-1.054-.003-.684-.005zm-9.646-3.39c.001-.021.005-.026.011-.011.005.013.005.028-.001.034-.006.006-.01-.005-.01-.024zm.004-.142c0-.049.004-.067.008-.04a.318.318 0 0 1 0 .09c-.005.021-.008 0-.008-.05zm-7.933-.752c0-.02.005-.025.01-.01.006.013.005.028 0 .034-.007.006-.011-.005-.01-.024zm18.371-5.68a.069.069 0 0 1 .045 0c.012.005.002.009-.023.009-.024 0-.034-.004-.022-.01zm5.72-3.731c.002-.021.006-.025.012-.011.005.013.004.028-.002.034-.006.006-.01-.004-.01-.023zM14.132 4.95a.102.102 0 0 1 .054 0c.012.005-.002.009-.032.008-.029 0-.039-.004-.022-.008zm.483 0a.102.102 0 0 1 .053 0c.012.005-.002.009-.031.008-.03 0-.04-.004-.022-.008zm7.348-2.715a.069.069 0 0 1 .045 0c.012.005.002.01-.022.01-.025 0-.035-.005-.023-.01zM7.086.003c.1-.004.265-.004.366 0 .1.003.018.005-.183.005-.202 0-.284-.002-.183-.005zm13.939 0c.125-.004.33-.004.455 0 .125.003.023.005-.228.005-.25 0-.352-.002-.227-.005zM9.238 22.505a2.82 2.82 0 0 1 .24 0c.067.004.013.007-.12.007-.132 0-.187-.003-.12-.007zm10.126 0a2.82 2.82 0 0 1 .241 0c.066.004.012.007-.12.007-.133 0-.187-.003-.121-.007zM1.954 20.55l-.088-.094.094.088c.087.083.102.1.089.1-.003 0-.045-.043-.094-.094zm24.656 0c.074-.08.09-.093.09-.08 0 .003-.039.041-.085.085l-.085.08zm-19.944-.276a.102.102 0 0 1 .054 0c.012.005-.002.009-.032.009s-.04-.005-.022-.01zm15.199 0a.102.102 0 0 1 .053 0c.012.005-.002.009-.032.009-.029 0-.039-.005-.021-.01zm-9.819-2.702a.141.141 0 0 1 .041-.036c.005 0-.005.016-.023.036a.141.141 0 0 1-.041.035c-.005 0 .005-.016.023-.035zm7.438-2.043c0-.004.014-.018.032-.031.028-.023.029-.022.006.006-.023.03-.038.04-.038.025zm.108-.107c0-.004.014-.018.03-.032.03-.022.03-.021.008.007-.024.03-.038.04-.038.025zm-2.361-3.22c.013-.006.028-.005.034.001.006.006-.005.01-.023.01-.021-.002-.025-.006-.011-.011zm4.59-1.573c-.022-.029-.02-.03.007-.007a.111.111 0 0 1 .032.031c0 .015-.015.005-.038-.024zM11.654 7.785a.141.141 0 0 1 .041-.036c.005 0-.005.016-.023.036a.141.141 0 0 1-.041.035c-.005 0 .005-.016.023-.035zM14.22 4.95a.147.147 0 0 1 .063 0c.017.004.003.008-.031.008-.035 0-.049-.004-.032-.008zm.313 0a.069.069 0 0 1 .045 0c.012.005.002.01-.023.01-.024 0-.034-.005-.022-.01zM7.711.003c.051-.004.136-.004.187 0 .052.003.01.006-.094.006-.103 0-.145-.003-.093-.006zm12.742 0c.067-.004.175-.004.241 0 .067.003.012.006-.12.006-.133 0-.187-.003-.12-.006z"/><path d="M9.703 22.505a2.99 2.99 0 0 1 .232 0c.06.004.006.007-.121.007-.128 0-.178-.003-.111-.007zm9.178 0c.066-.003.178-.003.25 0 .072.004.018.006-.12.007-.137 0-.196-.003-.13-.007zM6.605 20.274c.012-.005.028-.005.034.001.006.006-.005.01-.024.01-.02-.001-.025-.005-.01-.011zm15.34 0c.014-.005.029-.005.035.001.006.006-.005.01-.024.01-.02-.001-.025-.005-.01-.011zm-2.407-4.799c0-.003.014-.018.031-.031.029-.022.03-.022.007.007-.023.03-.038.039-.038.024zM14.354 4.95a.568.568 0 0 1 .116 0c.032.004.006.007-.058.007-.063 0-.09-.003-.058-.007zM8.077.003a1.8 1.8 0 0 1 .197 0c.051.003.005.006-.103.006S8.02.006 8.077.003zm11.912 0c.066-.004.175-.004.241 0 .066.003.012.006-.12.006-.133 0-.187-.003-.121-.006zm-9.545 22.502c.23-.003.6-.003.822 0 .223.003.035.005-.417.005-.451 0-.634-.002-.405-.005zm7.464 0c.16-.003.421-.003.58 0 .16.003.03.006-.29.006-.319 0-.45-.003-.29-.006zm4.323-.017c.013-.005.029-.004.035.002.006.006-.005.01-.024.01-.02-.002-.025-.006-.01-.012zm-15.68-2.214c.013-.005.028-.005.034.001.006.006-.004.01-.023.01-.021-.001-.025-.005-.011-.011zm15.448 0c.013-.005.029-.005.034.001.006.006-.004.01-.023.01-.02-.001-.025-.005-.01-.011zm-11.544-2.725-.034-.04.04.034c.038.032.048.046.034.046a.198.198 0 0 1-.04-.04zm-2.779-7.24c.013-.006.028-.005.034 0 .006.007-.004.011-.023.01-.02 0-.025-.005-.01-.01zm6.608-3.126c.013-.005.028-.004.034.002.006.005-.004.01-.023.009-.021-.001-.025-.005-.011-.01zm12.378-5.162-.043-.05.05.044a.31.31 0 0 1 .048.049c0 .014-.014.002-.055-.043zM1.956 1.963a.751.751 0 0 1 .096-.09c.005 0-.03.04-.079.09a.751.751 0 0 1-.096.089c-.005 0 .03-.04.079-.09zm24.581-.067-.043-.05.05.044a.31.31 0 0 1 .048.049c0 .014-.014.002-.055-.043zM8.596.003c.135-.004.352-.003.482 0s.019.005-.247.005c-.265 0-.37-.002-.235-.005zm10.607 0c.125-.004.33-.004.456 0 .125.003.022.005-.228.005s-.353-.002-.228-.005zm1.227 25.056-.044-.05.05.044c.045.04.057.055.043.055a.31.31 0 0 1-.05-.049zm-.86-.32c.013-.005.029-.005.035.001.006.006-.005.01-.024.01-.02-.001-.025-.006-.01-.011zm-7.617-2.234c.166-.003.43-.003.59 0 .159.003.024.006-.3.006-.325 0-.455-.003-.29-.006zm5.046 0c.12-.003.313-.003.428 0 .115.003.016.006-.22.006-.235 0-.33-.003-.208-.006zM9.142 15.47c-.023-.029-.022-.03.006-.007.018.013.032.027.032.031 0 .015-.015.005-.038-.024zm8.887-1.362a.141.141 0 0 1 .041-.036c.005 0-.005.016-.023.036a.141.141 0 0 1-.041.036c-.005 0 .005-.017.023-.036zm-1.599-1.56c0-.004.015-.018.032-.032.028-.022.029-.022.006.007-.023.03-.038.039-.038.024zM6.838 12.2c-.022-.028-.022-.029.007-.006.03.023.039.038.024.038-.004 0-.018-.014-.031-.032zm4.579.001a.102.102 0 0 1 .053.001c.013.005-.002.009-.031.008-.03 0-.04-.004-.022-.009zm2.813-5.018c.013-.005.029-.004.035.002.006.005-.005.01-.024.009-.02-.001-.025-.005-.01-.01zm.143 0a.474.474 0 0 1 .107 0c.027.004 0 .007-.059.007s-.08-.004-.048-.008zM3.5 3.562c0-.004.014-.018.032-.031.028-.022.029-.022.006.007-.023.03-.038.039-.038.024zM9.435.003c.077-.004.197-.004.268 0 .07.003.008.006-.14.006-.147 0-.205-.003-.128-.006zm9.197 0c.066-.004.174-.004.24 0 .067.003.013.006-.12.006-.132 0-.187-.003-.12-.006z"/><path d="M8.827 26.946a1.47 1.47 0 0 1-.478-.152 1.29 1.29 0 0 1-.216-.176 1.027 1.027 0 0 1-.305-.812c.022-.318.113-.531.316-.734.147-.149.273-.224.482-.288l.134-.042 5.33-.005c3.58-.004 5.407 0 5.56.013.354.029.565.11.761.294.202.19.318.448.336.753.033.53-.29.966-.829 1.12l-.139.04-5.411.002c-2.976.001-5.47-.005-5.54-.013zm.647-4.446a278.49 278.49 0 0 1-3.41-.023 6.725 6.725 0 0 0-.287-.04 6.611 6.611 0 0 1-2.982-1.183 7.4 7.4 0 0 1-1.305-1.236 6.673 6.673 0 0 1-1.14-2.102c-.104-.32-.15-.508-.26-1.055L0 16.409v-5.157c0-4.437.004-5.17.026-5.246a2.02 2.02 0 0 0 .045-.24c.033-.25.124-.67.207-.955a6.576 6.576 0 0 1 1.624-2.775A6.62 6.62 0 0 1 5.474.122c.512-.091.478-.09 2.76-.106 2.706-.018 8.971-.018 11.974 0 2.188.013 2.297.015 2.556.05 1.47.206 2.743.826 3.781 1.842a6.602 6.602 0 0 1 1.624 2.52c.12.328.213.686.315 1.206l.091.463-.005 5.18c-.004 4.779-.007 5.189-.034 5.312a7.53 7.53 0 0 0-.068.37c-.268 1.686-1.285 3.301-2.715 4.312a6.484 6.484 0 0 1-3.599 1.22c-.415.015-9.094.022-12.68.009ZM22.2 20.268c1.416-.12 2.63-.824 3.39-1.964.356-.534.607-1.19.711-1.867.032-.205.033-.428.033-5.16 0-5.259.003-5.07-.083-5.474a5.122 5.122 0 0 0-.394-1.135 4.534 4.534 0 0 0-1.532-1.71 5.578 5.578 0 0 0-.9-.45 4.843 4.843 0 0 0-1.201-.26c-.163-.014-2.49-.018-8.087-.013l-7.858.006-.227.038c-.998.169-1.812.572-2.487 1.233-.713.7-1.147 1.58-1.3 2.639-.018.128-.023 1.148-.023 5.116 0 5.57-.011 5.078.135 5.654.088.348.167.561.33.892.236.479.502.842.89 1.217a4.473 4.473 0 0 0 2.744 1.236c.249.022 15.606.024 15.859.002zm-11.17-2.42a1.033 1.033 0 0 1-.578-.32c-.187-.2-.271-.427-.272-.733 0-.204-.032-.381-.09-.494-.055-.108-.228-.283-.389-.393-.899-.613-1.405-1.408-1.556-2.443a6.58 6.58 0 0 1-.047-.584l-.012-.341-.306-.01c-.342-.01-.445-.03-.653-.132a1.127 1.127 0 0 1-.47-.47c-.265-.54-.061-1.203.45-1.47.18-.095.286-.119.637-.145.422-.032.469-.053.568-.251.024-.05.226-.592.448-1.206.515-1.42.513-1.415.64-1.668.458-.919 1.157-1.525 2.132-1.85.416-.137 1.084-.26 1.81-.331.4-.04 1.338-.055 1.723-.028.716.05 1.433.166 1.954.317.858.248 1.518.724 1.99 1.435.25.378.414.776 1.167 2.838.226.621.232.635.3.698.047.043.053.044.372.048.26.003.353.01.464.04.506.132.834.55.834 1.064 0 .416-.217.788-.564.969-.209.108-.313.13-.644.142l-.29.01-.01.064-.055.45c-.024.21-.057.454-.072.54a3.56 3.56 0 0 1-.61 1.465c-.215.303-.681.727-1.025.932-.29.173-.29.172-.294.59-.004.258-.011.348-.041.46-.13.491-.505.8-1.011.828-.66.039-1.17-.46-1.17-1.145v-.153h-3.958l-.02.22c-.032.359-.141.6-.364.806-.244.226-.645.328-.989.251zm.678-3.447c.302-.076.6-.314.73-.58a.993.993 0 0 0 .114-.553 1.04 1.04 0 0 0-.175-.564 1.13 1.13 0 0 0-1.563-.309 1.009 1.009 0 0 0-.367.417c-.18.363-.159.779.056 1.11.146.223.402.408.66.478.13.034.411.035.545.001zm5.884-.024c.329-.106.582-.353.711-.694.04-.107.046-.148.047-.362.001-.21-.004-.256-.04-.357a1.154 1.154 0 0 0-.725-.709.866.866 0 0 0-.34-.047.822.822 0 0 0-.34.049 1.1 1.1 0 0 0-.45.277c-.34.342-.42.843-.21 1.284.052.106.1.17.211.28.163.162.297.241.497.295.172.047.469.04.64-.016zm.465-4.085c0-.04-.089-.294-.286-.82a68.968 68.968 0 0 1-.326-.885c-.157-.441-.265-.628-.484-.833-.246-.23-.533-.352-1.02-.434a9.597 9.597 0 0 0-3.439.047c-.471.094-.805.305-1.026.647-.105.162-.102.155-.465 1.155-.295.809-.384 1.068-.384 1.111 0 .018.755.023 3.715.023 2.043 0 3.715-.005 3.715-.01z"/></g></svg>