<svg xmlns="http://www.w3.org/2000/svg" width="108" height="107.797" viewBox="0 0 28.575 28.521"><g fill="#fff"><path d="M12.337 22.06c.14-.003.37-.003.51 0s.025.006-.255.006-.395-.003-.255-.006zm3.306 0c.14-.003.365-.003.5 0 .134.003.02.006-.256.006-.275 0-.385-.003-.244-.006zm-9.294-7.006a.141.141 0 0 1 .042-.035c.005 0-.006.016-.024.035a.141.141 0 0 1-.04.036c-.006 0 .005-.016.022-.036zm6.8-.794c0-.03.004-.04.009-.022a.102.102 0 0 1 0 .053c-.006.012-.01-.002-.009-.031zm-6.468-.002c.001-.02.005-.025.011-.01.005.012.005.028-.001.034-.006.006-.01-.005-.01-.024zm-1.09-8.407c0-.004.026-.03.057-.058l.059-.053-.053.058c-.049.054-.064.066-.064.053zm.142-.143c0-.003.026-.03.058-.058l.058-.053-.052.058c-.049.054-.064.066-.064.053zm9.313-1.142-.034-.04.04.034c.038.032.048.046.034.046a.198.198 0 0 1-.04-.04zm9.42-.366c-.021-.029-.02-.03.008-.007.03.023.039.038.024.038-.004 0-.018-.014-.031-.031zM14.249 2.236a.069.069 0 0 1 .045 0c.012.005.002.01-.022.01-.025 0-.035-.005-.023-.01z"/><path d="M14.785 26.277c.013-.006.029-.005.035.001.006.006-.005.01-.024.01-.02-.001-.025-.006-.01-.011zM13.67 22.06c.323-.002.845-.002 1.161 0 .316.003.052.005-.586.005-.639 0-.897-.002-.575-.005zm-1.501-2.232a2.82 2.82 0 0 1 .24 0c.067.003.013.006-.12.006-.132 0-.187-.003-.12-.006zm1.785 0c.163-.003.437-.003.607 0 .17.003.036.005-.298.005-.334 0-.473-.002-.31-.005zm2.162 0a2.82 2.82 0 0 1 .241 0c.066.003.012.006-.12.006-.133 0-.187-.003-.121-.006zm-1.705-2.232c.013-.005.029-.004.034.002.006.006-.004.01-.023.01-.02-.002-.025-.006-.01-.012zM4.776 15.05l-.034-.04.04.034c.038.032.049.046.034.046a.198.198 0 0 1-.04-.04zm8.689-.009c-.023-.028-.022-.029.006-.007.018.014.032.028.032.032 0 .014-.015.005-.038-.025zm-11.231-.265c0-.02.005-.025.01-.01.006.012.005.028 0 .034-.007.005-.01-.005-.01-.024zm2.217-.516c0-.03.004-.04.009-.022a.102.102 0 0 1-.001.053c-.005.012-.009-.002-.008-.031zm-2.217-.502c0-.02.005-.025.01-.01.006.012.005.028 0 .033-.007.006-.01-.004-.01-.023zm12.802-5.861c-.022-.029-.021-.03.007-.007a.117.117 0 0 1 .031.031c0 .015-.014.005-.038-.024zm-.786-.32c.012-.006.028-.005.034 0 .006.007-.005.011-.024.01-.02 0-.025-.005-.01-.01zM5.84 5.598c0-.003.015-.017.032-.03.028-.023.029-.022.006.006-.023.03-.038.04-.038.024zm8.39-1.363a.196.196 0 0 1 .072 0c.017.005 0 .008-.04.008s-.053-.004-.031-.008zm10.183-.09c-.022-.028-.021-.029.007-.007.03.024.04.038.025.038-.004 0-.018-.014-.032-.031zm-.303-.304c-.023-.028-.022-.029.006-.006.03.023.04.038.025.038-.004 0-.018-.014-.031-.032zM14.088 2.235a.474.474 0 0 1 .107 0c.027.005 0 .008-.058.008-.06 0-.081-.004-.049-.008zm.259 0a.395.395 0 0 1 .098 0c.027.005.005.008-.05.008-.053 0-.075-.003-.048-.008z"/><path d="M22.8 22.806a.751.751 0 0 1 .096-.09c.005 0-.03.04-.079.09a.751.751 0 0 1-.097.09c-.005 0 .03-.04.08-.09zm-11.886-1.814c.001-.021.005-.025.011-.011.005.013.005.028-.001.034-.006.006-.01-.005-.01-.023zm0-.09c.001-.02.005-.025.011-.01.005.012.005.028-.001.034-.006.006-.01-.005-.01-.024zm1.888-1.074c.16-.003.42-.003.58 0 .16.003.03.005-.29.005-.32 0-.45-.002-.29-.005zm2.34 0c.16-.003.42-.003.58 0 .16.003.029.005-.29.005-.32 0-.45-.002-.29-.005zm13.419-6.266c0-.021.005-.025.01-.011.006.013.005.028 0 .034-.007.006-.011-.005-.01-.023zm-14.311-.413c.012-.005.028-.005.034.001.006.006-.005.01-.024.01-.02-.001-.025-.005-.01-.011zm-2.355-1.247a.211.211 0 0 1 .051-.045c.005 0-.01.02-.033.045a.211.211 0 0 1-.05.045c-.006 0 .01-.02.032-.045zm-3.96-2.825a.147.147 0 0 1 .062 0c.017.004.003.008-.031.008s-.049-.004-.031-.008zm12.61 0a.102.102 0 0 1 .053 0c.012.005-.002.009-.031.008-.03 0-.04-.004-.022-.008zM6.843 7.964c0-.025.005-.035.01-.023a.069.069 0 0 1 0 .045c-.005.012-.01.002-.01-.022zm17.42-3.97-.124-.13.13.125c.12.116.137.135.124.135a2.45 2.45 0 0 1-.13-.13zM13.98 2.236a.069.069 0 0 1 .045 0c.012.005.002.01-.022.01-.025 0-.035-.005-.023-.01zm.518 0a.069.069 0 0 1 .045 0c.012.005.002.01-.022.01-.025 0-.035-.005-.023-.01z"/><path d="M22.665 22.942c0-.004.014-.018.032-.031.028-.022.028-.022.006.007-.023.03-.038.039-.038.024zm.232-.232c0-.004.015-.018.032-.031.028-.023.029-.022.006.006-.023.03-.038.04-.038.025zm-8.737-5.114c.013-.005.029-.004.034.002.006.006-.004.01-.023.01-.02-.002-.025-.006-.01-.012zm.16 0a.069.069 0 0 1 .044 0c.013.006.003.01-.022.01-.024 0-.034-.004-.022-.01zm9.4-2.53c0-.004.013-.018.03-.032.029-.022.03-.021.007.007-.023.03-.038.04-.038.025zm-1.564-1.583a.141.141 0 0 1 .041-.036c.005 0-.005.016-.023.036a.141.141 0 0 1-.041.035c-.005 0 .005-.016.023-.035zM5.55 13.149a.069.069 0 0 1 .045 0c.012.005.002.01-.022.01-.025 0-.035-.005-.023-.01zm17.398 0c.013-.005.028-.005.034.001.006.006-.005.01-.024.01-.02-.001-.025-.005-.01-.011zm-6.321-1.234-.043-.049.049.044a.31.31 0 0 1 .049.049c0 .014-.015.002-.055-.044zm-2.699-9.679c.013-.005.028-.004.034.001.006.006-.004.01-.023.01-.021-.001-.025-.005-.011-.01zm.643 0c.013-.005.028-.004.034.001.006.006-.004.01-.023.01-.021-.001-.025-.005-.011-.01zM14.553.003c.013-.005.028-.004.034.002.006.006-.004.01-.023.01-.02-.002-.025-.006-.01-.012z"/><path d="M22.612 22.996c0-.004.014-.018.03-.032.03-.022.03-.021.008.007-.024.03-.038.04-.038.025zm-16.907-.194-.034-.04.04.033c.038.032.048.047.034.047a.198.198 0 0 1-.04-.04zm17.246-.146a.12.12 0 0 1 .031-.03c.029-.023.03-.022.007.006-.023.03-.038.04-.038.024zm-5.357-1.664c.001-.021.005-.025.011-.011.005.013.005.028-.001.034-.006.006-.01-.005-.01-.023zm0-.09c.001-.02.005-.025.011-.01.005.012.005.028-.001.034-.006.006-.01-.005-.01-.024zm-3.372-3.306a.147.147 0 0 1 .062 0c.017.005.003.008-.031.008-.035 0-.049-.003-.031-.008zm14.34-3.113c0-.025.004-.035.01-.022a.069.069 0 0 1 0 .044c-.006.012-.01.002-.01-.022zm-2.264-.223c0-.118.003-.164.006-.102a1.91 1.91 0 0 1 0 .214c-.003.056-.006.006-.006-.112zm-15.38.062c0-.034.003-.048.007-.031a.147.147 0 0 1 0 .062c-.004.018-.008.004-.008-.03zm-.002-.116c0-.03.005-.04.01-.022a.102.102 0 0 1-.001.054c-.005.012-.009-.002-.009-.032zm-8.682-.555c0-.02.005-.025.01-.01.006.012.005.027 0 .033-.007.006-.01-.004-.01-.023zm26.327 0c0-.02.005-.025.01-.01.006.012.005.027 0 .033-.007.006-.011-.004-.01-.023zm-15.41-2.874c0-.079.004-.109.008-.067a.892.892 0 0 1 0 .143c-.004.037-.007.002-.007-.076zm8.518-2.813c0-.035.004-.049.008-.032a.147.147 0 0 1 0 .063c-.004.017-.008.003-.008-.031zm-7.814-5.728a.069.069 0 0 1 .045 0c.012.005.002.01-.022.01-.025 0-.035-.005-.023-.01zm.77 0c.012-.005.028-.004.034.002.006.005-.005.01-.024.009-.02 0-.025-.005-.01-.01zM13.605.004a.069.069 0 0 1 .045 0c.012.005.002.009-.022.009-.025 0-.035-.004-.023-.01zm.876 0a.069.069 0 0 1 .044 0c.013.005.002.009-.022.009-.025 0-.035-.004-.022-.01z"/><path d="M14.24 26.294a.102.102 0 0 1 .053.001c.012.005-.002.009-.031.008-.03 0-.04-.004-.022-.009zM4.32 24.58c-.022-.029-.022-.03.007-.007.03.023.039.038.024.038a.135.135 0 0 1-.031-.031zm1.475-1.688-.053-.058.058.052c.054.05.067.064.053.064a.446.446 0 0 1-.058-.058zm-.179-.179-.052-.058.058.053c.054.049.066.063.052.063a.446.446 0 0 1-.058-.058zm20.678-8.211c0-.025.004-.035.009-.023a.069.069 0 0 1 0 .045c-.005.012-.01.002-.01-.022zm2.267-.082c0-.02.005-.025.01-.01.006.012.005.027 0 .033-.007.006-.011-.004-.01-.023zm-2.269-.393c.001-.02.005-.025.011-.01.005.012.005.027-.001.033-.006.006-.01-.004-.01-.023zm2.269-.322c0-.02.005-.025.01-.01.006.013.005.028 0 .034-.007.006-.011-.005-.01-.024zm-13.198-2.811c0-.025.004-.035.01-.022a.069.069 0 0 1 0 .044c-.006.012-.01.002-.01-.022zm-2.213-.313c0-.039.004-.053.008-.03a.196.196 0 0 1 0 .07c-.005.018-.008 0-.008-.04zm-.002-1.83c0-.025.004-.035.01-.023a.069.069 0 0 1 0 .045c-.006.012-.01.002-.01-.022zm0-3.394c0-.025.004-.035.01-.022a.069.069 0 0 1 0 .044c-.006.013-.01.003-.01-.022zm1.53-3.12c.013-.005.028-.004.034.001.006.006-.004.01-.023.01-.02-.001-.025-.005-.01-.01zm-1-2.233c.013-.005.028-.004.034.002.006.006-.004.01-.023.01-.021-.002-.025-.006-.011-.012z"/><path d="M13.325 28.502c-.05-.02-.302-.058-.992-.15-.964-.129-1.378-.207-1.984-.376a14.307 14.307 0 0 1-4.697-2.281C3.09 23.793 1.28 21.083.474 17.939c-.176-.686-.271-1.212-.393-2.174L0 15.127v-1.72l.072-.574c.124-.988.217-1.516.392-2.221.856-3.454 2.864-6.258 5.936-8.29C8.376 1.017 10.45.28 12.775.062c2.152-.204 4.689.136 6.756.905.667.248 1.51.646 2.09.986 1.946 1.144 3.582 2.79 4.857 4.886 2.327 3.827 2.716 8 1.154 12.378-1.147 3.21-3.102 5.634-5.842 7.24-.378.222-1.186.627-1.598.8a17.118 17.118 0 0 1-3.257 1.005c-.397.082-.64.12-1.293.197l-.532.063h-.87c-.52-.001-.889-.009-.915-.02zm1.5-2.221c1.268-.034 2.733-.346 4.008-.852a15.473 15.473 0 0 0 1.573-.766 11.866 11.866 0 0 0 4.487-4.67c1.152-2.162 1.614-4.672 1.325-7.189a12.013 12.013 0 0 0-2.272-5.769 11.94 11.94 0 0 0-2.397-2.408 11.985 11.985 0 0 0-5.724-2.297 10.45 10.45 0 0 0-1.563-.09c-.68 0-.986.018-1.563.09-3.483.437-6.538 2.313-8.461 5.196-1.164 1.745-1.84 3.76-1.987 5.918a19.23 19.23 0 0 0 0 1.646c.24 3.478 1.854 6.56 4.536 8.664 1.798 1.41 3.984 2.272 6.323 2.491.329.031 1.023.059 1.25.05.074-.003.283-.01.466-.014zm-2.903-4.236-.134-.027a1.12 1.12 0 0 1-.749-.578 1.159 1.159 0 0 1 .064-1.097 1.16 1.16 0 0 1 .725-.475c.197-.039 4.653-.04 4.857-.002.373.072.663.289.81.61a.98.98 0 0 1 .098.479c0 .433-.214.78-.594.965-.292.143-.148.136-2.74.134a201.498 201.498 0 0 1-2.337-.01zm1.92-4.474a3.343 3.343 0 0 1-2.554-1.808 3.03 3.03 0 0 1-.352-1.37 2.92 2.92 0 0 1 .094-.942 3.312 3.312 0 0 1 1.785-2.182 1.36 1.36 0 0 0 .252-.147c.087-.096.085-.057.087-1.345.002-1.35-.002-1.303.126-1.572.124-.26.362-.474.625-.56.169-.056.42-.07.598-.032.318.068.588.277.73.566.14.289.135.22.14 1.562.001.658.007 1.225.013 1.26.013.09.078.144.324.265.715.355 1.24.885 1.579 1.594.363.762.413 1.634.14 2.458a3.355 3.355 0 0 1-2.71 2.245 4.64 4.64 0 0 1-.877.008zm.688-2.222c.36-.091.68-.39.796-.743.037-.112.043-.165.042-.355-.001-.194-.007-.24-.047-.344a1.148 1.148 0 0 0-.747-.713 1.111 1.111 0 0 0-.661.014c-.555.194-.873.767-.732 1.318.13.507.556.845 1.073.849.097 0 .216-.01.276-.026zm-9.11.016a1.118 1.118 0 0 1-.95-1.036 1.099 1.099 0 0 1 1.103-1.168c.307 0 .553.104.778.329.165.164.258.331.303.54a1.12 1.12 0 0 1-.778 1.3c-.1.03-.36.05-.455.035zm17.34-.007a1.19 1.19 0 0 1-.654-.385 1.103 1.103 0 0 1 .097-1.516 1 1 0 0 1 .694-.29c.334-.017.611.088.84.316.431.432.432 1.126.002 1.555a.986.986 0 0 1-.447.278c-.149.05-.382.068-.531.042zM7.699 9.043a1.132 1.132 0 0 1-.781-.718 1.281 1.281 0 0 1-.034-.616c.1-.425.43-.738.869-.827a1.1 1.1 0 0 1 1.194.583c.166.337.167.66.001.995a1.15 1.15 0 0 1-.733.584 1.327 1.327 0 0 1-.516-.001zm12.61 0a1.18 1.18 0 0 1-.62-.408.965.965 0 0 1-.186-.368 1.201 1.201 0 0 1-.018-.553c.106-.427.439-.743.878-.832a1.094 1.094 0 0 1 1.244.707c.063.176.078.468.033.643-.131.506-.563.84-1.081.838-.084 0-.196-.013-.25-.028zm-6.283-2.606a1.136 1.136 0 0 1-.745-.58.969.969 0 0 1-.112-.555.821.821 0 0 1 .062-.342c.128-.325.368-.549.72-.668.153-.053.484-.048.66.01.273.089.519.304.643.563.09.187.115.303.113.509a1.104 1.104 0 0 1-.774 1.038c-.151.048-.417.06-.567.025z"/></g></svg>