<svg xmlns="http://www.w3.org/2000/svg" width="42" height="22.932" viewBox="0 0 11.113 6.067"><g fill="#b0b5d3"><path d="M6.412 5.417c0-.002.015-.017.033-.033l.033-.03-.03.033c-.028.03-.036.038-.036.03zm.081-.081c0-.002.015-.017.033-.033l.033-.03-.03.033c-.027.03-.036.038-.036.03zm.081-.081c0-.002.015-.017.033-.033l.033-.03-.03.033c-.027.03-.036.038-.036.03zm.081-.081c0-.002.015-.017.033-.033l.033-.03-.03.033c-.027.03-.036.037-.036.03zm.081-.081c0-.002.015-.017.033-.033l.033-.03-.03.033c-.027.03-.036.037-.036.03zm.082-.082c0-.001.014-.016.033-.032l.032-.03-.03.033c-.027.03-.035.037-.035.03zm.08-.08c0-.002.016-.017.034-.034l.033-.03-.03.034c-.028.03-.036.037-.036.03zm.082-.082.033-.033.033-.03-.03.034c-.028.03-.036.037-.036.03zm.08-.08c0-.003.016-.017.034-.034l.033-.03-.03.033c-.028.031-.036.038-.036.03zm.082-.082c0-.002.015-.016.033-.033l.033-.03-.03.033c-.028.031-.036.038-.036.03zm.081-.081c0-.002.015-.017.033-.033l.033-.03-.03.033c-.028.03-.036.038-.036.03zm.081-.081c0-.002.015-.017.033-.033l.033-.03-.03.033c-.027.03-.036.038-.036.03zm.081-.081c0-.002.015-.017.033-.033l.033-.03-.03.033c-.027.03-.036.038-.036.03zm.081-.081c0-.002.015-.017.033-.033l.033-.03-.03.033c-.027.03-.036.038-.036.03zm.081-.081c0-.002.015-.017.033-.033l.033-.03-.03.033c-.027.03-.036.037-.036.03zM7.63 4.2c0-.001.014-.016.033-.032l.032-.03-.03.033c-.027.03-.035.037-.035.03zm.08-.08c0-.002.015-.017.034-.034l.033-.03-.03.034c-.028.03-.036.037-.036.03zm.082-.082.033-.033.033-.03-.03.034c-.028.03-.036.037-.036.03zm.08-.08c0-.003.016-.017.034-.034l.033-.03-.03.033c-.028.031-.036.038-.036.03zm.082-.082c0-.002.015-.016.033-.033l.033-.03-.03.033c-.028.031-.036.038-.036.03zm.081-.081c0-.002.015-.017.033-.033l.033-.03-.03.033c-.028.03-.036.038-.036.03zm.081-.081c0-.002.015-.017.033-.033l.033-.03-.03.033c-.027.03-.036.038-.036.03zm.081-.081c0-.002.015-.017.033-.033l.033-.03-.03.033c-.027.03-.036.038-.036.03zm.081-.081c0-.002.015-.017.033-.033l.033-.03-.03.033c-.027.03-.036.038-.036.03zm.081-.081c0-.002.015-.017.033-.033l.033-.03-.03.033c-.027.03-.036.037-.036.03zm.082-.081c0-.002.014-.017.032-.033l.033-.03-.03.033c-.027.03-.035.037-.035.03zm.08-.082c0-.001.015-.016.034-.033l.033-.03-.03.034c-.028.03-.036.037-.036.03zm.082-.08c0-.002.015-.017.033-.034l.033-.03-.03.034c-.028.03-.036.037-.036.03zm.08-.082c0-.002.016-.016.034-.033l.033-.03-.03.033c-.028.031-.036.038-.036.03zm.082-.08c0-.003.015-.017.033-.034l.033-.03-.03.033c-.028.031-.036.038-.036.03zm.081-.082c0-.002.015-.017.033-.033l.033-.03-.03.033c-.028.031-.036.038-.036.03zm.081-.081c0-.002.015-.017.033-.033l.033-.03-.03.033c-.028.03-.036.038-.036.03zm.081-.081c0-.002.015-.017.033-.033l.033-.03-.03.033c-.027.03-.036.038-.036.03zm.081-.081c0-.002.015-.017.033-.033l.033-.03-.03.033c-.027.03-.036.038-.036.03zm.081-.081c0-.002.015-.017.033-.033l.033-.03-.03.033c-.027.03-.036.037-.036.03zm.082-.081c0-.002.014-.017.032-.033l.033-.03-.03.033c-.027.03-.035.037-.035.03zm.887-.89c.451-.451.823-.82.826-.82.002 0-.365.369-.816.82-.452.452-.824.822-.826.822-.003 0 .364-.37.816-.821zM10.026.373a.08.08 0 0 1 .023-.02c.003 0-.003.009-.013.02a.08.08 0 0 1-.023.02c-.003 0 .003-.009.013-.02zm.127-.126c0-.002.008-.01.017-.017.017-.013.017-.013.004.003-.013.017-.021.023-.021.014zm.805-.11-.02-.023.023.02c.022.018.028.026.02.026a.113.113 0 0 1-.023-.023zm-5.586 4.53-.03-.033.034.03a.253.253 0 0 1 .033.033c0 .008-.009.001-.037-.03zm-.08-.08-.03-.034.032.03a.253.253 0 0 1 .033.033c0 .008-.008.001-.036-.03zm-.082-.082-.03-.033.033.03a.253.253 0 0 1 .033.033c0 .008-.008.001-.036-.03zm-.08-.08L5.1 4.39l.032.03a.253.253 0 0 1 .033.033c0 .008-.008 0-.036-.03zm-.082-.082-.03-.033.033.03c.03.028.038.036.03.036a.253.253 0 0 1-.033-.033zm-.081-.081-.03-.033.033.03a.253.253 0 0 1 .033.033c0 .008-.008 0-.036-.03zm-.081-.081-.03-.033.033.03c.03.027.038.036.03.036a.253.253 0 0 1-.033-.033zM4.805 4.1l-.03-.033.033.03a.253.253 0 0 1 .033.033c0 .007-.009 0-.036-.03zM2.123 1.418 2.1 1.391l.028.024c.026.023.032.031.024.031a.176.176 0 0 1-.028-.028zm-.076-.076-.03-.033.034.03c.03.028.037.036.03.036a.253.253 0 0 1-.034-.033zm-.08-.08-.03-.034.032.03c.031.028.038.036.03.036a.253.253 0 0 1-.033-.033zm-.082-.082-.03-.033.033.03c.031.028.038.036.03.036a.253.253 0 0 1-.033-.033zm-.08-.08-.03-.034.032.03c.031.028.038.036.03.036a.253.253 0 0 1-.033-.033zm-.082-.082-.03-.033.033.03c.03.028.038.036.03.036a.253.253 0 0 1-.033-.033zM1.642.937l-.03-.033.033.03c.03.028.038.036.03.036a.253.253 0 0 1-.033-.033zM1.56.856 1.53.823l.033.03c.03.027.038.036.03.036A.253.253 0 0 1 1.56.856zM1.48.775 1.45.742l.033.03c.03.027.037.036.03.036A.253.253 0 0 1 1.48.775zM1.399.694 1.369.66l.033.03c.03.027.037.036.03.036a.253.253 0 0 1-.033-.033zM9.707.692c0-.002.008-.01.017-.017.017-.013.017-.013.004.003-.013.017-.021.023-.021.014zm.07-.072a.221.221 0 0 1 .04-.035c.003 0-.01.016-.03.035a.221.221 0 0 1-.039.036.14.14 0 0 1 .03-.036zM1.318.613 1.288.58l.034.03c.03.027.037.036.03.036a.253.253 0 0 1-.033-.033zm8.597-.13c.05-.05.094-.09.096-.09.003 0-.035.04-.085.09a1.29 1.29 0 0 1-.096.092 1 1 0 0 1 .085-.092zM1.236.531 1.206.5l.034.03a.253.253 0 0 1 .033.032c0 .008-.009.001-.037-.03zm-.08-.08-.03-.034.032.03c.031.028.038.036.03.036A.253.253 0 0 1 1.155.45zM.977.272.852.143l.13.127c.07.07.128.128.128.13 0 .007-.014-.007-.132-.127zm9.073.075c0-.002.008-.01.018-.018.016-.013.017-.012.004.004-.013.017-.022.022-.022.014z"/><path d="m4.713 4.009-.02-.023.024.019c.012.01.022.02.022.023 0 .008-.008.002-.026-.02zm-.07-.071-.03-.033.033.03a.253.253 0 0 1 .033.032c0 .008-.009.001-.036-.03zm-.082-.082-.03-.032.034.03a.253.253 0 0 1 .033.032c0 .008-.009.001-.037-.03zm-.08-.08-.03-.034.032.03c.031.028.038.036.03.036a.253.253 0 0 1-.033-.033zm-.082-.082-.03-.033.033.03a.253.253 0 0 1 .033.033c0 .008-.008.001-.036-.03zm-.08-.08-.03-.034.032.03c.031.028.038.036.03.036a.253.253 0 0 1-.033-.033zm-.082-.082-.03-.033.033.03a.253.253 0 0 1 .033.033c0 .008-.008 0-.036-.03zm-.081-.081-.03-.033.033.03a.253.253 0 0 1 .033.033c0 .008-.008 0-.036-.03zm-.081-.081-.03-.033.033.03c.03.027.038.036.03.036a.253.253 0 0 1-.033-.033zm-.081-.081-.03-.033.033.03c.03.027.038.036.03.036a.253.253 0 0 1-.033-.033zm-.081-.081-.03-.033.033.03a.253.253 0 0 1 .033.032c0 .008-.009.001-.036-.03zm-.081-.081-.03-.033.033.03c.03.027.037.036.03.036a.253.253 0 0 1-.033-.033zm-.082-.082-.03-.032.034.03c.03.027.037.035.03.035a.253.253 0 0 1-.034-.033zm-.08-.08-.03-.034.033.03a.253.253 0 0 1 .032.033c0 .008-.008.001-.036-.03zm-.082-.082-.03-.033.033.03c.031.028.038.036.03.036a.253.253 0 0 1-.033-.033zm-.08-.08-.03-.034.032.03a.253.253 0 0 1 .033.033c0 .008-.008 0-.036-.03zm-.082-.082-.03-.033.033.03a.253.253 0 0 1 .033.033c0 .008-.008 0-.036-.03zm-.081-.081-.03-.033.033.03a.253.253 0 0 1 .033.033c0 .008-.008 0-.036-.03zm-.081-.081-.03-.033.033.03c.03.027.038.036.03.036a.253.253 0 0 1-.033-.033zm-.081-.081-.03-.033.033.03c.03.027.038.036.03.036a.253.253 0 0 1-.033-.033zm-.081-.081-.03-.033.033.03c.03.027.037.036.03.036a.253.253 0 0 1-.033-.033zm-.081-.081-.03-.033.033.03c.03.027.037.036.03.036a.253.253 0 0 1-.033-.033zm-.082-.081-.03-.033.034.03c.03.027.037.035.03.035a.253.253 0 0 1-.034-.032zm-.08-.082-.03-.033.033.03a.253.253 0 0 1 .032.033c0 .008-.008.001-.036-.03zm-.082-.08-.03-.034.033.03c.031.028.038.036.03.036a.253.253 0 0 1-.033-.033zm-.08-.082-.03-.033.032.03c.031.028.038.036.03.036a.253.253 0 0 1-.033-.033zm-.082-.08-.03-.034.033.03c.031.028.038.036.03.036a.253.253 0 0 1-.033-.033zm-.081-.082-.03-.033.033.03c.03.028.038.036.03.036a.253.253 0 0 1-.033-.033zm-.081-.081-.03-.033.033.03c.03.028.038.036.03.036a.253.253 0 0 1-.033-.033zm-.081-.081-.03-.033.033.03c.03.027.038.036.03.036a.253.253 0 0 1-.033-.033zm-.081-.081-.03-.033.033.03c.03.027.037.036.03.036a.253.253 0 0 1-.033-.033zm-.081-.081-.03-.033.033.03c.03.027.037.036.03.036a.253.253 0 0 1-.033-.033zm7.304-.62c0-.002.008-.01.018-.018.016-.012.016-.012.004.004-.014.017-.022.022-.022.014zm.04-.04.08-.078.078-.076-.076.079c-.07.073-.081.083-.081.075zM5.063 5.788 5.04 5.76l.027.024c.026.023.033.031.025.031a.176.176 0 0 1-.028-.027zm-.081-.081-.025-.028.028.024c.026.023.033.031.025.031a.176.176 0 0 1-.028-.027zm-.081-.082-.025-.027.028.024c.026.023.033.031.025.031a.176.176 0 0 1-.028-.028zm-.081-.08-.025-.029.028.025c.026.023.033.031.025.031a.176.176 0 0 1-.028-.028zm-.081-.082-.025-.028.028.025c.026.023.033.031.025.031a.176.176 0 0 1-.028-.028zm-.081-.08-.025-.029.028.025c.026.023.032.031.024.031a.176.176 0 0 1-.027-.028zM4.576 5.3l-.024-.028.028.025c.026.023.032.03.024.03a.176.176 0 0 1-.028-.027zm-.08-.081-.025-.028.028.025c.026.023.032.03.024.03a.176.176 0 0 1-.028-.027zm-.082-.081L4.39 5.11l.028.025c.026.022.032.03.024.03a.176.176 0 0 1-.028-.027zm-.08-.081-.025-.028.028.024c.026.023.032.032.024.032a.176.176 0 0 1-.028-.028zm-.082-.081-.024-.028.027.024c.026.023.033.032.025.032a.176.176 0 0 1-.028-.028zm-.081-.081-.025-.028.028.024c.026.023.033.031.025.031a.176.176 0 0 1-.028-.027zm-.081-.082-.025-.027.028.024c.026.023.033.031.025.031a.176.176 0 0 1-.028-.028zm-.081-.08-.025-.029.028.025c.026.023.033.031.025.031a.176.176 0 0 1-.028-.028zm-.081-.082-.025-.028.028.025c.026.023.033.031.025.031a.176.176 0 0 1-.028-.028zm-.081-.08-.025-.029.028.025c.026.023.032.031.024.031a.176.176 0 0 1-.027-.028zm-.081-.082-.025-.028.028.025c.026.023.032.03.024.03a.176.176 0 0 1-.027-.027zm5.393-3.25c0-.002.008-.01.018-.018.016-.013.016-.012.004.004-.013.017-.022.022-.022.014zm.162-.164C9.37 1.03 9.41.99 9.412.99a.924.924 0 0 1-.08.086 1.156 1.156 0 0 1-.091.087.924.924 0 0 1 .08-.087zm.122-.12c0-.002.008-.01.018-.018.016-.012.016-.012.004.004-.014.017-.022.022-.022.014zM.166.89C.154.875.154.875.17.888c.01.007.018.015.018.017C.188.914.18.908.166.891z"/><path d="M5.022 5.747c-.013-.016-.012-.016.004-.004.01.008.018.016.018.018 0 .008-.009.003-.022-.014zm-.081-.081c-.013-.016-.012-.016.004-.004.01.008.017.016.017.018 0 .008-.008.003-.021-.014zm-.081-.081c-.013-.016-.012-.017.004-.004.01.008.017.016.017.018 0 .008-.008.003-.021-.014zm-.081-.081c-.013-.016-.013-.017.004-.004.01.008.017.016.017.018 0 .008-.008.003-.021-.014zm-.081-.081c-.013-.016-.013-.017.003-.004.017.013.023.021.014.021-.002 0-.01-.008-.017-.017zm-.081-.081c-.013-.017-.013-.017.003-.004.01.007.018.015.018.017 0 .009-.008.003-.021-.013zm-.082-.082c-.012-.016-.012-.016.004-.003.017.013.023.021.014.021a.069.069 0 0 1-.018-.018zm-.08-.08c-.013-.017-.013-.017.003-.004.01.007.018.015.018.017 0 .009-.008.003-.022-.014zm-.082-.082c-.012-.016-.012-.016.004-.004.017.014.022.022.014.022a.069.069 0 0 1-.018-.018zm-.08-.08C4.28 5 4.28 5 4.295 5.012c.017.014.022.022.014.022a.069.069 0 0 1-.018-.018zm-.082-.082c-.013-.016-.012-.016.004-.004.01.008.018.016.018.018 0 .008-.009.003-.022-.014zm-.081-.081c-.013-.016-.012-.016.004-.004.017.013.022.022.014.022a.069.069 0 0 1-.018-.018zm-.081-.081c-.013-.016-.012-.017.004-.004.017.013.022.022.014.022-.003 0-.01-.008-.018-.018zm-.081-.081c-.013-.016-.013-.017.004-.004.016.013.022.022.013.022-.002 0-.01-.008-.017-.018zm-.081-.081c-.013-.016-.013-.017.003-.004.017.013.023.021.014.021-.002 0-.01-.008-.017-.017zm-.081-.081c-.013-.016-.013-.017.003-.004.017.013.023.021.014.021-.002 0-.01-.008-.017-.017zm-.082-.082c-.012-.016-.012-.016.004-.003.017.013.023.021.014.021a.069.069 0 0 1-.018-.018zm-.04-.04c-.013-.016-.012-.016.004-.004.017.013.022.022.014.022a.069.069 0 0 1-.018-.018zm-.04-.04c-.013-.017-.013-.017.003-.004.017.013.022.021.014.021a.069.069 0 0 1-.018-.018zm-.041-.041c-.013-.016-.012-.017.004-.004.017.013.022.022.014.022-.003 0-.01-.008-.018-.018zm-.04-.04c-.013-.017-.013-.017.003-.005.017.014.022.022.014.022a.069.069 0 0 1-.018-.018zm-.041-.041c-.013-.016-.013-.017.004-.004.016.013.022.021.013.021-.002 0-.01-.007-.017-.017zm-.04-.04c-.013-.017-.013-.017.003-.005.017.014.022.022.014.022a.069.069 0 0 1-.018-.018zm-.041-.041c-.013-.016-.013-.017.003-.004.017.013.023.021.014.021-.002 0-.01-.008-.017-.017zm-.04-.04c-.014-.017-.013-.017.003-.005.017.014.022.022.014.022a.069.069 0 0 1-.018-.018zm-.041-.041c-.013-.017-.013-.017.003-.004.017.013.023.021.014.021-.002 0-.01-.008-.017-.017zm-.041-.041c-.013-.016-.012-.016.004-.004.017.013.022.022.014.022a.069.069 0 0 1-.018-.018zm-.04-.04c-.013-.017-.013-.017.003-.004.017.013.022.021.014.021a.069.069 0 0 1-.018-.018zm-.041-.041c-.013-.016-.012-.017.004-.004.017.013.022.022.014.022-.003 0-.01-.008-.018-.018zm-.04-.04c-.013-.017-.013-.017.003-.004.017.013.022.021.014.021a.069.069 0 0 1-.018-.018zm-.041-.041c-.013-.016-.012-.017.004-.004.016.013.022.022.014.022-.003 0-.01-.008-.018-.018zm-.04-.04c-.013-.017-.013-.017.003-.005.017.014.022.022.014.022a.069.069 0 0 1-.018-.018zM3.075 3.8c-.013-.016-.013-.017.003-.004.01.008.018.016.018.018 0 .008-.008.003-.021-.014zm-.04-.04c-.013-.017-.013-.017.003-.005.017.014.022.022.014.022a.069.069 0 0 1-.018-.018zm-.041-.041c-.013-.016-.013-.017.003-.004.017.013.023.021.014.021-.002 0-.01-.008-.017-.017zm-.041-.04c-.013-.017-.012-.017.004-.005.01.008.018.016.018.018 0 .008-.009.003-.022-.014zm-.04-.041c-.013-.017-.013-.017.003-.004.017.013.023.021.014.021a.076.076 0 0 1-.018-.017zm-.041-.041c-.013-.016-.012-.016.004-.004.017.013.022.022.014.022a.069.069 0 0 1-.018-.018zm-.04-.04c-.013-.017-.013-.017.003-.004.01.007.018.015.018.017 0 .009-.008.003-.022-.014zm-.041-.041c-.013-.016-.012-.017.004-.004.017.013.022.022.014.022-.003 0-.01-.008-.018-.018zm-.04-.04c-.013-.017-.013-.017.003-.005.017.014.022.022.014.022a.069.069 0 0 1-.018-.018zm-.041-.041c-.013-.016-.013-.017.004-.004.016.013.022.022.013.022-.002 0-.01-.008-.017-.018zm-.04-.04c-.013-.017-.013-.017.003-.005.017.014.022.022.014.022a.069.069 0 0 1-.018-.018zm-.041-.041c-.013-.016-.013-.017.003-.004.017.013.023.021.014.021-.002 0-.01-.008-.017-.017zm-.04-.04c-.014-.017-.013-.017.003-.005.01.008.018.016.018.018 0 .008-.009.003-.022-.014zm-.041-.041c-.013-.017-.013-.017.003-.004.017.013.023.021.014.021-.002 0-.01-.008-.017-.017zm-.041-.041c-.013-.016-.012-.016.004-.004.017.013.022.022.014.022a.069.069 0 0 1-.018-.018zm-.04-.04c-.013-.017-.013-.017.003-.004.017.013.023.021.014.021a.069.069 0 0 1-.018-.018zm-.041-.041c-.013-.016-.012-.017.004-.004.017.013.022.022.014.022a.069.069 0 0 1-.018-.018zm-.04-.04c-.013-.017-.013-.017.003-.004.01.007.018.015.018.017 0 .009-.008.003-.022-.014zm-.041-.041c-.013-.016-.012-.017.004-.004.01.008.017.016.017.018 0 .008-.008.003-.021-.014zm-.04-.04c-.013-.017-.013-.017.003-.005.01.008.018.016.018.018 0 .009-.009.003-.022-.014zm-.041-.041c-.013-.016-.013-.017.004-.004.01.008.017.016.017.018 0 .008-.008.003-.021-.014zm-.04-.04c-.013-.017-.013-.017.003-.005.01.008.018.016.018.018 0 .008-.009.003-.022-.014zm-.041-.041c-.013-.016-.013-.017.003-.004.01.007.018.015.018.018 0 .008-.008.003-.021-.014zm-.041-.04c-.013-.017-.012-.017.004-.005.01.008.018.016.018.018 0 .008-.009.003-.022-.014zm-.04-.041c-.013-.017-.013-.017.003-.004.01.007.018.015.018.017 0 .009-.008.003-.022-.013zm-.041-.041c-.013-.016-.012-.016.004-.004.017.013.022.022.014.022a.069.069 0 0 1-.018-.018zm-.04-.04c-.013-.017-.013-.017.003-.004.017.013.022.021.014.021a.069.069 0 0 1-.018-.018zm-.041-.041c-.013-.016-.012-.017.004-.004.017.013.022.022.014.022-.003 0-.01-.008-.018-.018zm-.04-.04c-.013-.017-.013-.017.003-.004.01.007.018.015.018.017 0 .009-.008.003-.022-.014zm-.04-.041c-.013-.016-.013-.017.004-.004.016.013.022.022.013.022-.002 0-.01-.008-.017-.018zm-.04-.04c-.013-.017-.013-.017.003-.005.01.008.018.016.018.018 0 .009-.009.003-.022-.014zm-.041-.041c-.013-.016-.013-.017.003-.004.01.008.018.016.018.018 0 .008-.008.003-.021-.014zm-.04-.04c-.014-.017-.013-.017.003-.005.01.008.018.016.018.018 0 .008-.009.003-.022-.014zm-.041-.041c-.013-.016-.013-.017.003-.004.01.007.018.015.018.018 0 .008-.008.002-.021-.014zm-.041-.04c-.013-.017-.012-.017.004-.005.01.008.018.016.018.018 0 .008-.009.003-.022-.014zm-.04-.041c-.013-.017-.013-.017.003-.004.01.007.018.015.018.017 0 .009-.008.003-.022-.013zm-.041-.041c-.013-.016-.012-.016.004-.004.01.008.017.016.017.018 0 .008-.008.003-.021-.014zm-.04-.04c-.013-.017-.013-.017.003-.004.01.007.018.015.018.017 0 .009-.008.003-.022-.014zm-.041-.041c-.013-.016-.012-.017.004-.004.01.008.017.016.017.018 0 .008-.008.003-.021-.014zm-.04-.04c-.013-.017-.013-.017.003-.005.01.008.018.016.018.018 0 .009-.008.003-.022-.014zm-.041-.041c-.013-.016-.013-.017.004-.004.01.008.017.016.017.018 0 .008-.008.003-.021-.014zm-.04-.04c-.013-.017-.013-.017.003-.005.017.014.022.022.014.022a.069.069 0 0 1-.018-.018zm-.041-.041c-.013-.016-.013-.017.003-.004.01.007.018.015.018.018 0 .008-.008.003-.021-.014zm-.04-.04c-.014-.017-.013-.017.003-.005.01.008.018.016.018.018 0 .008-.009.003-.022-.014zm-.041-.041C1.279 2 1.279 2 1.295 2.013c.01.007.018.015.018.017 0 .009-.008.003-.021-.013zm-.041-.041c-.013-.016-.012-.016.004-.004.01.008.018.016.018.018 0 .008-.009.003-.022-.014zm-.04-.04c-.013-.017-.013-.017.003-.004.01.007.018.015.018.017 0 .009-.008.003-.022-.014zm-.041-.041c-.013-.016-.012-.017.004-.004.01.008.017.016.017.018 0 .008-.008.003-.021-.014zm-.04-.04c-.013-.017-.013-.017.003-.004.01.007.018.015.018.017 0 .009-.008.003-.022-.014zm-.041-.041c-.013-.016-.012-.017.004-.004.01.008.017.016.017.018 0 .008-.008.003-.021-.014zm-.04-.04c-.013-.017-.013-.017.003-.005.01.008.018.016.018.018 0 .009-.009.003-.022-.014zm-.041-.041c-.013-.016-.013-.017.004-.004.01.008.017.016.017.018 0 .008-.008.003-.021-.014zm-.04-.04c-.013-.017-.013-.017.003-.005.01.008.018.016.018.018 0 .008-.009.003-.022-.014zm-.041-.041c-.013-.016-.013-.017.003-.004.01.007.018.015.018.018 0 .008-.008.003-.021-.014zm8.01-.19c.102-.104.189-.188.192-.188.002 0-.08.084-.183.188-.103.103-.19.187-.192.187-.003 0 .08-.084.182-.187zm-8.051.15c-.013-.017-.012-.017.004-.005.01.008.018.016.018.018 0 .008-.009.003-.022-.014zm-.04-.041c-.013-.017-.013-.017.003-.004.01.007.018.015.018.017 0 .009-.008.003-.022-.013zm-.042-.04c-.013-.016-.012-.016.004-.004.01.008.017.016.017.018 0 .008-.008.003-.021-.014zm-.04-.04c-.013-.017-.013-.017.003-.004.01.007.018.015.018.017 0 .009-.008.003-.022-.014zm-.041-.041c-.013-.016-.012-.017.004-.004.01.008.017.016.017.018 0 .008-.008.003-.021-.014zm-.04-.04C.67 1.391.67 1.391.686 1.404c.01.007.018.015.018.017 0 .009-.008.003-.022-.014zm-.041-.041C.63 1.352.63 1.35.647 1.364c.01.008.017.016.017.018 0 .008-.008.003-.021-.014zm-.04-.04C.59 1.31.59 1.31.605 1.322c.01.008.018.016.018.018 0 .008-.009.003-.022-.014zm-.041-.041C.549 1.27.549 1.27.565 1.283c.01.008.018.015.018.018 0 .008-.008.003-.021-.014zm-.04-.04C.507 1.23.508 1.23.524 1.241c.01.008.018.016.018.018 0 .008-.009.003-.022-.014zM.48 1.205c-.013-.016-.013-.017.003-.004.01.007.018.015.018.018 0 .008-.008.002-.021-.014zm-.04-.04c-.013-.016-.012-.016.004-.004.01.008.018.016.018.018 0 .008-.009.003-.022-.014zm-.04-.04c-.013-.017-.013-.017.003-.004.01.007.018.015.018.017 0 .009-.008.003-.022-.014zm-.041-.041c-.013-.016-.012-.016.004-.004.01.008.017.016.017.018 0 .008-.008.003-.021-.014zm-.04-.04c-.013-.017-.013-.017.003-.004.01.007.018.015.018.017 0 .009-.008.003-.022-.014zm-.041-.041C.265.987.266.986.282.999c.01.008.017.016.017.018 0 .008-.008.003-.021-.014zm-.04-.04C.224.945.224.945.24.957a.09.09 0 0 1 .02.019C.259.985.25.98.237.962zM.196.921C.184.906.184.905.2.918.217.93.223.939.214.939.212.94.204.932.197.922zm5.527 3.754a.12.12 0 0 1 .029-.025c.002 0-.006.011-.02.025a.12.12 0 0 1-.028.025c-.003 0 .006-.011.019-.025zm.08-.081a.12.12 0 0 1 .03-.025c.003 0-.006.011-.019.025a.12.12 0 0 1-.029.025c-.003 0 .006-.011.019-.025zm.082-.081a.12.12 0 0 1 .029-.025c.003 0-.006.01-.019.025a.12.12 0 0 1-.029.025c-.003 0 .006-.011.019-.025zm.081-.081a.12.12 0 0 1 .029-.026c.003 0-.006.012-.019.026a.12.12 0 0 1-.029.025c-.002 0 .006-.011.02-.025zm.081-.081a.12.12 0 0 1 .029-.026c.003 0-.006.012-.019.026a.12.12 0 0 1-.029.025c-.002 0 .006-.011.02-.025zm.107-.107a.426.426 0 0 1 .055-.05.292.292 0 0 1-.045.05.426.426 0 0 1-.055.05.292.292 0 0 1 .045-.05zm.096-.096a.221.221 0 0 1 .04-.036.174.174 0 0 1-.03.036.221.221 0 0 1-.04.035.158.158 0 0 1 .03-.035zm.081-.081a.221.221 0 0 1 .04-.036.174.174 0 0 1-.03.036.221.221 0 0 1-.04.035.158.158 0 0 1 .03-.035zm.081-.081a.221.221 0 0 1 .04-.036.14.14 0 0 1-.03.036.221.221 0 0 1-.04.035.158.158 0 0 1 .03-.035zm.081-.081a.221.221 0 0 1 .04-.036.14.14 0 0 1-.03.036.221.221 0 0 1-.04.035.158.158 0 0 1 .03-.035zm.081-.081a.221.221 0 0 1 .04-.036c.003 0-.01.016-.03.036a.221.221 0 0 1-.039.035c-.003 0 .01-.016.03-.035zm.081-.082a.221.221 0 0 1 .04-.035c.003 0-.01.016-.03.035a.221.221 0 0 1-.039.036c-.003 0 .01-.016.03-.036zm.081-.08a.221.221 0 0 1 .04-.036c.003 0-.01.016-.03.035a.221.221 0 0 1-.039.036c-.003 0 .01-.016.03-.036zm.082-.082a.221.221 0 0 1 .039-.035c.003 0-.01.016-.03.035a.221.221 0 0 1-.039.036c-.003 0 .01-.016.03-.036zm.08-.08a.221.221 0 0 1 .04-.036c.003 0-.01.016-.03.035a.221.221 0 0 1-.039.036.14.14 0 0 1 .03-.036zm.082-.082a.221.221 0 0 1 .04-.035.158.158 0 0 1-.03.035.221.221 0 0 1-.04.036.14.14 0 0 1 .03-.036zm.08-.081A.221.221 0 0 1 7.1 3.3c.003 0-.01.016-.029.036a.221.221 0 0 1-.04.035.158.158 0 0 1 .03-.035zm.082-.081a.221.221 0 0 1 .04-.036.174.174 0 0 1-.03.036.221.221 0 0 1-.04.035.158.158 0 0 1 .03-.035zm.081-.081a.221.221 0 0 1 .04-.036.14.14 0 0 1-.03.036.221.221 0 0 1-.04.035.158.158 0 0 1 .03-.035zm.081-.081a.221.221 0 0 1 .04-.036.14.14 0 0 1-.03.036.221.221 0 0 1-.04.035.158.158 0 0 1 .03-.035zm.081-.081a.221.221 0 0 1 .04-.036c.003 0-.01.016-.03.036a.221.221 0 0 1-.04.035.158.158 0 0 1 .03-.035zm.081-.082a.221.221 0 0 1 .04-.035c.003 0-.01.016-.03.035a.221.221 0 0 1-.039.036c-.003 0 .01-.016.03-.036zm.051-.048c0-.002.015-.017.033-.033l.033-.03-.03.033c-.028.03-.036.037-.036.03zm.112-.114a.12.12 0 0 1 .028-.025c.003 0-.005.011-.018.025a.12.12 0 0 1-.03.026c-.002 0 .006-.012.02-.026zm.08-.08a.12.12 0 0 1 .03-.026c.002 0-.006.011-.02.025a.12.12 0 0 1-.028.025c-.003 0 .006-.01.019-.025zm.082-.082a.12.12 0 0 1 .029-.025c.002 0-.006.011-.02.025a.12.12 0 0 1-.028.025c-.003 0 .006-.011.019-.025zm.08-.081a.12.12 0 0 1 .03-.025c.003 0-.006.011-.019.025a.12.12 0 0 1-.029.025c-.003 0 .006-.011.019-.025zm.062-.059c0-.002.015-.017.033-.033l.033-.03-.03.033c-.028.031-.036.038-.036.03zm.101-.103a.221.221 0 0 1 .04-.036.14.14 0 0 1-.03.036.221.221 0 0 1-.04.035.158.158 0 0 1 .03-.035zm.081-.081a.221.221 0 0 1 .04-.036.14.14 0 0 1-.03.036.221.221 0 0 1-.04.035.158.158 0 0 1 .03-.035zm.081-.081a.221.221 0 0 1 .04-.036.14.14 0 0 1-.03.036.221.221 0 0 1-.04.035.158.158 0 0 1 .03-.035zm.081-.082a.221.221 0 0 1 .04-.035c.003 0-.01.016-.03.035a.221.221 0 0 1-.039.036c-.003 0 .01-.016.03-.036zm.051-.049c0-.002.008-.01.018-.018.016-.012.016-.012.004.004-.014.017-.022.022-.022.014zm.071-.072a.12.12 0 0 1 .029-.026c.003 0-.006.012-.019.026a.12.12 0 0 1-.029.025c-.003 0 .006-.011.019-.025zm.081-.081a.12.12 0 0 1 .029-.026c.003 0-.006.012-.019.026a.12.12 0 0 1-.029.025c-.002 0 .006-.011.02-.025zm.081-.081a.12.12 0 0 1 .03-.026c.002 0-.007.012-.02.026a.12.12 0 0 1-.029.025c-.002 0 .006-.011.02-.025zm.081-.081a.12.12 0 0 1 .03-.026c.002 0-.006.012-.02.026a.12.12 0 0 1-.028.025c-.003 0 .005-.012.018-.025zm.081-.082a.12.12 0 0 1 .03-.025c.002 0-.006.011-.02.025a.12.12 0 0 1-.028.026c-.003 0 .005-.012.018-.026z"/><path d="M5.449 6.05c-.162-.042.019.132-2.783-2.671C.16.874.099.81.063.737-.103.399.073.059.44.007a.463.463 0 0 1 .275.047C.79.09.83.129 3.111 2.408a247.367 247.367 0 0 1 2.38 2.396.546.546 0 0 0 .068.078.446.446 0 0 0 .056-.07C5.673 4.73 10.183.216 10.279.144a.832.832 0 0 1 .274-.134c.24-.06.512.148.554.423a.493.493 0 0 1-.05.297c-.034.07-.135.172-2.56 2.6a343.502 343.502 0 0 1-2.6 2.588.676.676 0 0 1-.252.136.323.323 0 0 1-.196-.004z"/></g></svg>