<svg xmlns="http://www.w3.org/2000/svg" width="60" height="64.003" viewBox="0 0 15.875 16.934"><g fill="#fff"><path d="m14.113 5.247-.03-.034.034.03c.032.03.039.038.03.038a.264.264 0 0 1-.034-.034zm-.423-.423-.063-.067.066.064a.696.696 0 0 1 .066.066c0 .008-.01-.002-.069-.063zM9.991 2.448l-.068-.072.071.069c.067.063.077.074.069.074a1.25 1.25 0 0 1-.072-.071zm-.571-.572-.058-.06.06.057.062.06c0 .009-.01 0-.064-.057zm1.143-.74-.111-.115.114.111.114.114c0 .008-.014-.005-.117-.11z"/><path d="m14.045 5.178-.037-.04.04.037c.037.034.044.043.036.043a.36.36 0 0 1-.04-.04zm-.249-.249-.042-.045.045.042a.471.471 0 0 1 .045.045c0 .008-.009 0-.048-.042zM9.864 2.321l-.058-.061.061.058a.838.838 0 0 1 .061.06c0 .008-.01 0-.064-.057zm-.317-.318-.069-.071L9.55 2c.066.064.076.074.068.074a1.25 1.25 0 0 1-.071-.071z"/><path d="m13.923 5.056-.084-.087.087.085a1.9 1.9 0 0 1 .088.087c0 .008-.012-.003-.09-.085zm1.011-.862-.217-.22.22.217c.12.12.22.218.22.22 0 .007-.021-.013-.223-.217zm-.482-.482-.073-.076.076.073c.072.069.082.08.074.08a1.56 1.56 0 0 1-.077-.077zM9.711 2.167l-.095-.098.098.095c.09.088.102.101.095.101-.002 0-.046-.044-.098-.098z"/><path d="M15.294 16.347a.125.125 0 0 1 .03-.027c.003 0-.006.012-.02.027a.125.125 0 0 1-.03.026c-.002 0 .006-.012.02-.026zm-.069-11.862-.074-.077.077.074c.071.069.082.08.074.08-.002 0-.036-.035-.077-.077zm-.603-.603-.095-.098.098.095c.054.052.098.096.098.098 0 .007-.013-.004-.101-.095zm-3.314-1.99-.02-.024.024.02c.022.02.029.028.02.028a.118.118 0 0 1-.024-.024z"/><path d="M11.315 13.712a.23.23 0 0 1 .04-.038c.004 0-.01.017-.03.038a.23.23 0 0 1-.041.037c-.003 0 .01-.017.03-.037zM.577 13.704l-.032-.035.035.031a.264.264 0 0 1 .034.035c0 .008-.009 0-.037-.031zm8.489-5.967a.084.084 0 0 1 .024-.021c.003 0-.003.01-.014.02a.084.084 0 0 1-.024.022c-.003 0 .003-.01.014-.021zM3.374 3.972a1.29 1.29 0 0 1 .127 0c.034.002.004.004-.066.004s-.097-.002-.06-.004zm7.792-2.223-.121-.124.124.121c.068.067.124.123.124.125 0 .007-.014-.006-.127-.122zM.566.593A.084.084 0 0 1 .592.572c.003 0-.003.01-.014.02a.084.084 0 0 1-.024.022C.55.614.556.604.567.593z"/><path d="M5.483 15.807a.125.125 0 0 1 .03-.026c.003 0-.006.012-.02.026a.125.125 0 0 1-.03.027c-.003 0 .006-.012.02-.027zm10.384-.847c0-.013.003-.015.006-.007s.003.017 0 .02c-.004.004-.007-.002-.006-.013zM2.83 7.734l-.02-.024.023.02c.023.02.029.028.02.028a.118.118 0 0 1-.023-.024zm11.462-2.318-.02-.023.024.02c.022.019.028.027.02.027a.118.118 0 0 1-.024-.024zM3.628 3.972c.042-.002.111-.002.153 0 .043.002.008.003-.076.003-.085 0-.12-.001-.077-.003zm10.24-.55a.06.06 0 0 1 .032 0c.007.003-.001.005-.019.005-.017 0-.023-.002-.013-.005zm-3.55-.657c-.013-.017-.012-.017.004-.004.01.008.019.016.019.019 0 .008-.009.003-.023-.015zm.673-1.19-.052-.056.055.052c.031.03.056.054.056.056 0 .008-.01-.001-.059-.053zM1.51 1.513a.084.084 0 0 1 .024-.022c.003 0-.003.01-.014.022a.084.084 0 0 1-.024.02c-.003 0 .003-.009.014-.02zm8.725-.696C10.22.8 10.22.8 10.238.814c.017.013.023.022.014.022a.069.069 0 0 1-.018-.018z"/><path d="M5.698 16.876a.66.66 0 0 1-.4-.598.61.61 0 0 1 .184-.458.63.63 0 0 1 .27-.173l.085-.03 4.075-.006 4.075-.005.078-.023a.618.618 0 0 0 .46-.47l.023-.09V5.87l-.025-.08a1.012 1.012 0 0 0-.122-.254c-.015-.02-.246-.256-.514-.523-.529-.53-.565-.573-.618-.735a.61.61 0 0 1 .157-.653.567.567 0 0 1 .172-.129.551.551 0 0 1 .32-.063.627.627 0 0 1 .356.123 26.6 26.6 0 0 1 1.17 1.17c.222.294.347.59.408.96.017.102.019.423.022 4.634.002 3.167 0 4.575-.008 4.692-.019.273-.06.472-.145.685-.235.595-.712 1-1.387 1.178-.076.02-.148.042-.16.049-.016.008-1.158.011-4.19.011H5.816zm-3.866-2.6a1.966 1.966 0 0 1-1.82-1.845 1224.2 1224.2 0 0 1 0-10.563c.026-.312.084-.526.212-.783C.478.57.934.217 1.546.058c.074-.019.143-.04.156-.046C1.718.003 2.654 0 5.269 0h3.544l.182.042c.1.023.21.053.243.067.16.064.561.315.714.446.232.198 1.373 1.338 1.508 1.507.26.324.405.698.437 1.134.008.108.01 1.521.008 4.71-.003 4.243-.005 4.564-.022 4.667a2.077 2.077 0 0 1-.306.819c-.342.52-.883.834-1.526.885a839 839 0 0 1-8.219 0zm8.276-1.34a.66.66 0 0 0 .452-.462c.018-.062.019-.259.022-4.631.003-4.975.007-4.632-.055-4.784-.055-.136-.101-.187-.797-.881a25.463 25.463 0 0 0-.728-.712.811.811 0 0 0-.275-.122c-.087-.02-.136-.021-3.468-.018l-3.38.002-.08.025a.612.612 0 0 0-.455.501c-.02.101-.02.162-.018 5.33l.003 5.226.024.077a.645.645 0 0 0 .54.467c.027.005 1.869.008 4.093.008l4.043-.002Zm-6.865-2.363a.661.661 0 0 1-.571-.477.84.84 0 0 1 0-.348c.07-.26.29-.44.581-.476a86.745 86.745 0 0 1 2.755 0c.293.036.513.217.581.476a.865.865 0 0 1 .006.328c-.057.236-.221.4-.477.478l-.08.024-1.365.002c-.75 0-1.394-.002-1.43-.007zM3.22 7.926a.668.668 0 0 1-.559-.524.674.674 0 0 1 .193-.603.806.806 0 0 1 .284-.159c.061-.018.191-.02 2.758-.023 1.918-.002 2.719 0 2.783.009a.664.664 0 0 1 .508.349.681.681 0 0 1-.035.658.734.734 0 0 1-.383.28c-.06.018-.19.02-2.773.02-1.575.002-2.737-.001-2.776-.007zM3.213 5.28a.655.655 0 0 1-.384-.197.77.77 0 0 1-.183-.456.81.81 0 0 1 .062-.27.646.646 0 0 1 .448-.358l.088-.024H5.96c2.218 0 2.727.002 2.778.013a.938.938 0 0 1 .16.06c.16.077.273.208.329.38.05.156.034.36-.039.504a.688.688 0 0 1-.428.336c-.06.018-.205.019-2.773.02-1.507 0-2.738-.003-2.773-.008z"/></g></svg>