<svg xmlns="http://www.w3.org/2000/svg" width="27.513" height="32"><path fill="#d0d0d0" d="M7.885 31.957a12.261 12.261 0 0 1-1.022-.252 6.23 6.23 0 0 1-2.47-1.476 5.869 5.869 0 0 1-1.016-1.276c-.449-.751-.719-1.555-.846-2.523-.034-.256-.036-.795-.041-9.593l-.006-9.323h-.596c-.328 0-.663-.01-.746-.02C.456 7.404 0 6.91 0 6.254c0-.107.014-.247.03-.313.112-.438.442-.765.906-.897L1.092 5l3.201-.006 3.201-.005V4.33c0-.362.01-.752.02-.866.098-.965.503-1.822 1.15-2.438.585-.555 1.378-.91 2.24-1.005.127-.013 1.125-.02 2.87-.02 2.291 0 2.709.004 2.911.03 1.754.229 3.019 1.472 3.283 3.227.024.16.036.424.043.975l.011.756 3.229.006c3.038.006 3.235.008 3.347.042.273.082.494.235.641.44.403.565.36 1.19-.118 1.667a1.16 1.16 0 0 1-.542.324c-.114.035-.598.037-10.845.041L5.01 7.515l.006 9.312.006 9.312.044.22c.128.646.324 1.12.656 1.583.636.89 1.623 1.434 2.785 1.533.186.016 1.74.02 5.43.015 5.674-.008 5.243.001 5.744-.126a3.673 3.673 0 0 0 2.164-1.51c.315-.47.505-.96.611-1.585.034-.198.037-.628.046-7.734.01-7.247.012-7.528.048-7.634.147-.438.488-.766.904-.872.274-.07.637-.023.902.116.183.095.429.35.52.54.144.3.133-.38.126 8.035-.006 8.394.005 7.666-.127 8.31a6.253 6.253 0 0 1-2.99 4.132c-.643.373-1.223.582-2.123.767l-.347.071-5.675-.002c-5.568-.001-5.677-.002-5.854-.041Zm9.603-27.714c-.007-.647-.013-.76-.044-.856a1.25 1.25 0 0 0-.856-.837c-.119-.033-.312-.035-2.842-.035-3.04 0-2.816-.01-3.114.145-.31.163-.505.443-.563.807-.032.198-.066.772-.075 1.247l-.005.276h7.507ZM8.542 26.99a1.28 1.28 0 0 1-.991-.87l-.047-.14-.006-6.142c-.004-5.571-.002-6.156.027-6.301.08-.4.314-.724.65-.901a1.14 1.14 0 0 1 .571-.137c.223.001.392.044.598.15.275.143.475.382.59.7l.053.147.015 1.634c.008.898.012 3.688.009 6.201l-.007 4.569-.042.156c-.176.647-.774 1.041-1.42.934zm4.953-.01a1.256 1.256 0 0 1-.87-.683c-.137-.28-.127.257-.123-6.546.004-5.979.005-6.152.042-6.297.11-.43.44-.783.851-.91.178-.054.465-.06.651-.012.432.11.75.41.897.844l.055.16.005 6.142c.006 6.856.017 6.317-.137 6.63a1.408 1.408 0 0 1-.466.52 1.288 1.288 0 0 1-.905.152zm5.09.019a1.304 1.304 0 0 1-1.046-.93c-.035-.124-.036-.375-.036-6.3 0-5.822.002-6.18.035-6.303.172-.638.734-1.04 1.347-.961.538.068.922.4 1.076.932l.046.16v6.131c0 5.047-.004 6.155-.027 6.262a1.247 1.247 0 0 1-1.163 1.011 1.82 1.82 0 0 1-.232-.002z"/><path fill="#b9b9b9" d="M7.674 31.91a7.241 7.241 0 0 1-1.037-.283 6.254 6.254 0 0 1-3.592-3.314 7.902 7.902 0 0 1-.39-1.172c-.137-.615-.133-.547-.15-2.725-.009-1.091-.017-5.34-.018-9.443l-.002-7.459h-.566c-.312 0-.647-.01-.745-.02C.627 7.43.226 7.129.058 6.653c-.067-.19-.068-.587-.002-.797a1.24 1.24 0 0 1 .635-.715c.318-.152.029-.14 3.6-.146l3.199-.006.01-.776c.01-.823.023-.972.124-1.367C8.024 1.262 9.26.206 10.93.02c.254-.028 5.42-.028 5.677 0 1.569.172 2.816 1.205 3.238 2.683.13.454.172.884.172 1.759v.525l3.221.006c3.02.006 3.229.009 3.342.042.287.085.49.218.644.422.303.4.371.91.175 1.3-.18.36-.458.6-.82.71-.115.034-.537.036-10.845.041L5.01 7.515v9.197c0 6.353.007 9.258.022 9.393.155 1.424 1.006 2.573 2.293 3.097.251.102.5.173.831.237l.23.044 5.21.007c3.64.005 5.28 0 5.44-.014 1.124-.106 2.083-.633 2.722-1.493.274-.37.519-.895.626-1.346.114-.477.105.14.118-8.072.011-7.008.014-7.542.046-7.644.167-.542.605-.893 1.147-.917.244-.011.415.024.631.13.21.103.444.338.546.546.149.306.137-.389.13 8.045-.006 8.228.001 7.64-.106 8.196a6.249 6.249 0 0 1-2.654 4.015c-.724.486-1.414.767-2.391.973l-.434.091-5.676-.002-5.675-.002Zm9.818-27.607c0-.785-.01-.869-.142-1.135a1.214 1.214 0 0 0-.749-.616c-.114-.035-.257-.037-2.865-.037H10.99l-.156.055c-.434.154-.69.45-.765.882-.033.192-.067.727-.077 1.222l-.006.316h7.506ZM8.507 26.981a1.297 1.297 0 0 1-.966-.903c-.036-.115-.037-.364-.037-6.31v-6.192l.047-.15c.144-.462.46-.78.885-.893.143-.038.46-.037.612 0 .42.107.746.41.886.82l.055.163v12.483l-.054.147c-.148.405-.451.7-.838.813a1.44 1.44 0 0 1-.59.022zm5.053.009a1.358 1.358 0 0 1-.745-.406 1.355 1.355 0 0 1-.272-.527c-.04-.152-.04-.249-.04-6.288.001-6.824-.011-6.262.143-6.582a.995.995 0 0 1 .246-.333 1.1 1.1 0 0 1 .85-.35 1.23 1.23 0 0 1 1.22.941c.034.123.036.474.036 6.302 0 6.817.012 6.253-.135 6.562a1.3 1.3 0 0 1-.556.566 1.24 1.24 0 0 1-.747.115zm5.045.008a1.25 1.25 0 0 1-.733-.367 1.291 1.291 0 0 1-.334-.562c-.032-.103-.035-.525-.04-6.192-.005-3.927 0-6.134.013-6.231.07-.536.394-.943.868-1.092.188-.06.477-.068.667-.02.47.119.813.47.925.946.035.149.036.42.036 6.287 0 6.895.016 6.216-.153 6.561a1.254 1.254 0 0 1-.758.63 1.659 1.659 0 0 1-.491.04z"/><path fill="#a3a3a3" d="M7.634 31.9c-.539-.12-.796-.194-1.152-.335a6.223 6.223 0 0 1-2.947-2.37c-.516-.785-.811-1.56-.974-2.555l-.046-.28-.005-9.42-.006-9.42-.696-.011c-.606-.01-.716-.017-.849-.052-.357-.093-.664-.327-.814-.62C.032 6.617.01 6.52.01 6.242c0-.2.008-.265.048-.387.153-.466.558-.776 1.104-.844.113-.014 1.199-.021 3.25-.021h3.082v-.627c0-.344.01-.73.021-.856C7.671 1.8 8.756.51 10.365.12c.492-.12.51-.12 3.4-.12 1.602 0 2.706.008 2.816.02a3.905 3.905 0 0 1 2.003.79c.218.172.553.524.715.753.257.363.464.82.58 1.28.1.393.118.61.118 1.416v.73l3.231.005L26.46 5l.164.051c.218.069.364.16.525.33.246.258.376.6.358.941a1.278 1.278 0 0 1-.698 1.048 1.932 1.932 0 0 1-.268.106c-.081.021-2.178.027-10.816.033L5.01 7.515v9.216c0 9.968-.005 9.4.102 9.859.107.458.338.981.594 1.342.165.233.617.69.837.845a3.898 3.898 0 0 0 1.914.699c.16.015 1.8.02 5.45.015 4.88-.006 5.232-.009 5.41-.042.86-.159 1.526-.496 2.085-1.055.556-.556.888-1.207 1.047-2.055.041-.22.042-.252.053-7.764l.011-7.544.055-.162c.095-.28.266-.508.493-.656.259-.17.471-.227.77-.209.451.027.84.283 1.036.681.152.31.14-.384.14 7.87 0 4.77-.007 7.51-.02 7.664-.178 2.141-1.362 3.982-3.22 5.007-.598.329-1.175.53-2.025.703l-.347.071-5.665-.002-5.664-.003Zm9.863-27.396c.012-.547-.009-.982-.052-1.12a1.235 1.235 0 0 0-.874-.841c-.092-.023-.573-.028-2.835-.028H11.01l-.15.047c-.363.113-.625.352-.74.674-.059.168-.099.515-.112.973-.006.214-.015.478-.02.585l-.01.196h7.508Zm-8.86 22.495a1.417 1.417 0 0 1-.442-.133 1.28 1.28 0 0 1-.654-.797c-.036-.125-.037-.376-.037-6.302 0-5.828.002-6.179.035-6.302a1.33 1.33 0 0 1 .517-.752 1.05 1.05 0 0 1 .631-.204.977.977 0 0 1 .38.033c.217.06.375.148.536.3.16.15.251.294.33.513l.056.16.005 6.172c.006 6.807.015 6.308-.115 6.592a1.275 1.275 0 0 1-.824.688 1.638 1.638 0 0 1-.419.032zm4.898-.017c-.5-.096-.868-.44-.993-.928-.038-.148-.039-.29-.039-6.281 0-6.845-.013-6.257.144-6.585.147-.309.46-.567.791-.653.155-.04.439-.04.608 0 .443.104.785.445.916.91.034.125.036.4.036 6.302 0 5.829-.002 6.179-.035 6.302a1.241 1.241 0 0 1-.334.58 1.517 1.517 0 0 1-.252.21c-.254.14-.576.194-.842.143zm5.047.009a1.232 1.232 0 0 1-.71-.361 1.26 1.26 0 0 1-.334-.571c-.033-.114-.036-.46-.041-6.162-.004-4.231 0-6.098.015-6.23.038-.332.152-.584.36-.797a1.1 1.1 0 0 1 .813-.36c.265-.013.403.016.645.135.28.137.484.375.603.704l.053.146.01 1.814c.007.997.01 3.788.01 6.201l-.001 4.389-.043.156c-.176.635-.755 1.027-1.38.936z"/><path fill="#8c8c8c" d="M7.865 31.948c-.98-.213-1.381-.346-1.984-.657a6.128 6.128 0 0 1-2.689-2.688c-.328-.647-.509-1.214-.632-1.989l-.044-.275-.01-9.417-.011-9.418-.742-.011C.933 7.48.916 7.478.64 7.333a1.434 1.434 0 0 1-.497-.497c-.31-.615-.087-1.36.5-1.665.087-.045.228-.1.314-.123.153-.04.212-.04 3.345-.045L7.49 5l.009-.752c.007-.58.017-.804.044-.982.145-.944.567-1.75 1.213-2.317.593-.52 1.358-.843 2.202-.928.132-.013 1.148-.02 2.815-.02 2.24 0 2.646.004 2.878.03 1.588.186 2.822 1.249 3.218 2.774.105.403.114.503.126 1.37l.012.817 3.216.007c3.546.008 3.322 0 3.601.133.15.072.354.255.46.415.042.063.107.195.146.294.066.17.07.194.07.421-.001.209-.008.258-.053.376-.076.2-.17.345-.327.506a1.179 1.179 0 0 1-.56.32c-.106.027-1.328.03-10.835.03H5.009l.006 9.343c.006 8.766.008 9.353.04 9.512.09.443.173.698.338 1.042.192.403.38.667.707.993.334.333.558.497.943.69.447.224.902.355 1.395.402.16.015 1.808.02 5.468.014l5.24-.007.23-.044c.83-.159 1.466-.488 2.024-1.046.563-.562.876-1.171 1.047-2.034l.043-.22.011-7.544c.01-7.113.013-7.55.046-7.66.14-.468.46-.782.912-.897.636-.163 1.28.208 1.5.863.036.106.038.378.044 7.534.006 7.53.004 7.741-.067 8.215a6.24 6.24 0 0 1-1.772 3.527 6.139 6.139 0 0 1-1.617 1.157c-.548.274-.99.422-1.72.576l-.43.09-5.656-.002-5.656-.002-.22-.048zM17.5 4.484c.028-.992-.04-1.292-.368-1.62a1.205 1.205 0 0 0-.482-.302l-.13-.047h-2.755c-2.213 0-2.775.005-2.856.026-.313.083-.624.326-.747.586-.106.222-.15.603-.172 1.487l-.01.376h7.506ZM8.58 26.988c-.497-.073-.886-.415-1.042-.92-.032-.102-.035-.524-.04-6.19-.004-3.928 0-6.135.013-6.232.068-.517.38-.925.83-1.083.172-.06.494-.075.684-.03.366.085.676.33.832.654.153.32.142-.246.136 6.625l-.005 6.167-.057.16a1.281 1.281 0 0 1-.522.675 1.295 1.295 0 0 1-.83.174zm5.024.003a1.21 1.21 0 0 1-.448-.146 1.24 1.24 0 0 1-.59-.7L12.513 26V13.536l.056-.163a1.28 1.28 0 0 1 .646-.749c.192-.092.318-.12.537-.12.206 0 .358.037.565.14.366.18.587.486.661.916.027.156.03.896.025 6.278-.005 5.802-.007 6.107-.041 6.22-.135.45-.48.8-.888.901a1.326 1.326 0 0 1-.469.032zm4.98-.002c-.51-.078-.894-.42-1.045-.93-.034-.114-.036-.419-.042-5.53-.003-2.976.002-5.776.011-6.222l.017-.812.056-.15c.08-.218.171-.357.336-.513.16-.151.327-.245.536-.299a1.52 1.52 0 0 1 .682.028c.377.121.667.41.796.793l.055.162.005 6.177c.006 6.753.014 6.308-.11 6.578-.231.503-.766.8-1.297.718z"/><path fill="#767676" d="M7.644 31.898a7.09 7.09 0 0 1-1.202-.352 6.2 6.2 0 0 1-3.249-2.94c-.322-.63-.522-1.273-.642-2.056-.033-.217-.036-.8-.046-9.638l-.01-9.408-.732-.01c-.728-.01-.732-.011-.891-.065-.633-.213-.978-.806-.842-1.447.076-.357.325-.674.653-.832.31-.148.087-.14 3.628-.14h3.178l.011-.757c.011-.79.023-.928.107-1.307a3.58 3.58 0 0 1 .298-.856A3.515 3.515 0 0 1 9.263.577C9.742.279 10.37.077 10.99.02c.302-.027 5.257-.026 5.55.001 1.632.153 2.919 1.222 3.317 2.754.119.454.125.52.138 1.403l.011.822 3.266.01c3.597.012 3.294 0 3.57.133.174.083.398.315.505.522.246.479.209.924-.115 1.351-.174.23-.381.369-.659.44-.148.038-.337.038-10.858.038H5.01v9.243c0 6.32.007 9.297.021 9.413.225 1.815 1.554 3.126 3.37 3.324.132.014 1.863.021 5.356.021 3.492 0 5.224-.007 5.355-.02.912-.1 1.73-.493 2.34-1.125a3.656 3.656 0 0 0 .92-1.654c.13-.508.118.234.13-8.091.012-7.219.014-7.56.048-7.674.163-.538.596-.891 1.135-.925a1.25 1.25 0 0 1 1.276.915c.035.125.037.416.037 7.674 0 8.02.003 7.705-.093 8.245a6.212 6.212 0 0 1-3.374 4.5c-.573.281-.98.417-1.705.568l-.443.092-5.649-.002-5.648-.002Zm9.863-27.615c-.01-.786-.025-.89-.159-1.143a1.377 1.377 0 0 0-.517-.502c-.282-.138-.141-.132-3.085-.132s-2.803-.006-3.086.132a1.29 1.29 0 0 0-.488.464c-.11.206-.157.597-.183 1.502l-.01.386h7.539Zm-9.111 22.66a1.174 1.174 0 0 1-.534-.324 1.278 1.278 0 0 1-.323-.56c-.033-.114-.035-.46-.04-6.162-.005-4.231 0-6.098.015-6.23.038-.336.153-.587.367-.804a1.14 1.14 0 0 1 .8-.355 1.233 1.233 0 0 1 1.287 1.002c.027.136.03.854.03 6.251 0 6.783.012 6.23-.14 6.547-.065.135-.113.2-.246.331-.258.255-.497.353-.865.35-.147 0-.241-.012-.351-.045zm5.05.016a1.236 1.236 0 0 1-.878-.82l-.055-.16-.006-6.122c-.004-4.573 0-6.16.017-6.271.098-.632.603-1.082 1.213-1.082.477 0 .91.26 1.108.663.045.092.098.222.118.288.033.114.035.466.04 6.172.004 3.783-.001 6.116-.013 6.225-.06.544-.421.979-.917 1.107-.154.04-.479.04-.627 0zm4.978-.006a1.246 1.246 0 0 1-.886-.916c-.033-.131-.035-.462-.032-6.28.004-6.063.005-6.143.044-6.294.121-.465.476-.827.91-.93.399-.093.84.025 1.137.305.164.154.256.296.334.517l.056.16.006 6.172c.005 5.66.003 6.184-.028 6.322a1.233 1.233 0 0 1-.899.95 1.588 1.588 0 0 1-.642-.006z"/><path fill="#606060" d="M7.664 31.9c-.547-.12-.748-.176-1.092-.305-1.759-.658-3.12-2.044-3.717-3.786a7.02 7.02 0 0 1-.304-1.28c-.033-.215-.035-.824-.041-9.63l-.006-9.402-.736-.007c-.703-.007-.742-.01-.876-.053a1.374 1.374 0 0 1-.517-.303 1.146 1.146 0 0 1-.31-.485 1.44 1.44 0 0 1-.01-.768c.1-.317.332-.586.63-.728.32-.153.084-.143 3.63-.143h3.174l.01-.747c.013-.773.031-.998.114-1.35.244-1.035.867-1.89 1.743-2.391A4.05 4.05 0 0 1 11.031.02c.18-.015 1.081-.02 2.905-.015 2.889.008 2.752.003 3.237.126a3.66 3.66 0 0 1 2.684 2.643c.117.439.126.535.135 1.42l.009.816h3.21c3.109 0 3.217 0 3.363.038.233.06.386.147.55.312.17.173.31.434.36.672.119.568-.243 1.189-.815 1.398l-.15.054-10.76.01L5 7.504v9.217c0 9.92-.006 9.353.103 9.847a3.669 3.669 0 0 0 2.707 2.799c.532.136.182.128 5.928.128 3.549 0 5.262-.006 5.394-.021a3.953 3.953 0 0 0 1.915-.754c.18-.138.48-.432.628-.617.44-.547.726-1.253.807-1.998.014-.133.021-2.501.021-7.505 0-4.936.007-7.364.02-7.476a1.27 1.27 0 0 1 .363-.76c.22-.22.486-.339.8-.358a1.25 1.25 0 0 1 1.256.86l.056.165v7.574c0 7.218-.002 7.587-.037 7.855a6.227 6.227 0 0 1-.614 2.064 6.194 6.194 0 0 1-3.146 2.97c-.435.186-.83.301-1.48.435l-.347.071-5.634-.002-5.634-.002-.44-.096zm9.843-27.627c-.008-.578-.016-.74-.042-.836a1.271 1.271 0 0 0-.79-.87l-.134-.052-2.725-.006c-3.036-.006-2.872-.013-3.161.131a1.213 1.213 0 0 0-.498.493c-.103.221-.144.572-.168 1.43l-.012.427h7.54ZM8.446 26.958c-.43-.104-.768-.439-.905-.9-.034-.113-.036-.42-.042-6.12-.004-3.831 0-6.082.013-6.223.034-.38.156-.645.403-.878.311-.294.718-.4 1.13-.294.222.057.395.149.549.292.156.145.263.315.34.54l.055.16.005 6.142c.006 6.869.018 6.309-.14 6.632a1.255 1.255 0 0 1-.792.65 1.63 1.63 0 0 1-.616 0zm5 .001a1.314 1.314 0 0 1-.544-.303 1.19 1.19 0 0 1-.332-.517l-.057-.16v-6.202c0-5.957.002-6.207.037-6.332.02-.071.072-.197.115-.28.316-.61 1.034-.833 1.663-.518.316.158.546.46.633.833.035.149.037.42.037 6.267 0 4.97-.005 6.136-.026 6.242a1.714 1.714 0 0 1-.117.318c-.16.33-.444.563-.798.653-.15.038-.465.038-.612 0zm5.003.001a1.229 1.229 0 0 1-.808-.66c-.14-.295-.129.27-.128-6.535 0-6.053 0-6.156.04-6.308.172-.676.827-1.08 1.483-.916.261.066.407.146.585.324.122.121.172.19.235.322.154.322.143-.24.137 6.63l-.006 6.162-.056.16a1.247 1.247 0 0 1-.751.786c-.112.043-.174.053-.375.058a1.396 1.396 0 0 1-.356-.023z"/><path fill="#494949" d="M7.845 31.938c-.835-.183-1.145-.276-1.613-.483a6.192 6.192 0 0 1-3.478-3.969 7.53 7.53 0 0 1-.203-.966c-.032-.226-.035-.829-.04-9.633l-.007-9.393h-.659c-.485 0-.698-.007-.808-.028C.515 7.366.132 7 .031 6.508a1.118 1.118 0 0 1 0-.512c.09-.44.39-.768.84-.922l.16-.054 3.237-.01L7.504 5l.012-.822c.012-.874.02-.966.128-1.38a3.97 3.97 0 0 1 .567-1.235c.189-.27.62-.694.887-.876a3.985 3.985 0 0 1 1.653-.64c.2-.031.462-.035 2.834-.042 1.783-.005 2.701 0 2.886.015 1.593.13 2.838 1.08 3.317 2.534.172.522.209.836.21 1.76v.696h3.2c3.547 0 3.346-.007 3.632.133.503.245.8.943.62 1.46a1.3 1.3 0 0 1-.845.848c-.097.03-.941.034-10.856.043L5 7.504v9.248c0 8.803.002 9.258.036 9.477.02.127.058.316.084.421.39 1.555 1.616 2.624 3.236 2.824.114.014 1.875.021 5.394.021 5.615 0 5.413.004 5.854-.099a4.244 4.244 0 0 0 1.336-.596c.248-.176.694-.622.866-.868.316-.448.52-.945.65-1.583.033-.159.036-.665.046-7.724.01-7.125.013-7.56.047-7.674.07-.24.17-.41.343-.583.188-.189.367-.286.617-.338.195-.04.299-.04.492 0 .471.098.818.423.96.9.035.115.037.47.043 7.425.006 7.404.003 7.8-.067 8.265a6.251 6.251 0 0 1-1.408 3.156 7.722 7.722 0 0 1-.881.858 6.355 6.355 0 0 1-2.169 1.115c-.13.038-.434.11-.674.16l-.438.091-5.63-.002-5.63-.003Zm9.662-27.665c-.006-.45-.02-.753-.034-.816a1.797 1.797 0 0 0-.105-.27 1.245 1.245 0 0 0-.8-.65c-.158-.035-2.354-.051-4.325-.032-1.24.012-1.297.014-1.403.054a1.203 1.203 0 0 0-.45.27c-.296.276-.356.495-.391 1.437-.01.282-.02.56-.02.618v.106h7.538Zm-9.071 22.68a1.236 1.236 0 0 1-.897-.922c-.03-.121-.032-.637-.03-6.274.004-6.03.004-6.144.043-6.294.14-.546.58-.923 1.114-.953a1.239 1.239 0 0 1 1.287.935c.034.123.036.474.036 6.322v6.192l-.055.16a1.277 1.277 0 0 1-.34.543c-.15.14-.39.27-.573.307a1.57 1.57 0 0 1-.585-.016zm4.993-.002c-.22-.06-.375-.15-.55-.322a.983.983 0 0 1-.235-.322c-.153-.318-.142.217-.136-6.61.005-5.804.007-6.128.041-6.242.132-.443.426-.764.817-.892.126-.042.186-.05.39-.048.205.002.262.01.387.054.417.148.692.444.809.87l.042.157.008 5.37c.005 2.953 0 5.748-.01 6.211-.02.928-.02.917-.164 1.19-.13.243-.396.468-.664.563a1.523 1.523 0 0 1-.735.021zm5.025.008a1.245 1.245 0 0 1-.902-.902c-.039-.152-.04-.249-.039-6.288 0-6.821-.012-6.263.141-6.579.11-.226.324-.447.535-.552.308-.152.642-.173.971-.06.316.11.552.317.696.612.153.315.141-.227.141 6.571 0 6.782.011 6.23-.14 6.546a1.259 1.259 0 0 1-.806.654 1.594 1.594 0 0 1-.597-.002z"/><path fill="#333" d="m7.955 31.96-.491-.11c-2.618-.57-4.533-2.628-4.898-5.26-.058-.421-.061-.88-.061-9.88V7.497l-.727-.008C.965 7.479.937 7.476.66 7.332a1.17 1.17 0 0 1-.592-.69c-.047-.137-.054-.192-.054-.39a.99.99 0 0 1 .053-.39c.128-.392.437-.679.865-.806.112-.034.323-.037 3.346-.046L7.504 5l.012-.822c.012-.885.018-.945.139-1.41A3.668 3.668 0 0 1 9.058.717a4.17 4.17 0 0 1 1.251-.574c.541-.14.69-.146 3.657-.137 2.812.009 2.71.005 3.206.128a3.666 3.666 0 0 1 2.693 2.683c.108.43.117.527.127 1.387l.01.807H23.2c2.737 0 3.22.005 3.34.03.542.114.954.634.958 1.212.002.328-.11.595-.363.864a.917.917 0 0 1-.312.238c-.309.153.742.14-11.139.14H4.99v9.114c0 6.11.007 9.2.021 9.373.138 1.718 1.286 3.06 2.927 3.421.477.105.242.101 5.829.1 4.827 0 5.237-.003 5.458-.035 1.676-.242 2.897-1.404 3.223-3.067l.043-.22.011-7.545.011-7.544.045-.157c.06-.211.152-.378.292-.528.152-.162.303-.26.514-.334a.895.895 0 0 1 .391-.06c.188 0 .244.008.38.055.206.07.36.164.5.305.233.233.328.462.356.86.029.415.01 14.901-.02 15.137-.091.714-.24 1.283-.484 1.854a6.239 6.239 0 0 1-2.996 3.135c-.533.258-.975.402-1.69.55l-.445.092-5.625-.002c-5.298-.002-5.634-.004-5.775-.037Zm9.547-27.682c-.001-.805-.007-.848-.143-1.12a1.414 1.414 0 0 0-.529-.527c-.252-.124-.232-.123-2.032-.136a151.01 151.01 0 0 0-2.746.005c-1.072.017-1.105.019-1.232.063-.393.138-.67.443-.748.824-.042.205-.069.559-.085 1.137l-.013.486 3.764-.005L17.503 5l-.001-.722zM8.44 26.95a1.196 1.196 0 0 1-.783-.622c-.156-.32-.143.294-.143-6.562 0-6.06 0-6.156.04-6.308.119-.467.486-.83.932-.924a1.23 1.23 0 0 1 .83.112c.312.154.534.433.636.8.035.124.037.398.037 6.301 0 5.829-.002 6.179-.036 6.302-.123.456-.465.8-.905.911a1.414 1.414 0 0 1-.608-.01zm5.015.01a1.292 1.292 0 0 1-.904-.881c-.035-.115-.037-.388-.043-6.202-.004-4.288 0-6.13.016-6.248.056-.435.298-.797.653-.979a.997.997 0 0 1 .579-.134c.18.001.25.01.382.054.378.124.645.39.785.779l.053.146.015 4.81c.008 2.644.01 5.44.003 6.211-.01 1.274-.015 1.416-.048 1.55-.1.395-.412.736-.79.863-.18.06-.522.076-.7.03zm4.987-.01a1.226 1.226 0 0 1-.812-.673c-.126-.265-.118.188-.113-6.575l.006-6.166.047-.14c.18-.543.641-.892 1.175-.892.416 0 .855.243 1.057.583.042.07.1.2.13.288l.055.16.006 6.142c.006 6.869.018 6.309-.14 6.632a1.25 1.25 0 0 1-.807.651 1.417 1.417 0 0 1-.604-.01z"/></svg>