<svg xmlns="http://www.w3.org/2000/svg" width="17.193" height="20" version="1.0" viewBox="0 0 1372 1596"><path d="M178.8 1c-19.8 3.4-38.1 16.5-46.1 33-7.6 15.6-7.1 8-7.3 119.5-.1 108.8.2 102.9-5.6 108.1-1.2 1.2-8.2 5.2-15.5 8.8-53.6 27.1-87 69-97.7 122.6-5.8 29-8 92.1-5.6 161 1.5 43.3 6.1 65.1 19.4 92 16.8 33.8 44.5 61.4 81.2 80.6 15 7.9 19.1 10.8 21.7 15.7l2.2 4.2v396c0 365.4.1 396.5 1.7 402.5 2.7 10.7 5.7 17.7 11 25.6 6 8.9 14.2 15.9 25.3 21.4l8.1 4h16.1c14.2 0 16.6-.2 20.9-2.1 17.1-7.6 30-20.7 36.1-36.7 5.9-15.8 5.5 14.7 5.3-414.8-.1-284.9.1-394.2.9-397.2 1.6-5.8 5.9-9.6 17.5-15.4 42-20.9 71.3-49.3 88.1-85.3 12.3-26.2 16.3-49.7 18.6-109 1.4-35.7-.1-108.2-2.6-125.3-9.2-63.6-42.4-109.3-102.1-140.3-11.7-6.1-16.5-9.5-18.7-13.4-.9-1.5-1.3-28.6-1.7-102l-.6-100-2.3-8c-3.4-12-8.5-21-16.2-28.6-13.4-13.4-33.8-20-52.1-16.9zm24 375.5c16.7 3.9 32.6 16.9 40.2 32.6 7 14.6 7 14.2 7 90.4 0 76.1 0 76-6.9 90-15.1 30.6-51.6 42.9-82.9 27.9-10.7-5.1-22.4-16.8-27.5-27.4-7.2-15-7.1-13.4-7.1-91 0-62.9.1-70.1 1.7-76 7.9-29.4 30.7-47.7 59.7-47.9 5.2 0 12.3.6 15.8 1.4zM676.1 1.1c-23.3 4.1-42.8 22.3-49.8 46.4-1.7 5.7-1.8 27.8-1.8 416.5l-.1 410.5-2.1 4.6c-2.5 5.6-5.4 7.9-20.5 15.7-22.2 11.5-37.2 22.6-53.4 39.4-20.3 21.1-33.7 45.3-40.7 73.3-4.4 17.4-5.9 30.4-7.8 66-1.3 25.1-.6 112.7 1.1 129.6 6.9 67.9 41.6 117.7 104.5 149.9 12 6.2 15.7 8.7 17.8 12.5.8 1.4 1.2 26.2 1.3 89 .1 85 .2 87.2 2.2 94.8 5.4 19.9 18.3 35 37.6 43.7 6.4 2.9 6.9 3 22.5 3 17.9 0 19.7-.5 32.5-8.7 15.5-10 24.7-24.2 28.7-44.3.7-3.7 1-32.1.9-89.1-.1-90.4-.3-87.7 5.1-92.9 1.3-1.2 6.5-4.2 11.4-6.5 22.6-10.9 40.8-23.7 57.5-40.5 14-14 22.2-25.4 30.6-42.5 14.2-29 18.1-50.6 20.5-112.5 1.3-33.8-.2-106.7-2.5-124.1-5.8-42.8-22.8-77.4-51.7-105.4-16.1-15.5-28-24-50.9-36-11.1-5.8-14-7.8-16.5-11.4l-3-4.3-.5-413.6c-.5-398.8-.6-413.9-2.3-419.2-7.2-21.4-23.5-37.3-43.5-42.4-7.9-2.1-20.1-2.8-27.1-1.5zm25.9 999.1c23.1 5.6 41.4 25.6 45.9 50.2.7 3.9 1.1 28.8 1.1 72.8 0 74.3-.1 76-6.5 89.3-7.3 15.2-20.7 26.9-36.7 32.1-10.3 3.3-24.6 3.7-34.8 1-16.4-4.4-32.1-17.1-39.2-31.6-7.5-15.5-7.3-12.2-7.3-90.5 0-78.7-.3-75.2 7.7-91.5 12.3-25.3 41.6-38.6 69.8-31.8zM1175.5 1c-19 3.8-37.6 17.2-45 32.4-7.3 15-6.9 7.9-7.5 120.6-.4 79.1-.8 102-1.8 103.7-1.8 3.2-6.5 6.4-16.8 11.5-22.5 11.1-37.9 22.1-54.9 39.2-20.9 21-34.4 44-41.9 71.7-5 18.3-7 34.5-8.7 70.4-1.5 32.4-.4 120.5 1.7 135.9 16.3 117 133.6 190.1 244.8 152.5 28.3-9.6 53.3-25.5 74.1-47 22.1-22.9 37.7-50.3 46.1-80.7 6.3-23.1 6.4-24.7 6.4-110.4 0-48-.4-80.6-1.1-85.8-5.7-46.6-26-86.7-58.2-115.1-12.1-10.6-31-23.1-47.7-31.6-11.4-5.8-13.8-7.4-15.2-10.3-1.7-3.3-1.8-10.2-1.8-102.3 0-106.9 0-106.9-5.4-119.1-7.2-16-25.6-30.8-43.9-35.1-6.6-1.6-16.7-1.8-23.2-.5zm25 375.5c11.1 2.8 20.3 8.1 28.6 16.4 8.3 8.4 11.7 13.8 15.7 25.1l2.7 7.5.3 70c.3 79 .3 79.3-7 94.4-12.7 26.4-45.1 40.1-73.8 31.2-17.9-5.6-33-20.3-39.6-38.6-4.2-11.4-4.6-20.6-4.1-90 .3-58.2.5-65.6 2.1-70.9 6.7-22.7 23-39.2 44.6-45 7.3-1.9 23-2 30.5-.1zM1178.5 874c-14.7 2.3-27 8.4-37.2 18.6-7.9 7.8-12.7 16.3-16 28.4-1.7 6.2-1.8 22.4-1.8 312v305.5l2.2 8.7c5.5 21.5 17.2 36 36.8 45.4l6.9 3.4h32.4l9.3-4.7c19.8-9.8 32-27 35.9-50.9.7-3.8 1-114.2 1-307.7 0-329.4.3-309.5-5.8-322.8-5.6-12.3-16.6-24-28.2-29.9-9.5-4.8-25.6-7.6-35.5-6z"/></svg>