<svg xmlns="http://www.w3.org/2000/svg" width="108" height="107.988" viewBox="0 0 28.575 28.572"><g fill="#fff"><path d="m8.113 28.227-.034-.04.04.034c.038.032.049.047.035.047a.199.199 0 0 1-.04-.04zm.02-1.57a.141.141 0 0 1 .041-.036c.005 0-.005.016-.023.036a.141.141 0 0 1-.042.036c-.004 0 .006-.016.024-.036zm-1.507-2.553a.102.102 0 0 1 .053 0c.012.005-.002.01-.031.009-.03 0-.04-.005-.022-.01zm13.035-.001c.101-.003.266-.003.367 0 .1.003.018.006-.183.006-.202 0-.285-.003-.184-.006zM9.354 21.866c.081-.003.214-.003.295 0 .082.003.015.006-.147.006-.163 0-.229-.003-.148-.006zm9.62 0a5.1 5.1 0 0 1 .303 0c.081.003.01.006-.157.006s-.233-.003-.147-.006zm4.184-4.46c0-.025.004-.035.009-.022a.07.07 0 0 1 0 .044c-.005.013-.01.003-.01-.022zm-7.43-.973c0-.004.015-.018.032-.031.029-.023.03-.022.007.006-.023.03-.038.04-.038.025zm-1.605-6.108a.102.102 0 0 1 .054.001c.012.005-.002.009-.032.008-.03 0-.04-.004-.022-.009zm.466 0a.102.102 0 0 1 .053.001c.012.005-.002.009-.031.008-.03 0-.04-.004-.022-.009zM16.577.957l-.034-.04.04.034c.023.018.04.036.04.04 0 .014-.014.004-.046-.034zm4.184 26.488c0-.035.004-.049.009-.032a.147.147 0 0 1 0 .063c-.005.017-.009.003-.009-.031zM7.055 24.103c.204-.003.538-.003.742 0 .205.003.037.005-.37.005-.41 0-.576-.002-.372-.005zm11.354 0c.199-.003.525-.003.724 0 .2.003.037.005-.362.005-.399 0-.562-.002-.362-.005zM8.37 21.866c.16-.003.418-.003.573 0 .154.003.023.005-.292.005s-.441-.002-.28-.005zm11.326 0c.16-.003.422-.003.582 0 .16.003.029.005-.291.005s-.451-.002-.291-.005zm-2-3.447c0-.004.014-.018.032-.031.028-.022.029-.022.006.007-.023.03-.038.039-.038.024zM5.3 17.406c0-.025.005-.035.01-.022a.07.07 0 0 1 0 .044c-.005.013-.01.003-.01-.022zm3.685-4.377c.001-.02.005-.025.011-.01.005.012.005.028-.001.034-.006.006-.01-.005-.01-.024zm5.077-2.703c.013-.006.029-.005.035 0 .006.007-.005.011-.024.01-.02 0-.025-.005-.01-.01zm.608 0a.07.07 0 0 1 .044 0c.013.005.003.009-.022.009-.025 0-.035-.004-.022-.01zm11.655-2.307c0-.02.005-.025.01-.01.006.012.005.028 0 .033-.007.006-.011-.004-.01-.023zM6.922 3.812c.013-.005.028-.004.034.001.006.006-.005.01-.024.01-.02-.001-.025-.005-.01-.01zm10.651-.32c.001-.021.006-.025.011-.011.005.013.005.028-.001.034-.006.006-.01-.004-.01-.023zM6.44 1.557c.012-.005.028-.004.034.002.006.006-.005.01-.024.01-.02-.002-.025-.006-.01-.012zm15.55-.017c.012-.006.028-.005.034 0 .006.007-.005.011-.024.01-.02 0-.025-.005-.01-.01zm-10.18-.53c0-.004.026-.03.058-.059L11.926.9l-.052.058c-.05.054-.064.066-.064.052zM8.477 24.103c.18-.003.474-.003.653 0 .18.003.033.005-.326.005-.36 0-.506-.002-.327-.005zm8.339 0c.229-.003.603-.003.832 0 .229.003.042.005-.416.005-.458 0-.645-.002-.416-.005zm9.739-1.91a.212.212 0 0 1 .05-.045c.006 0-.01.02-.032.045a.212.212 0 0 1-.051.044c-.005 0 .01-.02.033-.044zm.125-.126a.212.212 0 0 1 .051-.044c.005 0-.01.02-.033.044a.212.212 0 0 1-.051.045c-.005 0 .01-.02.033-.045zM1.823 22.01c-.022-.028-.022-.029.007-.007.03.024.039.038.024.038a.124.124 0 0 1-.031-.03zm5.831-.143c.081-.003.214-.003.295 0 .082.003.015.006-.147.006-.163 0-.229-.003-.148-.006zm13.045 0c.081-.003.214-.003.295 0 .081.003.015.006-.147.006-.163 0-.23-.003-.148-.006zM3.533 20.57l-.053-.058.059.052c.054.05.066.064.052.064a.447.447 0 0 1-.058-.058zm12.212-2.174c-.023-.029-.022-.03.006-.007.03.023.04.038.025.038-.004 0-.018-.014-.031-.031zm-13.52-5.561c0-.079.003-.109.007-.067a.894.894 0 0 1 0 .143c-.004.037-.007.003-.007-.076zm17.353.016c0-.02.005-.025.01-.01.006.012.005.028-.001.034-.006.006-.01-.005-.01-.024zm6.764-.018c0-.02.005-.025.01-.01.006.013.005.028-.001.034-.006.006-.01-.005-.01-.024zm-14.389-1.677c0-.003.026-.029.058-.058l.059-.052-.053.058c-.049.054-.064.066-.064.052zm2.055-.83c.013-.005.028-.004.034.002.006.006-.005.01-.023.01-.021-.002-.026-.006-.011-.011zm-2.154-4.608-.053-.059.058.053a.447.447 0 0 1 .058.058c0 .014-.014.002-.063-.052zm4.725.004a.141.141 0 0 1 .041-.036c.005 0-.005.016-.023.036a.141.141 0 0 1-.042.036c-.004 0 .006-.016.024-.036zm8.454-.622-.062-.067.067.062c.063.057.076.072.062.072a.609.609 0 0 1-.067-.067zm1.54-1.592-.099-.103.103.098c.096.09.111.108.098.108a1.42 1.42 0 0 1-.103-.103zM13.12 3.35c0-.03.004-.04.009-.022a.102.102 0 0 1 0 .054c-.006.012-.01-.002-.01-.032zM6.492 1.557c.013-.005.029-.004.035.002.005.006-.005.01-.024.01-.02-.002-.025-.006-.01-.012zm14.976-.017a.07.07 0 0 1 .045 0c.013.005.002.009-.022.009-.025 0-.035-.004-.023-.01zm.467 0c.013-.006.028-.005.034 0 .006.007-.004.011-.023.01-.021 0-.025-.005-.011-.01zm-1.502 25.14c-.022-.029-.022-.03.007-.007.017.013.03.027.03.031 0 .015-.014.005-.037-.024zm-10.408-2.577c.322-.003.85-.003 1.172 0 .323.003.059.005-.586.005-.644 0-.908-.002-.586-.005zm5.145 0c.229-.003.603-.003.832 0 .229.003.041.005-.416.005-.458 0-.645-.002-.416-.005zm-8.088-2.237c.08-.003.214-.003.295 0 .081.003.015.006-.148.006-.162 0-.229-.003-.147-.006zm14.2 0c.086-.003.223-.003.304 0 .08.003.01.006-.158.006-.167 0-.233-.003-.147-.006zm7.278-4.274c.001-.02.006-.025.011-.01.005.012.005.028-.001.034-.006.006-.01-.005-.01-.024zm-10.432-.143c.001-.02.005-.025.011-.01.005.012.004.028-.001.034-.006.006-.01-.005-.01-.024zm2.63-1.016c0-.004.013-.018.03-.031.029-.023.03-.022.007.006-.023.03-.038.04-.038.025zM2.227 13.71c0-.414.001-.58.004-.37.003.21.003.548 0 .751-.003.204-.005.032-.005-.381zm24.12-.358c0-.276.002-.386.006-.245.003.14.003.366 0 .501-.004.135-.006.02-.006-.256zm-17.054.434-.034-.04.04.034c.038.032.049.046.035.046a.199.199 0 0 1-.04-.04zm17.054-1.49c0-.285.003-.4.006-.254.003.146.003.38 0 .52-.004.139-.006.02-.006-.266zM2.226 12.09c0-.34.002-.478.005-.308.003.17.003.447 0 .617-.003.17-.005.03-.005-.309zm15.35-8.75c0-.054.004-.076.008-.05a.395.395 0 0 1 0 .1c-.004.026-.008.004-.008-.05zM6.546 1.557c.013-.005.028-.004.034.002.006.006-.004.01-.023.01-.021-.002-.025-.006-.011-.012zM21.54 1.54a.07.07 0 0 1 .045 0c.012.005.002.009-.023.009-.024 0-.034-.004-.022-.01zm.341 0c.013-.006.028-.005.034 0 .006.007-.004.011-.023.01-.02 0-.025-.005-.01-.01zm-2.274 24.801a.07.07 0 0 1 .045 0c.013.005.002.01-.022.01-.025 0-.035-.005-.023-.01zm-7.084-2.238a140.51 140.51 0 0 1 1.503 0c.41.002.07.005-.758.005-.826 0-1.162-.003-.745-.005zm-10.564-1.96-.071-.076.076.071a.797.797 0 0 1 .076.076c0 .014-.016 0-.081-.07zm4.676-.277c.062-.003.158-.003.215 0 .056.004.005.007-.113.007-.118 0-.164-.003-.102-.007zm15.165 0c.046-.003.123-.003.17 0 .046.004.008.007-.085.007-.094 0-.132-.003-.085-.007zm3.19-1.257a.141.141 0 0 1 .04-.036c.005 0-.005.016-.023.036a.141.141 0 0 1-.041.036c-.005 0 .005-.016.023-.036zm.089-.09a.141.141 0 0 1 .04-.035c.006 0-.005.016-.023.035a.141.141 0 0 1-.04.036c-.006 0 .005-.016.023-.036zm-13.433-1.73c.013-.005.028-.004.034.002.006.006-.005.01-.023.01-.021-.002-.026-.006-.011-.012zm.125 0c.013-.005.028-.004.034.002.006.006-.004.01-.023.01-.021-.002-.025-.006-.011-.012zm16.79-1.25c0-.021.005-.025.01-.011.005.013.005.028-.001.034-.006.006-.01-.005-.01-.023zM5.698 16.422a.141.141 0 0 1 .042-.036c.005 0-.006.016-.024.036a.141.141 0 0 1-.041.036c-.005 0 .005-.017.023-.036zm-3.472-1.298c0-.374.002-.53.005-.345.003.184.003.49 0 .68-.003.19-.005.04-.005-.335zm24.121-.527c0-.419.003-.59.006-.38.002.208.002.55 0 .76-.003.209-.006.038-.006-.38zM19.58 12.95c0-.024.004-.034.009-.022a.07.07 0 0 1 0 .045c-.005.012-.009.002-.009-.023zm6.77-1.914c0-.419.002-.59.005-.38.002.208.002.55 0 .76-.003.209-.006.038-.006-.38zM2.226 10.73c0-.418.002-.589.005-.38.003.21.003.552 0 .76-.003.21-.005.039-.005-.38zm11.557-2.64a.102.102 0 0 1 .054 0c.012.005-.002.009-.032.009s-.04-.005-.022-.01zm14.777-.142c.001-.02.006-.025.011-.01.005.012.005.028-.001.034-.006.006-.01-.005-.01-.024zM14.203 4.456a.255.255 0 0 1 .081 0c.022.004.004.008-.04.008-.045 0-.063-.004-.04-.008zm-7.389-.644c.013-.005.029-.004.035.001.006.006-.005.01-.024.01-.02-.001-.025-.005-.01-.01zM1.96 3.52a.752.752 0 0 1 .097-.09c.005 0-.03.04-.079.09a.753.753 0 0 1-.097.09c-.005 0 .03-.04.08-.09zm4.667-1.963a.319.319 0 0 1 .089 0c.022.004 0 .008-.05.008-.049 0-.067-.004-.04-.008zm.67 0a.07.07 0 0 1 .045 0c.012.006.002.01-.022.01-.025 0-.035-.004-.023-.01zm14.37-.018a.894.894 0 0 1 .143 0c.037.004.002.007-.077.007-.078 0-.108-.004-.066-.007zM8.916 26.34a.147.147 0 0 1 .062 0c.018.005.004.009-.03.009-.035 0-.05-.004-.032-.008zm8.473 0c.406-.003 1.07-.003 1.476 0 .406.002.074.004-.738.004-.812 0-1.144-.002-.738-.004zm-5.69-7.55a.07.07 0 0 1 .044 0c.012.005.002.009-.022.009-.025 0-.035-.004-.023-.01zm9.074-.395c-.022-.029-.022-.03.007-.007.03.023.039.038.024.038-.004 0-.018-.014-.031-.031zm7.789-.918c0-.024.004-.034.009-.022a.07.07 0 0 1 0 .045c-.005.012-.01.002-.01-.023zm-5.829-1.06-.052-.058.058.053c.054.049.066.063.053.063a.447.447 0 0 1-.059-.058zM2.226 16.01c0-.123.003-.173.006-.112.004.062.004.163 0 .224-.003.062-.006.011-.006-.112zm4.427.006c.013-.005.029-.005.035.001.005.006-.005.01-.024.01-.02-.001-.025-.005-.01-.011zm5.01 0c.014-.005.029-.005.035.001.006.006-.005.01-.024.01-.02-.001-.025-.005-.01-.011zm.09 0c.013-.005.028-.005.034.001.006.006-.004.01-.023.01-.021-.001-.025-.005-.01-.011zm4.957 0c.013-.005.028-.005.034.001.006.006-.005.01-.023.01-.021-.001-.026-.005-.011-.011zm.071 0c.013-.005.029-.005.035.001.006.006-.005.01-.024.01-.02-.001-.025-.005-.01-.011zm4.957 0c.013-.005.028-.005.034.001.006.006-.004.01-.023.01-.021-.001-.025-.005-.011-.011zm4.609-.498c0-.098.003-.136.006-.084.004.052.004.132 0 .179-.003.046-.006.004-.006-.095Zm0-5.413c0-.103.003-.145.006-.094a1.63 1.63 0 0 1 0 .188c-.003.052-.006.01-.006-.094zM2.226 9.747c0-.133.003-.187.006-.12.004.066.004.175 0 .241-.003.066-.006.012-.006-.12zm8.099-.114c0-.004.014-.018.031-.031.029-.022.03-.022.007.007-.023.03-.038.039-.038.024zm.161-.16c0-.005.014-.019.031-.032.029-.023.03-.022.007.007-.023.03-.038.039-.038.024zm3.477-1.385c.066-.004.171-.004.232 0 .061.003.007.006-.121.006s-.178-.003-.111-.006zM8.465 2.704c.001-.02.005-.025.011-.01.005.013.005.028-.001.034-.006.006-.01-.005-.01-.024zM6.77 1.557a.102.102 0 0 1 .053 0c.013.006-.002.01-.031.01-.03-.001-.04-.005-.022-.01zm.475 0c.013-.005.028-.004.034.002.006.006-.005.01-.023.01-.021-.002-.026-.006-.011-.012z"/><path d="M8.569 28.512c-.493-.216-.736-.568-.736-1.067 0-.381.174-.714.477-.912.172-.112.332-.161.598-.183.156-.013 1.882-.016 5.541-.009 5.244.01 5.317.011 5.455.047.7.18 1.047.91.739 1.55-.114.237-.276.389-.574.537l-.197.097H8.705l-.136-.06zm-2.36-4.434C3.64 23.87 1.47 22.292.502 19.93c-.193-.47-.313-.902-.43-1.545L0 17.995V7.657l.09-.445c.143-.705.22-.986.388-1.411a6.694 6.694 0 0 1 5.391-4.188 12.63 12.63 0 0 1 1.405-.051c.425.02.664.108.885.329.203.204.305.46.306.77 0 .218-.024.332-.11.513-.127.265-.367.46-.687.559-.131.04-.27.052-1.038.09-.642.032-.979.086-1.396.223a4.13 4.13 0 0 0-1.692 1.047A4.387 4.387 0 0 0 2.289 7.51c-.057.322-.074 2.064-.064 6.47.01 4.099.005 3.928.112 4.41.143.64.459 1.297.88 1.825a4.504 4.504 0 0 0 2.467 1.548c.512.115-.197.106 8.417.112 5.24.004 7.914 0 8.088-.012a4.38 4.38 0 0 0 1.342-.3 4.48 4.48 0 0 0 2.72-3.239c.09-.437.09-.386.1-4.094.005-1.927.002-4.145-.008-4.984-.018-1.503-.018-1.513-.063-1.762a4.456 4.456 0 0 0-3.384-3.58c-.37-.086-.523-.1-1.235-.115-.75-.015-.788-.02-1.025-.136a1.062 1.062 0 0 1-.53-.615c-.049-.138-.054-.174-.053-.368 0-.191.006-.231.053-.368a1.06 1.06 0 0 1 .753-.699c.203-.054 1.124-.069 1.58-.025 1.583.15 2.901.748 4.02 1.822 1.168 1.12 1.849 2.428 2.054 3.941.063.463.066.783.06 5.654-.007 5.264 0 4.921-.113 5.574a6.632 6.632 0 0 1-3.561 4.8 6.82 6.82 0 0 1-2.63.71c-.332.023-15.784.021-16.06 0zm.287-5.294a1.367 1.367 0 0 1-1.03-.743c-.117-.236-.142-.349-.142-.635a1.27 1.27 0 0 1 .393-.978.968.968 0 0 1 .35-.253c.226-.11.394-.149.634-.15.38 0 .686.124.955.385.19.185.32.403.39.657.043.16.043.519 0 .679a1.392 1.392 0 0 1-1.282 1.046c-.094.004-.214 0-.268-.008zm10.039-.003a1.357 1.357 0 0 1-.772-.39 1.328 1.328 0 0 1-.392-.82 1.372 1.372 0 0 1 .145-.81c.241-.466.688-.733 1.228-.734.238 0 .382.03.586.126.35.163.608.454.735.832.063.185.08.504.038.701-.06.279-.174.489-.379.696a1.344 1.344 0 0 1-1.19.399zm5.027.003a1.71 1.71 0 0 1-.5-.174 1.637 1.637 0 0 1-.515-.534 1.242 1.242 0 0 1-.155-.67c0-.264.024-.384.114-.583.17-.377.51-.656.922-.76.285-.071.654-.04.914.08.353.161.653.514.762.896.053.184.058.527.01.707-.045.169-.175.42-.287.556-.17.206-.458.388-.719.455a1.823 1.823 0 0 1-.546.027zm-10.2-.037a1.354 1.354 0 0 1-.963-.917 1.376 1.376 0 0 1 .756-1.686 1.23 1.23 0 0 1 .553-.118c.234 0 .409.038.612.136.373.18.633.493.745.895.053.192.053.49 0 .698a1.37 1.37 0 0 1-.994.993 1.73 1.73 0 0 1-.708-.001zM9.94 14.102c-.51-.079-.9-.488-.934-.981-.017-.252.08-.998.182-1.402a4.771 4.771 0 0 1 2.516-3.098 4.909 4.909 0 0 1 1.71-.502c.09-.01.472-.02.85-.021.56-.003.732.002.937.028 1.175.146 2.12.6 2.926 1.406.829.828 1.29 1.77 1.422 2.908.055.47.03.798-.08 1.038-.346.761-1.431.854-1.894.162-.15-.224-.187-.363-.236-.878a2.677 2.677 0 0 0-1.822-2.298c-.318-.104-.505-.13-.998-.14-.894-.017-1.375.063-1.864.311a2.605 2.605 0 0 0-1.282 1.491c-.083.239-.13.472-.153.77-.024.3-.056.439-.136.6a1.09 1.09 0 0 1-.67.571c-.1.03-.375.05-.474.035zm4.044-7.426a4 4 0 0 1-.588-.1c-1.81-.453-2.84-2.256-2.362-4.138.16-.63.54-1.24 1.033-1.654a3.436 3.436 0 0 1 2.86-.716c1.298.269 2.323 1.322 2.594 2.665.037.18.042.255.041.617 0 .377-.005.43-.048.635-.11.512-.3.94-.605 1.352a3.3 3.3 0 0 1-2.925 1.339zm.577-2.263c.375-.114.685-.454.768-.843a1.164 1.164 0 0 0-.163-.844 1.199 1.199 0 0 0-.648-.466 1.44 1.44 0 0 0-.552-.001 1.193 1.193 0 0 0-.678.49c-.243.398-.216.909.065 1.281.274.36.766.517 1.208.383z"/></g></svg>