<svg xmlns="http://www.w3.org/2000/svg" width="42" height="59.652" viewBox="0 0 11.113 15.783"><g fill="#b0b5d3"><path d="M1.896 13.314h.178c.05.002.012.004-.086.004-.098 0-.14-.002-.092-.003zm7.23 0h.12c.03.002.002.004-.063.004s-.09-.002-.056-.004zM4.462 12.08h2.377c.654.001.12.003-1.188.003-1.308 0-1.842-.002-1.189-.003zm-2.519-1.44.032-.032.033-.029-.03.032c-.026.03-.035.037-.035.03zm7.941-2.804c0-.084.002-.118.003-.076.002.042.002.11 0 .153-.001.042-.003.008-.003-.077zm0-1.403c0-.074.001-.104.003-.067.002.037.002.097 0 .134-.002.036-.003.006-.003-.067zm-8.66-.657c0-.017.002-.022.005-.013a.057.057 0 0 1 0 .03c-.003.007-.005-.001-.005-.017zm7.413-.188c0-.017.002-.022.005-.012a.056.056 0 0 1 0 .03c-.004.006-.006-.002-.005-.018zm-6.169-.13c0-.011.003-.013.006-.006a.027.027 0 0 1 0 .02c-.004.003-.006-.003-.006-.014zm5.226-2.126c-.012-.016-.011-.016.004-.004.017.013.022.021.014.021a.076.076 0 0 1-.018-.017zm-2.204-.87c.007-.002.015-.002.019.001.003.004-.003.006-.013.006-.012 0-.014-.003-.006-.006zm.138 0c.007-.002.016-.002.02.001.002.004-.003.006-.014.006s-.014-.003-.006-.006zM2.4 13.314h.49c.134.002.024.003-.245.003s-.379-.001-.245-.003zm5.896 0h.52c.142.002.025.003-.26.003-.286 0-.403-.001-.26-.003zM2.204 12.08c.2-.002.524-.002.721 0 .197.001.033.003-.364.003s-.558-.002-.357-.003zm6.127 0c.173-.002.454-.002.623 0 .17.001.028.003-.314.003-.343 0-.481-.002-.309-.003zm1.37-1.038c-.012-.016-.012-.016.004-.004.016.013.021.021.013.021-.002 0-.01-.007-.017-.017zm.184-3.916c0-.313.001-.44.002-.284.002.156.002.412 0 .568-.001.156-.002.028-.002-.284zm-8.649-.09c0-.225.002-.317.003-.204.002.112.002.297 0 .41-.001.113-.003.02-.003-.205zm-.012-1.319c0-.021.002-.03.005-.017a.108.108 0 0 1 0 .04c-.003.01-.005-.001-.005-.023zm7.413-.178c0-.016.002-.021.005-.012a.056.056 0 0 1 0 .03c-.004.007-.006-.001-.005-.018zm-7.413-.044c0-.02.002-.027.005-.017a.081.081 0 0 1 0 .034c-.003.01-.005.002-.005-.017zm8.647-.154c0-.012.003-.014.006-.006.003.007.002.016 0 .019-.004.003-.006-.003-.006-.013zm-4.41-2.877c.006-.003.015-.003.018 0 .003.004-.002.006-.013.006s-.014-.003-.006-.006zm.196 0a.038.038 0 0 1 .025 0c.007.003.001.005-.012.005-.014 0-.02-.002-.013-.005zM4.293 14.55a.14.14 0 0 1 .045 0c.012.003.002.005-.023.005-.024 0-.034-.002-.022-.005zm2.481 0a.14.14 0 0 1 .045 0c.012.003.002.005-.023.005-.024 0-.034-.002-.022-.005zm-3.523-1.236a6.23 6.23 0 0 1 .252 0c.069.002.012.004-.126.004-.14 0-.196-.002-.126-.004zm4.398 0c.075-.001.196-.001.267 0 .072.002.01.004-.136.004-.147 0-.206-.002-.13-.004zM.52 10.174a.216.216 0 0 1 .039-.035c.002 0-.01.016-.029.035a.216.216 0 0 1-.038.034c-.003 0 .01-.015.028-.034zm.715-2.644c0-.052.002-.073.004-.047a.723.723 0 0 1 0 .094c-.002.026-.004.005-.004-.047zm0-.964c0-.038.002-.052.004-.032a.37.37 0 0 1 0 .07c-.002.017-.004 0-.004-.038zm-.01-.929c0-.027.002-.037.004-.022a.177.177 0 0 1 0 .05c-.003.012-.004 0-.004-.028zm-.002-.094c0-.013.003-.019.005-.012a.038.038 0 0 1 0 .025c-.002.006-.005 0-.005-.013zm7.45-2.982c-.012-.016-.012-.016.004-.004.016.013.021.021.013.021-.002 0-.01-.008-.017-.017z"/><path d="M4.382 14.55a.315.315 0 0 1 .064 0c.018.002.004.004-.032.004-.035 0-.05-.002-.032-.004zm2.283 0a.315.315 0 0 1 .065 0c.017.002.003.004-.033.004-.035 0-.05-.002-.032-.004zm-2.708-1.236h.677c.186.002.034.003-.338.003-.373 0-.525-.001-.339-.003zm2.55 0h.677c.186.002.034.003-.338.003-.373 0-.525-.001-.339-.003zM2.458 9.402c0-.011.003-.014.006-.006.003.007.003.016 0 .02-.004.002-.006-.003-.006-.014zM1.235 7.698c0-.046.002-.065.004-.042a.566.566 0 0 1 0 .084c-.002.023-.004.004-.004-.042zm0-1.236c0-.024.001-.034.004-.022a.14.14 0 0 1 0 .045c-.003.012-.005.002-.005-.023zm-.012-.885c0-.011.002-.014.006-.006.002.007.002.016-.001.019-.003.003-.006-.003-.005-.013zm7.42-3.046c-.012-.015-.012-.016.004-.004.01.008.017.016.017.018 0 .008-.008.003-.02-.014zm-.064-.064-.018-.022.022.019a.11.11 0 0 1 .022.022c0 .008-.008.002-.026-.02z"/><path d="M3.88 15.598c-.013-.016-.013-.016.003-.004.01.007.017.015.017.017 0 .008-.008.003-.02-.013zm3.331.013c0-.002.008-.01.018-.017.015-.012.016-.012.003.004-.012.016-.02.021-.02.013zM4.526 14.55a.99.99 0 0 1 .109 0c.028.002.002.004-.058.004-.06 0-.083-.002-.051-.004zm1.957 0a.99.99 0 0 1 .109 0c.028.002.002.004-.058.004-.06 0-.083-.002-.051-.004zm-1.216-1.236h.608c.167.002.03.003-.304.003-.335 0-.471-.001-.304-.003zM1.224 11.46c0-.017.002-.022.005-.012a.057.057 0 0 1 0 .03c-.003.006-.005-.002-.005-.018zm9.357-1.288-.024-.027.027.024c.026.023.032.03.024.03a.171.171 0 0 1-.027-.027zm-.519-.4-.019-.022.022.019c.021.017.027.025.02.025a.11.11 0 0 1-.023-.022zM2.46 9.344c0-.028.002-.038.004-.022a.177.177 0 0 1 0 .049c-.002.012-.004 0-.004-.027zM1.236 7.93c0-.087.001-.121.003-.076s.002.116 0 .158c-.002.042-.003.005-.003-.082zm0-1.591c0-.049 0-.07.003-.047a.642.642 0 0 1 0 .089c-.002.026-.004.007-.004-.042zm7.4-.88c0-.012.002-.014.005-.007.003.008.003.016 0 .02-.004.003-.006-.003-.006-.014zm1.236-.044c0-.014.002-.02.005-.013a.038.038 0 0 1 0 .025c-.003.007-.005.001-.005-.012zM8.614 2.502c-.013-.016-.012-.016.003-.004.017.013.022.02.014.02-.002 0-.01-.007-.017-.016zM4.708 14.55a.315.315 0 0 1 .065 0c.017.002.003.004-.033.004-.035 0-.05-.002-.032-.004zm1.631 0a.315.315 0 0 1 .064 0c.018.002.004.004-.032.004-.035 0-.05-.002-.032-.004zm2.848-3.894c-.012-.016-.012-.016.004-.004.01.007.017.015.017.017 0 .008-.008.003-.021-.013zm-.08-.08c-.011-.015-.011-.015.005-.003.016.013.021.02.013.02-.002 0-.01-.007-.017-.016zM2.46 9.25c0-.03.002-.042.004-.027a.218.218 0 0 1 0 .054c-.002.015-.004.003-.004-.027zM1.235 8.162c0-.046.002-.065.004-.042a.566.566 0 0 1 0 .084c-.002.024-.004.005-.004-.042zm0-1.952c0-.027.002-.037.004-.022a.177.177 0 0 1 0 .05c-.003.012-.005 0-.004-.028zm8.635-.76c0-.012.003-.014.006-.006a.025.025 0 0 1 0 .019c-.004.003-.006-.003-.006-.013z"/><path d="M4.078 15.727a.53.53 0 0 1-.193-.135.582.582 0 0 1-.168-.307.629.629 0 0 1 .225-.606.632.632 0 0 1 .234-.11c.073-.016 1.762-.026 2.334-.014.404.008.433.01.488.03a.62.62 0 0 1 .397.694.571.571 0 0 1-.169.313.525.525 0 0 1-.194.135l-.114.056H4.192zM1.63 13.301a1.89 1.89 0 0 1-1.016-.461 1.845 1.845 0 0 1-.518-1.963 1.78 1.78 0 0 1 .771-.968c.164-.108.244-.186.293-.286.068-.14.064-.093.073-.932.005-.418.008-1.366.006-2.105-.002-1.474-.005-1.402.057-1.763a4.335 4.335 0 0 1 3.467-3.515c.075-.013.146-.03.156-.035.018-.01.02-.024.02-.325 0-.338.007-.431.044-.538a.593.593 0 0 1 .454-.397.538.538 0 0 1 .237 0c.211.038.384.19.455.399.037.109.045.2.045.536v.315l.037.01.15.035c.363.082.632.165.887.273a4.31 4.31 0 0 1 2.597 3.444c.031.259.035.52.035 2.433 0 1.64.002 1.929.014 1.987.041.195.14.329.326.447.207.13.367.27.493.425a1.847 1.847 0 0 1 .303 1.735 1.851 1.851 0 0 1-1.546 1.25c-.109.012-7.733.012-7.84 0zm7.79-1.237c.28-.082.46-.32.46-.608 0-.229-.106-.395-.348-.544-.448-.277-.709-.627-.824-1.106-.06-.247-.057-.124-.064-2.405-.006-2.243-.004-2.138-.055-2.426a3.008 3.008 0 0 0-1.032-1.773 3.148 3.148 0 0 0-1.616-.72 3.597 3.597 0 0 0-.785.006c-.873.134-1.622.582-2.116 1.266-.238.33-.425.763-.508 1.173-.062.309-.057.145-.065 2.465-.005 1.546-.01 2.141-.019 2.199a1.868 1.868 0 0 1-.179.603c-.08.16-.17.284-.3.415a1.85 1.85 0 0 1-.377.294c-.3.183-.426.459-.337.734.076.235.259.4.484.439.028.004 1.732.008 3.837.007 3.58-.001 3.788-.003 3.844-.019z"/></g></svg>