<svg xmlns="http://www.w3.org/2000/svg" width="60" height="59.89" viewBox="0 0 15.875 15.846"><g fill="#fff"><path d="m5.013 14.426-.018-.022.022.018a.11.11 0 0 1 .022.023c0 .008-.008.002-.026-.02zm5.831.009c0-.002.008-.01.017-.018.016-.012.017-.012.004.004-.013.016-.02.022-.02.014zm-4.11-2.306a.108.108 0 0 1 .04 0c.009.003-.001.005-.023.005s-.03-.002-.017-.005zm2.307 0a.637.637 0 0 1 .09 0c.022.002 0 .004-.048.004-.05 0-.068-.002-.042-.004zm-2.802-1.43-.024-.026.027.024a.172.172 0 0 1 .028.027c0 .008-.008.001-.03-.024zm.006-.855c.01-.01.02-.02.023-.02.002 0-.003.01-.013.02-.01.01-.02.02-.023.02-.003 0 .003-.01.013-.02zm3.373-.002-.02-.023.023.02c.021.017.027.025.019.025a.11.11 0 0 1-.022-.022zM5.444 7.178c.007-.003.016-.003.02 0 .003.004-.003.006-.014.006s-.014-.003-.006-.006zm4.972 0c.007-.003.015-.003.019 0 .003.004-.003.006-.013.006-.012 0-.014-.003-.006-.006zM2.457 2.226c.122-.002.319-.002.437 0 .118.001.019.003-.221.003s-.337-.002-.216-.003zm9.66 0c.092-.002.24-.002.328 0 .088.001.013.003-.167.003-.18 0-.252-.002-.16-.003zm.158 11.771c0-.017.002-.022.005-.012a.057.057 0 0 1 0 .03c-.003.006-.005-.002-.005-.018zm-8.683-.005c0-.014.002-.02.005-.013a.038.038 0 0 1 0 .025c-.003.007-.005.001-.005-.012zm3.241-.623a4.72 4.72 0 0 1 .238 0c.064.002.01.003-.122.003-.13 0-.183-.001-.116-.003zm.962 0h.347c.097.002.02.003-.17.003-.192 0-.271-.001-.177-.003zm.988 0c.07-.002.183-.002.253 0s.012.003-.127.003-.196-.001-.126-.003zm-2.711-.594c0-.011.003-.014.006-.006s.002.016 0 .02c-.004.003-.006-.003-.006-.014zm3.722-.004c0-.013.002-.019.005-.012a.038.038 0 0 1 0 .025c-.003.006-.005 0-.005-.013zm-3.722-.045c0-.012.003-.014.006-.006.003.007.002.016 0 .019-.004.003-.006-.003-.006-.013zm3.721 0c0-.012.003-.014.006-.006.003.007.003.016 0 .019-.004.003-.006-.003-.006-.013zm-2.453-.597c.307-.002.807-.002 1.111 0 .304.001.052.002-.559.002-.611 0-.86 0-.552-.002zm-1.268-1.834c0-.012.003-.014.006-.006a.025.025 0 0 1 0 .019c-.004.003-.006-.003-.006-.013zm3.721 0c0-.012.003-.014.006-.006.003.007.003.015 0 .019-.004.003-.006-.003-.006-.013zm-3.721-.04c0-.012.003-.014.006-.006.003.007.002.016 0 .019-.004.003-.006-.003-.006-.013zm3.721 0c0-.012.003-.014.006-.006.003.007.003.016 0 .019-.004.003-.006-.003-.006-.013zm2.482-1.22c0-.016.002-.022.005-.012a.057.057 0 0 1 0 .03c-.003.007-.005-.001-.005-.018zM3.592 9.03c0-.013.002-.019.005-.012a.038.038 0 0 1 0 .025c-.003.007-.005.001-.005-.013zm3.122-.612c.672-.002 1.773-.002 2.446 0 .672.001.122.002-1.223.002-1.346 0-1.896-.001-1.223-.002zm-.764-1.24c.268-.002.708-.002.977 0 .269 0 .049.002-.489.002-.537 0-.757-.001-.488-.003zm2.996 0c.27-.002.709-.002.978 0 .269 0 .049.002-.489.002s-.757-.001-.489-.003zm.847-1.835c0-.011.003-.014.006-.006.003.007.003.016 0 .02-.004.002-.006-.003-.006-.014zm1.242-.019c0-.022.002-.03.005-.017a.109.109 0 0 1 0 .04c-.003.01-.005-.001-.005-.023zm2.48.015c0-.014.002-.02.005-.012a.038.038 0 0 1 0 .024c-.003.007-.005.002-.005-.012zm-1.241-.036c0-.011.003-.013.006-.006.003.008.002.016-.001.02-.003.003-.006-.003-.005-.014zm-2.48-.01c0-.011.002-.013.005-.005.003.007.003.015 0 .019-.004.003-.006-.003-.006-.013zM4.902 3.467h6.068c1.668.001.303.003-3.034.003-3.338 0-4.703-.002-3.034-.003zm-1.369-1.24c.24-.002.628-.002.863 0 .236.001.04.002-.434.002-.475 0-.668 0-.429-.002zm7.05 0c.252-.002.665-.002.917 0 .253.001.046.002-.458.002-.505 0-.712 0-.46-.002zM3.595 13.54c0-.24.001-.337.003-.215v.437c-.002.118-.003.018-.003-.222zm8.683-.054c0-.27 0-.38.002-.246.002.135.002.356 0 .491-.001.135-.002.025-.002-.245zm-4.983-.117c.064-.002.167-.002.228 0s.008.003-.117.003c-.126 0-.176-.001-.111-.003zm1.1 0a2.67 2.67 0 0 1 .179 0c.05.002.012.003-.087.003-.098 0-.14-.001-.092-.003zm-4.8-3.852c0-.26.001-.366.003-.236v.471c-.002.13-.003.024-.003-.235zm8.683-.02c0-.243 0-.342.002-.221.002.121.002.32 0 .442-.001.12-.002.022-.002-.221zM7.67 7.177a30.4 30.4 0 0 1 .531 0c.146.002.027.003-.265.003-.292 0-.412-.001-.266-.003zm-2.2-4.951c.36-.002.944-.002 1.3 0 .356.001.062.002-.653.002-.715 0-1.006 0-.647-.002zm3.274 0c.255-.002.673-.002.928 0 .255.001.046.002-.464.002s-.72 0-.464-.002zm-3.908 9.29c0-1.343 0-1.89.002-1.217.002.673.002 1.771 0 2.44-.001.67-.002.12-.002-1.223zm6.202 0c0-1.343 0-1.89.002-1.217v2.44c-.001.67-.002.12-.002-1.223zm-7.443.03c0-.863.001-1.214.003-.78v1.567c-.002.43-.003.075-.003-.787zm8.683.823c0-.349 0-.49.002-.314s.002.462 0 .635c-.001.173-.002.029-.002-.32zm0-1.76c0-.375 0-.528.002-.34.002.186.002.492 0 .679-.001.187-.002.034-.002-.34zM7.627 2.225c.121-.002.32-.002.441 0 .122.001.022.003-.22.003-.243 0-.343-.002-.221-.003zM4.832 13.966c0-.011.002-.014.006-.006.002.007.002.016-.001.02-.003.002-.006-.003-.005-.014zm6.201 0c0-.011.003-.014.006-.006.003.007.003.016 0 .02-.004.002-.006-.003-.006-.014zm1.244-2.455c0-.128.002-.18.003-.117.002.065.002.17 0 .234-.001.064-.003.011-.003-.117zm1.77-.622a.027.027 0 0 1 .02 0c.003.004-.003.006-.014.006s-.014-.003-.006-.006zM4.832 9.064c0-.011.002-.014.006-.006.002.007.002.016-.001.02-.003.003-.006-.003-.005-.014zm6.201 0c0-.011.003-.014.006-.006.003.007.003.016 0 .02-.004.003-.006-.003-.006-.014zM4.097 7.766c0-.002.007-.01.017-.017.016-.012.016-.012.004.004-.013.016-.021.022-.021.013zm11.24-4.975c-.011-.015-.011-.016.005-.003.016.013.021.02.013.02-.002 0-.01-.007-.017-.017zm-.059-.06c-.012-.015-.012-.015.004-.003.017.013.022.021.014.021a.076.076 0 0 1-.018-.017zM4.224 1.235a.025.025 0 0 1 .019 0c.003.004-.003.007-.013.006-.012 0-.014-.003-.006-.006zm8.05-.613c.001-.017.003-.022.006-.013a.057.057 0 0 1 0 .03c-.003.007-.005 0-.005-.017z"/><path d="M6.258 13.19c-.012-.015-.012-.016.004-.003.01.007.018.015.018.017 0 .008-.009.003-.022-.013zm3.36-.012c.01-.01.02-.02.024-.02.002 0-.004.01-.013.02-.01.011-.02.02-.023.02-.003 0 .003-.009.013-.02zm-3.373-.853c.01-.011.02-.02.023-.02.002 0-.003.009-.013.02-.01.01-.02.02-.023.02-.003 0 .003-.01.013-.02zm3.357-.018c-.012-.015-.012-.016.004-.003.017.013.022.02.014.02-.002 0-.01-.007-.018-.017zm-7.83-1.418a.027.027 0 0 1 .02 0c.003.004-.003.006-.013.006-.012 0-.014-.003-.006-.006zm12.235 0a.038.038 0 0 1 .025 0c.007.003.001.005-.013.005-.013 0-.019-.002-.012-.005zm-11.711-.182c.01-.01.02-.02.022-.02.003 0-.003.01-.013.02a.095.095 0 0 1-.022.02c-.003 0 .003-.009.013-.02zm-.001-.865-.02-.023.023.02c.021.017.027.025.019.025a.11.11 0 0 1-.022-.022zm2.714-1.243a.117.117 0 0 1 .029-.025c.002 0-.006.011-.019.025a.117.117 0 0 1-.028.025c-.003 0 .006-.012.018-.025zm5.844-.003c-.013-.016-.012-.016.004-.004.01.008.017.016.017.018 0 .008-.008.003-.021-.014zm.879-.868-.03-.032.033.029c.03.027.036.035.029.035a.248.248 0 0 1-.032-.032zm-7.606.009c0-.002.008-.01.018-.018.015-.012.016-.012.003.004-.013.017-.02.022-.02.014zm11.182-4.975c-.012-.016-.012-.017.004-.004.016.013.022.02.013.02-.002 0-.01-.007-.017-.016zM4.81 1.233h1.13c.31.002.054.003-.568.003-.623 0-.876-.001-.563-.003zm6.847.001c.007-.003.016-.002.019 0 .003.004-.003.007-.013.006-.012 0-.014-.003-.006-.006zM3.59.63c0-.012.003-.014.006-.006.003.007.003.016 0 .019C3.592.646 3.59.64 3.59.63z"/><path d="M5.387 15.84c-.63-.043-1.148-.331-1.47-.816a1.92 1.92 0 0 1-.307-.868c-.008-.079-.01-.853-.007-2.72.003-2.598.004-2.61.024-2.709a1.99 1.99 0 0 1 .318-.768 2.42 2.42 0 0 1 .43-.43 2 2 0 0 1 .904-.334c.135-.014 5.18-.014 5.315 0 .239.026.463.092.677.2.183.092.298.176.456.335.282.281.43.567.52.998.02.098.02.112.023 2.724.003 2.356.002 2.637-.012 2.75a1.877 1.877 0 0 1-.3.822c-.318.476-.831.768-1.431.813-.12.01-5.012.013-5.14.004zm5.224-1.265a.594.594 0 0 0 .405-.431l.022-.078.003-2.49c.002-1.689 0-2.52-.008-2.582-.033-.292-.198-.486-.472-.556-.066-.017-.201-.018-2.62-.018-2.434 0-2.553 0-2.627.018a.601.601 0 0 0-.46.453c-.017.062-.018.178-.021 2.556-.002 1.733 0 2.519.008 2.584.035.306.202.497.49.561.05.011.525.013 2.63.012l2.57-.002zm-4.029-1.223a.683.683 0 0 1-.23-.094.58.58 0 0 1-.27-.507c0-.174.05-.3.172-.422.06-.06.098-.09.155-.117.156-.076.045-.07 1.538-.07H9.28l.08.026a.597.597 0 0 1 .431.588c0 .17-.052.296-.173.418a.516.516 0 0 1-.154.117c-.158.076-.04.07-1.508.072-1.065.002-1.327 0-1.375-.011zm.062-2.466a.65.65 0 0 1-.39-.184.583.583 0 0 1-.173-.426c0-.165.058-.311.169-.423a.65.65 0 0 1 .414-.188c.068-.007.473-.01 1.337-.007l1.24.003.08.022c.18.05.327.16.4.297a.655.655 0 0 1 0 .592.617.617 0 0 1-.257.242c-.171.082-.056.076-1.483.078-.698 0-1.3-.002-1.337-.006Zm-4.95 0a1.845 1.845 0 0 1-1.373-.819 1.983 1.983 0 0 1-.28-.64l-.038-.134L.001 6.57C-.001 4.189 0 3.84.013 3.8c.008-.024.028-.096.044-.159.129-.502.45-.925.894-1.176.172-.097.352-.162.585-.21.08-.016.44-.017 6.321-.02 4.418-.003 6.27 0 6.351.007.244.023.415.072.63.179.172.086.293.172.439.311.293.282.424.507.554.957l.044.152V9.28l-.034.12c-.125.443-.256.683-.511.94-.298.3-.643.472-1.055.531a1.486 1.486 0 0 1-.412 0 .616.616 0 0 1-.45-.451.718.718 0 0 1 .015-.334c.078-.243.29-.401.572-.426.04-.003.11-.015.156-.025a.604.604 0 0 0 .446-.4l.028-.08.002-2.556c.003-2.859.009-2.638-.069-2.798a.6.6 0 0 0-.395-.314c-.062-.018-.294-.018-6.231-.018s-6.17 0-6.232.018a.6.6 0 0 0-.395.314c-.078.16-.072-.06-.069 2.798l.003 2.555.027.08c.05.15.153.273.285.341a.67.67 0 0 0 .286.08c.205.022.326.07.435.172a.572.572 0 0 1 .195.439.55.55 0 0 1-.175.437c-.154.153-.326.205-.603.182zm8.646-4.952a.63.63 0 0 1-.391-.212.732.732 0 0 1-.137-.282.7.7 0 0 1 .023-.319.614.614 0 0 1 .572-.41.542.542 0 0 1 .287.065.616.616 0 0 1-.354 1.158zm2.48 0a.615.615 0 0 1 .088-1.223c.262.003.49.17.576.42.03.088.038.24.015.327a.618.618 0 0 1-.531.476 1.13 1.13 0 0 1-.08.009l-.068-.01zM5.302 1.23c-1.136-.005-1.203-.006-1.255-.024-.225-.076-.38-.23-.432-.43A.747.747 0 0 1 3.62.464.55.55 0 0 1 3.779.19a.57.57 0 0 1 .182-.13l.108-.054L7.92.003 11.772 0l.094.04c.26.11.407.32.407.576a.62.62 0 0 1-.461.601c-.057.018-.177.018-2.685.019-1.443 0-3.164-.002-3.825-.005z"/></g></svg>