<svg xmlns="http://www.w3.org/2000/svg" width="108" height="119.635" viewBox="0 0 28.575 31.653"><g fill="#fff"><path d="M5.876 22.362a.282.282 0 0 1 .09 0c.024.005.004.01-.045.01-.05 0-.07-.005-.045-.01zm8.258-2.557a.113.113 0 0 1 .06.001c.013.006-.003.01-.036.01-.033-.001-.044-.006-.024-.01zm.118 0a.163.163 0 0 1 .07 0c.019.005.003.01-.035.01-.038 0-.054-.005-.035-.01zM2.336 15.993c0-.027.004-.039.01-.025a.077.077 0 0 1 0 .05c-.006.013-.01.002-.01-.025zm21.35-.032c0-.023.005-.027.012-.011.005.014.005.03-.002.038-.007.006-.011-.006-.01-.027zm-21.349-.325c0-.038.004-.054.01-.035.004.02.004.05 0 .07-.006.019-.01.003-.01-.035zm21.349-.031c0-.023.005-.028.012-.012.005.014.005.031-.002.038-.007.006-.011-.005-.01-.026zM2.013 13.103c-.025-.031-.024-.032.007-.007.02.015.035.03.035.035 0 .016-.016.005-.042-.028zm15.128-.099-.069-.074.075.068c.069.064.083.08.068.08a.675.675 0 0 1-.074-.074zm10.33-.625c0-.004.029-.033.064-.065l.064-.058-.058.064c-.054.06-.07.074-.07.059zm-5.08-5.697a.077.077 0 0 1 .049 0c.014.005.003.01-.025.01-.027 0-.038-.005-.025-.01zM18.32 4.41l-.038-.044.044.037a.22.22 0 0 1 .045.045c0 .016-.016.004-.051-.038zM3.518 25.456c.015-.006.032-.005.038.001.007.007-.005.011-.026.01-.023 0-.027-.005-.012-.011zm21.32-.001a.438.438 0 0 1 .11 0c.03.005.005.008-.055.008s-.084-.003-.054-.008zm.01-2.477a.077.077 0 0 1 .05 0c.014.005.003.01-.024.01-.028 0-.039-.005-.025-.01zm-2.258-.635c.014-.006.031-.005.038.002.007.006-.005.011-.026.01-.023 0-.028-.006-.012-.012zm-8.227-2.537c.014-.006.031-.005.038.001.006.007-.005.011-.026.01-.023 0-.028-.005-.012-.011zm9.324-3.773c0-.028.005-.039.01-.025a.077.077 0 0 1 0 .05c-.005.013-.01.002-.01-.025zM2.34 15.824c0-.076.004-.105.008-.064a.741.741 0 0 1 0 .14c-.004.034-.008 0-.008-.076zm5.447-.1c.001-.024.006-.028.012-.012.006.014.005.031-.002.038-.006.006-.01-.006-.01-.026zm15.901-.187c0-.027.005-.039.01-.025a.077.077 0 0 1 0 .05c-.005.013-.01.002-.01-.025zm-21.27-1.378c0-.054.005-.074.01-.044a.353.353 0 0 1-.001.099c-.005.024-.009 0-.008-.055zm21.172.04c0-.033.005-.044.01-.025a.113.113 0 0 1-.001.06c-.005.013-.01-.003-.01-.035zm-.003-.32c.001-.022.006-.027.012-.011.006.014.005.031-.001.038-.007.006-.011-.005-.01-.026zM3.666 8.506a.163.163 0 0 1 .07 0c.018.005.003.01-.035.01-.039 0-.054-.005-.035-.01zm-.089 16.95a.077.077 0 0 1 .05 0c.013.006.002.01-.026.01-.027 0-.038-.004-.024-.01zm.158 0a.077.077 0 0 1 .05 0c.013.006.002.01-.025.01-.027 0-.038-.004-.025-.01zm21.981-2.822c.02-.022.04-.04.046-.04.005 0-.006.018-.026.04a.156.156 0 0 1-.046.04c-.005 0 .006-.018.026-.04zm-7.42-6.85c0-.043.005-.058.01-.034a.217.217 0 0 1 0 .08c-.006.018-.01-.002-.01-.045zm5.39-.318c0-.023.005-.028.012-.012.005.014.005.031-.002.038-.007.006-.011-.005-.01-.026zm-.1-1.348c.001-.023.006-.028.012-.012.006.014.005.031-.001.038-.007.006-.011-.005-.01-.026zm.004-.137c0-.044.004-.06.009-.035a.217.217 0 0 1 0 .08c-.005.018-.01-.002-.01-.045zm-9.417-2.185a.438.438 0 0 1 .11 0c.03.004.005.008-.055.008s-.085-.004-.055-.008zm13.306-4.67-.058-.064.064.058c.06.054.074.07.059.07a.495.495 0 0 1-.065-.064zM15.148 2.804l-.038-.044.044.038c.042.035.054.051.038.051a.22.22 0 0 1-.044-.045zM3.656 25.456a.077.077 0 0 1 .05 0c.013.006.002.01-.025.01-.028 0-.039-.004-.025-.01zm23.825-1.097c.02-.022.04-.04.045-.04.006 0-.006.018-.026.04a.156.156 0 0 1-.045.04c-.006 0 .006-.018.026-.04zM3.909 20.057c.02-.022.04-.04.046-.04.005 0-.007.018-.026.04a.156.156 0 0 1-.046.04c-.006 0 .006-.018.026-.04zm20.685-.035-.048-.054.055.048a.3.3 0 0 1 .054.054c0 .016-.016.003-.06-.048zm-.908-3.882c0-.023.005-.028.012-.012.005.014.005.031-.002.038-.007.007-.011-.005-.01-.026zm-15.898-.107c0-.028.004-.039.01-.025a.077.077 0 0 1 0 .05c-.006.013-.01.002-.01-.025zm10.505-.15c.001-.024.006-.029.012-.013.006.015.005.032-.001.038-.007.007-.012-.005-.01-.026zm-10.507-.06c.001-.023.006-.028.012-.012.006.014.005.031-.002.038-.006.006-.01-.005-.01-.026zm12.966-.1c0-.023.005-.027.012-.011.005.014.005.031-.002.038-.007.006-.011-.006-.01-.026zm-2.457-.047c0-.028.004-.039.01-.025a.077.077 0 0 1 0 .05c-.006.013-.01.002-.01-.025zm-4.21-3.88c.014-.005.031-.005.038.002.007.006-.005.011-.026.01-.023 0-.028-.005-.012-.012zM11.649 30.55l-.048-.055.054.048c.03.026.055.05.055.054 0 .016-.016.003-.061-.048zm4.799-5.067c0-.004.029-.033.064-.065l.065-.058-.058.065c-.055.06-.071.073-.071.058zm5.942-3.14a.282.282 0 0 1 .09 0c.024.004.004.008-.045.008s-.07-.004-.045-.008zm-8.325-.04c.015-.005.032-.005.038.002.007.007-.005.011-.026.01-.023 0-.028-.005-.012-.012zM9.677 20.39l-.098-.104.104.098c.096.092.113.11.098.11-.003 0-.05-.047-.104-.104zm-7.671-1.977c.02-.022.04-.04.045-.04.006 0-.006.018-.026.04a.156.156 0 0 1-.045.04c-.006 0 .006-.019.026-.04zm2.89-.803c0-.066.004-.09.008-.055a.527.527 0 0 1 0 .12c-.004.03-.008 0-.008-.065zm18.71-.379c.001-.023.006-.028.012-.012.006.015.005.032-.001.038-.007.007-.012-.005-.01-.026zm2.558-.892c0-.023.005-.028.012-.012.005.014.005.032-.002.038-.006.007-.011-.005-.01-.026zm-5.41-.187c0-.027.004-.038.01-.024a.077.077 0 0 1 0 .05c-.006.013-.01.002-.01-.026zm-15.956-.228c0-.087.003-.12.007-.073a.99.99 0 0 1 0 .158c-.004.04-.007.003-.007-.085zm2.991 0c0-.043.005-.059.01-.034a.217.217 0 0 1 0 .08c-.006.018-.01-.002-.01-.046zm10.504.019c.001-.023.006-.028.012-.012.006.014.005.031-.001.038-.007.006-.012-.005-.01-.026zm2.459-.159c0-.023.005-.028.012-.012.005.014.005.031-.002.038-.007.007-.011-.005-.01-.026zm5.412-.436c0-.023.005-.028.012-.012.005.014.005.031-.002.038-.006.007-.011-.005-.01-.026zm-11.782-3.55c.015-.006.032-.006.038 0 .007.007-.005.012-.026.011-.023 0-.027-.005-.012-.012zm10.254-.352c0-.004.015-.02.034-.034.032-.025.032-.024.008.007-.026.033-.042.044-.042.027zm-15.008-.22a.235.235 0 0 1 .057-.05c.005 0-.011.023-.037.05a.235.235 0 0 1-.056.05c-.006 0 .01-.023.036-.05zm.1-.097c0-.004.015-.02.034-.034.031-.025.032-.024.008.007-.026.033-.043.044-.043.027zm4.337-1.77c.015-.006.032-.005.038.001.007.007-.005.012-.026.01-.023 0-.028-.005-.012-.011zm.396 0a.077.077 0 0 1 .05 0c.013.006.002.01-.026.01-.027 0-.038-.004-.024-.01zm-11.692-.43c0-.004.015-.02.034-.035.032-.025.033-.024.008.007-.026.033-.042.044-.042.028zm9.278-2.778a.235.235 0 0 1 .056-.05c.006 0-.01.023-.036.05a.235.235 0 0 1-.057.05c-.005 0 .011-.023.037-.05zm5.913-2.647c0-.049.004-.069.009-.044a.282.282 0 0 1 0 .089c-.005.024-.009.004-.009-.045zm-4.545-.701c0-.004.015-.02.034-.035.032-.025.033-.024.008.008-.026.033-.042.043-.042.027zm3.499 27.741a.552.552 0 0 1 .087-.079.344.344 0 0 1-.067.08.552.552 0 0 1-.088.079.344.344 0 0 1 .068-.08zM10.24 27.16c-.024-.031-.024-.032.008-.007.033.026.043.042.027.042a.13.13 0 0 1-.035-.035zm-6.583-4.162c.015-.005.032-.005.038.002.007.006-.005.011-.026.01-.023 0-.028-.005-.012-.012zm10.477-.694a.113.113 0 0 1 .06.001c.013.005-.003.01-.036.01-.033-.001-.044-.006-.024-.01zm.237 0a.163.163 0 0 1 .07 0c.019.005.003.01-.035.01-.038 0-.054-.005-.035-.01zm4.377-1.778c0-.004.015-.02.034-.034.032-.025.032-.024.008.007-.026.033-.042.044-.042.027zm8.723-1.37a.45.45 0 0 1-.078-.09c.005 0 .05.04.097.09a.45.45 0 0 1 .078.09.686.686 0 0 1-.097-.09zM26.066 17.5c0-.028.005-.039.01-.025a.077.077 0 0 1 0 .05c-.005.013-.01.002-.01-.025zM4.794 16.112c0-.027.005-.039.01-.025a.077.077 0 0 1 0 .05c-.005.013-.01.002-.01-.025zm15.958-.032c0-.023.005-.027.012-.012.005.015.005.032-.002.038-.007.007-.011-.005-.01-.026zm.003-.206c0-.038.004-.054.009-.035.005.02.005.05 0 .07-.005.019-.01.003-.01-.035zm-15.96-.149c0-.032.005-.043.01-.024a.113.113 0 0 1-.001.06c-.006.013-.01-.003-.01-.036zm6.647-2.765a.552.552 0 0 1 .088-.08.344.344 0 0 1-.068.08.552.552 0 0 1-.087.079.344.344 0 0 1 .067-.08zm13.144-1.467c.02-.022.04-.04.046-.04.005 0-.006.018-.026.04a.156.156 0 0 1-.046.04c-.005 0 .006-.019.026-.04zM14.133 9.358a.163.163 0 0 1 .07 0c.019.005.003.009-.035.009-.038 0-.054-.004-.035-.01zm.239 0a.113.113 0 0 1 .06 0c.013.006-.003.01-.036.01-.033 0-.044-.005-.024-.01zM6.036 9.16c.014-.006.032-.005.038.001.007.007-.005.011-.026.01-.023 0-.028-.005-.012-.011zm.158 0a.077.077 0 0 1 .05 0c.013.006.002.01-.026.01-.027 0-.038-.004-.024-.01zm10.698-8.12-.038-.045.045.038a.22.22 0 0 1 .045.045c0 .016-.016.004-.052-.038z"/><path d="M13.464 31.559c-.798-.235-1.247-.48-1.73-.943-.455-.439-.758-.897-.942-1.43-.125-.363-.176-.638-.211-1.154-.03-.435-.126-.672-.364-.9-.114-.108-.286-.203-.638-.35-.896-.375-1.69-.838-2.559-1.49-.384-.29-.5-.358-.692-.407-.279-.072-.517-.028-.956.175-.634.293-1.163.405-1.819.384a3.43 3.43 0 0 1-1.511-.373C.964 24.543.222 23.498.045 22.258a3.776 3.776 0 0 1 .04-1.388c.194-.876.72-1.608 1.554-2.161.336-.223.52-.417.645-.679.138-.291.152-.52.087-1.492a17.18 17.18 0 0 1 .032-1.943c.053-.58.023-.84-.133-1.158-.11-.224-.299-.414-.651-.651-.48-.325-.816-.666-1.078-1.098a3.746 3.746 0 0 1 .352-4.354c.494-.588 1.292-1.056 2.07-1.213.823-.166 1.57-.07 2.363.306.392.185.514.218.803.218.392 0 .588-.09 1.13-.514.625-.49 1.397-.93 2.26-1.29.442-.183.534-.236.706-.406.247-.243.332-.47.374-1.001a3.76 3.76 0 0 1 .293-1.24A3.579 3.579 0 0 1 12.306.538c1.051-.651 2.47-.718 3.636-.17a3.63 3.63 0 0 1 1.343 1.133c.397.56.655 1.32.677 2.003.01.265.049.433.145.617.161.307.434.52 1.047.818.661.32 1.069.56 1.983 1.162.328.216.662.424.744.463.202.096.403.137.604.123.194-.013.354-.068.7-.237.748-.366 1.512-.482 2.298-.35a3.669 3.669 0 0 1 2.946 2.687c.256.974.11 2.072-.378 2.863-.306.494-.66.846-1.264 1.255-.355.24-.496.373-.581.55-.13.266-.145.43-.094.995.09 1 .09 1.85-.002 2.632-.04.344-.04.582.003.727.092.316.273.53.681.802.35.234.486.347.749.618a3.3 3.3 0 0 1 .628.886c.392.78.5 1.602.318 2.417A3.76 3.76 0 0 1 25.49 25.4c-.24.044-.722.059-.969.03-.386-.045-.808-.168-1.332-.389-.345-.145-.514-.187-.744-.187-.33 0-.469.063-.992.457a11.829 11.829 0 0 1-2.585 1.496c-.387.164-.549.275-.684.472-.128.186-.167.33-.2.737-.046.56-.128.945-.289 1.353a3.623 3.623 0 0 1-1.475 1.72c-.32.193-.754.367-1.16.465a1.76 1.76 0 0 0-.242.073c-.04.02-.168.026-.545.025h-.491l-.318-.094zm1.119-2.413c.289-.068.54-.241.708-.49.153-.224.202-.397.237-.838.058-.716.164-1.125.419-1.618.28-.543.793-1.056 1.388-1.386.101-.057.347-.176.545-.266.91-.41 1.453-.726 2.18-1.273.539-.405.937-.627 1.374-.766.381-.122.524-.142 1.001-.142.387 0 .45.005.675.054.325.07.65.183 1.01.353.376.177.486.206.763.205a.917.917 0 0 0 .376-.055c.376-.13.67-.433.79-.815a1.344 1.344 0 0 0-.002-.707c-.105-.305-.302-.535-.658-.767-.8-.52-1.262-1.053-1.539-1.77-.218-.567-.285-1.28-.195-2.089.056-.504.053-1.5-.007-2.037-.112-1.006-.009-1.724.346-2.415.29-.564.728-1.02 1.416-1.47.348-.23.533-.446.638-.75.06-.172.064-.528.008-.693-.15-.441-.476-.756-.894-.862a1.423 1.423 0 0 0-.61.008c-.082.021-.25.089-.372.15-.914.459-1.689.58-2.516.394-.613-.137-.966-.32-1.975-1.02-.43-.3-.924-.585-1.496-.865-.692-.338-.747-.367-.955-.494a3.793 3.793 0 0 1-.885-.75c-.514-.612-.773-1.31-.828-2.23a2.498 2.498 0 0 0-.05-.374c-.14-.552-.622-.916-1.213-.916-.465 0-.849.24-1.054.66-.114.232-.146.358-.171.679-.081 1.03-.377 1.738-.98 2.34-.377.38-.662.568-1.288.852-.977.444-1.633.822-2.367 1.365a8.78 8.78 0 0 1-.469.327 3.513 3.513 0 0 1-2.047.475c-.515-.035-.916-.154-1.502-.444-.422-.21-.637-.248-.946-.169a1.295 1.295 0 0 0-.859.686c-.089.19-.116.346-.102.59.025.448.215.738.698 1.063.41.276.67.495.893.75.417.476.677 1.02.783 1.64.055.32.06.769.013 1.29-.081.9-.083 1.82-.004 2.517a4.07 4.07 0 0 1-.077 1.435c-.071.28-.14.458-.283.738-.287.562-.718 1.005-1.384 1.425-.433.273-.644.634-.644 1.102 0 .347.1.59.344.832.262.259.564.393.885.392.21 0 .372-.043.594-.154.706-.355 1.208-.482 1.814-.46.568.02 1.089.145 1.534.368.267.133.359.193.785.513.74.557 1.407.947 2.211 1.293.656.282 1.042.527 1.406.892.607.607.917 1.357.993 2.398.024.336.056.473.155.675.091.187.314.418.493.512.255.133.615.178.897.112zm-.653-6.851a6.46 6.46 0 0 1-4.17-1.84 6.375 6.375 0 0 1-1.627-2.558c-.374-1.093-.428-2.207-.169-3.46a6.684 6.684 0 0 1 1.248-2.726c.223-.29.776-.83 1.09-1.065.965-.72 2.06-1.134 3.33-1.255a9.476 9.476 0 0 1 1.395.01c.529.056.949.145 1.43.301a6.037 6.037 0 0 1 3.562 3.037c.489.962.733 2.04.734 3.232 0 .788-.13 1.487-.408 2.2-.552 1.417-1.587 2.586-2.955 3.34a6.48 6.48 0 0 1-3.46.784zm.725-2.497c1.311-.128 2.431-.815 3.081-1.891.59-.977.734-2.256.376-3.351-.441-1.353-1.62-2.384-3.057-2.676a3.877 3.877 0 0 0-2.976.568A4.07 4.07 0 0 0 10.28 15.4a4.4 4.4 0 0 0 .141 1.533 3.904 3.904 0 0 0 1.073 1.787c.641.622 1.447.99 2.377 1.086.158.016.582.012.784-.008z"/></g></svg>